<?xml version="1.0" encoding="UTF-8" standalone="no"?>
<!DOCTYPE svg PUBLIC "-//W3C//DTD SVG 1.1//EN" "http://www.w3.org/Graphics/SVG/1.1/DTD/svg11.dtd">
<svg width="100%" height="100%" viewBox="0 0 5994 3500" preserveAspectRatio="xMidYMid slice" version="1.1" xmlns="http://www.w3.org/2000/svg" xmlns:xlink="http://www.w3.org/1999/xlink" xml:space="preserve" xmlns:serif="http://www.serif.com/" style="fill-rule:evenodd;clip-rule:evenodd;stroke-linejoin:round;stroke-miterlimit:2;">
 <g transform="translate(0 3500) rotate(-90)">
    <g transform="matrix(1,0,0,1,-3583.038889,-6.966667)">
        <g transform="matrix(-5.555556,0,0,5.555556,10665.372222,14.005556)">
            <rect x="653.468" y="5.258" width="612.831" height="1066.963" style="fill:rgb(163,205,216);"/>
        </g>
        <g transform="matrix(5.555556,0,0,5.555556,0,2312.527778)">
            <path d="M0,663.745L645.179,663.745L645.179,0L0,0L0,663.745ZM10.221,10.516L634.957,10.516L634.957,653.229L10.221,653.229L10.221,10.516Z" style="fill:rgb(163,205,216);fill-rule:nonzero;"/>
        </g>
        <g transform="matrix(5.555556,0,0,5.555556,1792.165,5941.576667)">
            <path d="M0,-642.713C-83.437,-642.713 -161.879,-609.286 -220.878,-548.59C-279.876,-487.893 -312.368,-407.194 -312.368,-321.356C-312.368,-235.519 -279.876,-154.819 -220.878,-94.123C-161.879,-33.427 -83.437,0.001 0,0.001C83.436,0.001 161.879,-33.427 220.877,-94.123C279.876,-154.819 312.368,-235.519 312.368,-321.356C312.368,-407.194 279.876,-487.893 220.877,-548.59C161.879,-609.286 83.436,-642.713 0,-642.713M0,10.516C-86.167,10.516 -167.176,-24.005 -228.105,-86.687C-289.034,-149.37 -322.59,-232.71 -322.59,-321.356C-322.59,-410.002 -289.034,-493.343 -228.105,-556.025C-167.176,-618.708 -86.167,-653.229 0,-653.229C86.167,-653.229 167.176,-618.708 228.105,-556.025C289.034,-493.343 322.589,-410.002 322.589,-321.356C322.589,-232.71 289.034,-149.37 228.105,-86.687C167.176,-24.005 86.167,10.516 0,10.516" style="fill:rgb(163,205,216);fill-rule:nonzero;"/>
        </g>
        <g transform="matrix(5.555556,0,0,5.555556,2852.285,2253.62)">
            <path d="M0,-395.136C-67.021,-395.136 -121.546,-306.507 -121.546,-197.568C-121.546,-88.628 -67.021,0.001 0,0.001C67.021,0.001 121.546,-88.628 121.546,-197.568C121.546,-306.507 67.021,-395.136 0,-395.136M0,10.516C-35.631,10.516 -68.965,-11.439 -93.86,-51.306C-118.305,-90.452 -131.767,-142.396 -131.767,-197.568C-131.767,-252.74 -118.305,-304.683 -93.86,-343.829C-68.965,-383.696 -35.631,-405.652 0,-405.652C35.632,-405.652 68.965,-383.696 93.86,-343.829C118.305,-304.683 131.768,-252.74 131.768,-197.568C131.768,-142.396 118.305,-90.452 93.86,-51.306C68.965,-11.439 35.632,10.516 0,10.516" style="fill:rgb(227,169,124);fill-rule:nonzero;"/>
        </g>
        <g transform="matrix(5.555556,0,0,5.555556,0,-3687.955556)">
            <path d="M10.221,1069.484L634.957,1069.484L634.957,674.347L10.221,674.347L10.221,1069.484ZM645.179,1080L0,1080L0,663.832L645.179,663.832L645.179,1080Z" style="fill:rgb(227,169,124);fill-rule:nonzero;"/>
        </g>
        <g transform="matrix(5.555556,0,0,5.555556,0,6.966667)">
            <path d="M655.169,1068.23L1264.6,1068.23L1264.6,10.516L655.169,10.516L655.169,1068.23ZM1274.821,1078.746L644.947,1078.746L644.947,0L1274.821,0L1274.821,1078.746Z" style="fill:rgb(237,230,220);fill-rule:nonzero;"/>
        </g>
        <g transform="matrix(5.555556,0,0,5.555556,3648.729444,20.921667)">
            <path d="M0,1074.99L-6.603,1066.963L601.616,537.495L-6.604,8.028L-0.001,0L617.44,537.495L0,1074.99Z" style="fill:rgb(237,230,220);fill-rule:nonzero;"/>
        </g>
        <g transform="matrix(5.555556,0,0,5.555556,7016.54,21.024444)">
            <path d="M0,1074.953L-610.614,537.476L-0.001,0L6.644,7.991L-594.892,537.476L6.645,1066.963L0,1074.953Z" style="fill:rgb(237,230,220);fill-rule:nonzero;"/>
        </g>
        <g transform="matrix(5.555556,0,0,5.555556,7142.370556,1845.147222)">
            <path d="M0,0L150.362,314.695L300.725,0L150.362,-314.696L0,0ZM150.362,331.872C148.414,331.872 146.635,330.733 145.776,328.934L-10.281,2.32C-10.98,0.857 -10.98,-0.857 -10.281,-2.32L145.776,-328.934C146.635,-330.732 148.414,-331.872 150.362,-331.872C152.311,-331.872 154.09,-330.732 154.949,-328.934L311.006,-2.32C311.705,-0.857 311.705,0.857 311.006,2.32L154.949,328.934C154.09,330.733 152.311,331.872 150.362,331.872" style="fill:rgb(217,122,91);fill-rule:nonzero;"/>
        </g>
        <g transform="matrix(5.555556,0,0,5.555556,0,-2309.7)">
            <path d="M1285.043,1069.229L1909.779,1069.229L1909.779,426.516L1285.043,426.516L1285.043,1069.229ZM1920,1079.745L1274.821,1079.745L1274.821,416.001L1920,416.001L1920,1079.745Z" style="fill:rgb(217,122,91);fill-rule:nonzero;"/>
        </g>
        <g transform="matrix(-2.831858,-4.779621,-4.779621,2.831858,10751.927577,5768.929886)">
            <path d="M297.92,582.466L308.408,582.466L331.921,-169.773L321.433,-169.771L297.92,582.466Z" style="fill:rgb(143,167,157);fill-rule:nonzero;"/>
        </g>
        <g transform="matrix(5.555556,0,0,5.555556,0,3691.766667)">
            <path d="M1284.811,404.864L1909.778,404.864L1909.778,10.618L1284.811,10.618L1284.811,404.864ZM1920,415.482L1274.59,415.482L1274.59,0L1920,0L1920,415.482Z" style="fill:rgb(143,167,157);fill-rule:nonzero;"/>
        </g>
    </g>
 </g>
</svg>
