<?xml version="1.0" encoding="UTF-8" standalone="no"?>
<!DOCTYPE svg PUBLIC "-//W3C//DTD SVG 1.1//EN" "http://www.w3.org/Graphics/SVG/1.1/DTD/svg11.dtd">
<svg width="100%" height="100%" viewBox="0 0 7026 2321" version="1.1" xmlns="http://www.w3.org/2000/svg" xmlns:xlink="http://www.w3.org/1999/xlink" xml:space="preserve" xmlns:serif="http://www.serif.com/" style="fill-rule:evenodd;clip-rule:evenodd;stroke-linejoin:round;stroke-miterlimit:2;">
    <g transform="matrix(1,0,0,1,-3635.998333,12.473333)">
        <g transform="matrix(-10.888957,0,0,3.49603,10661.327778,-12.472634)">
            <rect x="5.111" y="5.258" width="634.957" height="653.229" style="fill:rgb(135,107,93);"/>
        </g>
        <g transform="matrix(10.888957,0,0,3.49603,3636.0016,-12.472634)">
            <path d="M10.221,653.229L634.957,653.229L634.957,10.515L10.221,10.515L10.221,653.229ZM645.179,663.745L0,663.745L0,0L645.179,0L645.179,663.745Z" style="fill:rgb(163,205,216);fill-rule:nonzero;"/>
        </g>
        <g transform="matrix(10.888957,0,0,3.49603,7148.666867,2271.235046)">
            <path d="M0,-642.713C-83.437,-642.713 -161.879,-609.286 -220.878,-548.59C-279.876,-487.893 -312.368,-407.194 -312.368,-321.356C-312.368,-235.519 -279.876,-154.819 -220.878,-94.123C-161.879,-33.427 -83.437,0.001 0,0.001C83.436,0.001 161.879,-33.427 220.877,-94.123C279.876,-154.819 312.368,-235.519 312.368,-321.356C312.368,-407.194 279.876,-487.893 220.877,-548.59C161.879,-609.286 83.436,-642.713 0,-642.713M0,10.516C-86.167,10.516 -167.176,-24.005 -228.105,-86.687C-289.034,-149.37 -322.59,-232.71 -322.59,-321.356C-322.59,-410.002 -289.034,-493.343 -228.105,-556.025C-167.176,-618.708 -86.167,-653.229 0,-653.229C86.167,-653.229 167.176,-618.708 228.105,-556.025C289.034,-493.343 322.589,-410.002 322.589,-321.356C322.589,-232.71 289.034,-149.37 228.105,-86.687C167.176,-24.005 86.167,10.516 0,10.516" style="fill:rgb(163,205,216);fill-rule:nonzero;"/>
        </g>
    </g>
</svg>
