<svg width="62" height="127" viewBox="0 0 62 127" fill="none" xmlns="http://www.w3.org/2000/svg">
<path d="M31 56.6266C43.2848 56.6266 53.275 64.9786 53.275 75.2428C53.275 85.507 43.2848 93.8589 31 93.8589C18.7151 93.8589 8.72502 85.507 8.72502 75.2428C8.72502 64.9786 18.7151 56.6266 31 56.6266ZM31 47.2529C13.8815 47.2529 0 59.7856 0 75.2428C0 90.7 13.8815 103.233 31 103.233C48.1185 103.233 62 90.7 62 75.2428C62 59.7856 48.1185 47.2529 31 47.2529Z" fill="#E3A97C"/>
<path d="M31 9.37369C43.2848 9.37369 53.275 17.7256 53.275 27.9898C53.275 38.254 43.2848 46.606 31 46.606C18.7151 46.606 8.72502 38.254 8.72502 27.9898C8.72502 17.7256 18.7151 9.37369 31 9.37369ZM31 0C13.8815 0 0 12.5326 0 27.9898C0 43.447 13.8815 55.9797 31 55.9797C48.1185 55.9797 62 43.447 62 27.9898C62 12.5326 48.1185 0 31 0Z" fill="#E3A97C"/>
<path d="M31 79.9108C43.2848 79.9108 53.275 88.2628 53.275 98.5269C53.275 108.791 43.2848 117.143 31 117.143C18.7151 117.143 8.72502 108.791 8.72502 98.5269C8.72502 88.2628 18.7151 79.9108 31 79.9108ZM31 70.5371C13.8815 70.5371 0 83.0697 0 98.5269C0 113.984 13.8815 126.517 31 126.517C48.1185 126.517 62 113.984 62 98.5269C62 83.0697 48.1185 70.5371 31 70.5371Z" fill="#E3A97C"/>
<path d="M31 32.7052C43.2848 32.7052 53.275 41.0572 53.275 51.3214C53.275 61.5856 43.2848 69.9375 31 69.9375C18.7151 69.9375 8.72502 61.5856 8.72502 51.3214C8.72502 41.0572 18.7151 32.7052 31 32.7052ZM31 23.3315C13.8815 23.3315 0 35.8642 0 51.3214C0 66.7786 13.8815 79.3112 31 79.3112C48.1185 79.3112 62 66.7786 62 51.3214C62 35.8642 48.1185 23.3315 31 23.3315Z" fill="#E3A97C"/>
</svg>
