<?xml version="1.0" encoding="UTF-8" standalone="no"?>
<!DOCTYPE svg PUBLIC "-//W3C//DTD SVG 1.1//EN" "http://www.w3.org/Graphics/SVG/1.1/DTD/svg11.dtd">
<svg width="100%" height="100%" viewBox="0 0 805 805" version="1.1" xmlns="http://www.w3.org/2000/svg" xmlns:xlink="http://www.w3.org/1999/xlink" xml:space="preserve" xmlns:serif="http://www.serif.com/" style="fill-rule:evenodd;clip-rule:evenodd;stroke-linejoin:round;stroke-miterlimit:2;">
    <g transform="matrix(1,0,0,1,-3937.464444,-2597.781111)">
        <g transform="matrix(5.555556,0,0,5.555556,4339.681111,3346.664444)">
            <path d="M0,-124.799C-34.407,-124.799 -62.399,-96.807 -62.399,-62.4C-62.399,-27.992 -34.407,0 0,0C34.407,0 62.399,-27.992 62.399,-62.4C62.399,-71.443 60.465,-80.044 56.99,-87.809C47.241,-109.588 25.364,-124.799 0,-124.799M0,10C-39.921,10 -72.399,-22.478 -72.399,-62.4C-72.399,-102.321 -39.921,-134.799 0,-134.799C39.921,-134.799 72.399,-102.321 72.399,-62.4C72.399,-22.478 39.921,10 0,10" style="fill:rgb(163,205,216);fill-rule:nonzero;"/>
        </g>
    </g>
</svg>
