<?xml version="1.0" encoding="UTF-8" standalone="no"?>
<!DOCTYPE svg PUBLIC "-//W3C//DTD SVG 1.1//EN" "http://www.w3.org/Graphics/SVG/1.1/DTD/svg11.dtd">
<svg width="100%" height="100%" viewBox="0 0 395 788" version="1.1" xmlns="http://www.w3.org/2000/svg" xmlns:xlink="http://www.w3.org/1999/xlink" xml:space="preserve" xmlns:serif="http://www.serif.com/" style="fill-rule:evenodd;clip-rule:evenodd;stroke-linejoin:round;stroke-miterlimit:2;">
    <g transform="matrix(1,0,0,1,-3536.025,-2606.181667)">
        <g transform="matrix(5.555556,0,0,5.555556,3733.430556,2658.176111)">
            <path d="M0,123.057C-14.432,123.057 -26.174,113.186 -26.174,101.052C-26.174,99.546 -25.992,98.075 -25.648,96.653C-19.18,102.609 -10.084,106.323 0,106.323C10.084,106.323 19.18,102.609 25.648,96.653C25.992,98.075 26.174,99.546 26.174,101.052C26.174,113.186 14.432,123.057 0,123.057M0,0C14.432,0 26.174,9.871 26.174,22.005C26.174,23.528 25.989,25.015 25.636,26.452C19.17,20.502 10.079,16.792 0,16.792C-10.078,16.792 -19.17,20.502 -25.636,26.451C-25.989,25.015 -26.174,23.528 -26.174,22.005C-26.174,9.871 -14.432,0 0,0M19.036,48.482C21.45,47.127 23.665,45.523 25.636,43.709C25.989,45.146 26.174,46.633 26.174,48.156C26.174,49.864 25.934,51.525 25.493,53.123C23.558,51.363 21.392,49.804 19.036,48.482M0,43.595C-1.283,43.595 -2.548,43.658 -3.796,43.775C-10.838,42.911 -16.979,39.683 -21.037,35.08C-16.264,29.667 -8.612,26.151 0,26.151C8.612,26.151 16.264,29.667 21.037,35.08C16.979,39.683 10.838,42.911 3.796,43.775C2.548,43.658 1.283,43.595 0,43.595M-26.174,48.156C-26.174,46.633 -25.989,45.146 -25.636,43.709C-23.665,45.523 -21.45,47.127 -19.037,48.482C-21.392,49.804 -23.558,51.362 -25.493,53.122C-25.934,51.525 -26.174,49.864 -26.174,48.156M4.05,69.897C2.72,69.763 1.37,69.688 0,69.688C-1.37,69.688 -2.72,69.763 -4.049,69.897C-10.818,69.009 -16.731,65.931 -20.739,61.558C-16.681,57.13 -10.669,54.032 -3.796,53.188C-2.548,53.306 -1.283,53.369 0,53.369C1.283,53.369 2.548,53.306 3.796,53.188C10.669,54.032 16.681,57.13 20.739,61.558C16.731,65.931 10.818,69.009 4.05,69.897M-4.049,79.311C-2.72,79.445 -1.37,79.52 0,79.52C1.37,79.52 2.72,79.445 4.05,79.311C11,80.223 17.052,83.443 21.062,88.005C16.291,93.435 8.627,96.964 0,96.964C-8.627,96.964 -16.29,93.435 -21.062,88.005C-17.052,83.443 -11,80.223 -4.049,79.311M-26.174,74.959C-26.174,73.251 -25.934,71.59 -25.493,69.993C-23.573,71.74 -21.424,73.288 -19.088,74.604C-21.487,75.955 -23.687,77.553 -25.648,79.358C-25.992,77.936 -26.174,76.465 -26.174,74.959M26.174,74.959C26.174,76.465 25.992,77.936 25.648,79.358C23.687,77.553 21.487,75.956 19.088,74.604C21.423,73.288 23.573,71.74 25.493,69.993C25.934,71.59 26.174,73.251 26.174,74.959M32.296,35.08C34.368,31.099 35.532,26.673 35.532,22.005C35.532,4.683 19.624,-9.359 0,-9.359C-19.624,-9.359 -35.533,4.683 -35.533,22.005C-35.533,26.673 -34.369,31.099 -32.296,35.08C-34.369,39.062 -35.533,43.488 -35.533,48.156C-35.533,52.951 -34.309,57.493 -32.129,61.558C-34.309,65.622 -35.533,70.164 -35.533,74.959C-35.533,79.616 -34.374,84.032 -32.311,88.006C-34.374,91.979 -35.533,96.395 -35.533,101.052C-35.533,118.374 -19.624,132.416 0,132.416C19.624,132.416 35.532,118.374 35.532,101.052C35.532,96.395 34.373,91.979 32.311,88.006C34.373,84.032 35.532,79.616 35.532,74.959C35.532,70.164 34.308,65.622 32.129,61.558C34.308,57.493 35.532,52.951 35.532,48.156C35.532,43.488 34.368,39.062 32.296,35.08" style="fill:rgb(227,169,124);fill-rule:nonzero;"/>
        </g>
    </g>
</svg>
