<?xml version="1.0" encoding="UTF-8" standalone="no"?>
<!DOCTYPE svg PUBLIC "-//W3C//DTD SVG 1.1//EN" "http://www.w3.org/Graphics/SVG/1.1/DTD/svg11.dtd">
<svg width="100%" height="100%" viewBox="0 0 395 788" version="1.1" xmlns="http://www.w3.org/2000/svg" xmlns:xlink="http://www.w3.org/1999/xlink" xml:space="preserve" xmlns:serif="http://www.serif.com/" style="fill-rule:evenodd;clip-rule:evenodd;stroke-linejoin:round;stroke-miterlimit:2;">
    <g transform="matrix(1,0,0,1,-6735.83,-2606.180556)">
        <g transform="matrix(5.555556,0,0,5.555556,7130.641111,3393.819444)">
            <path d="M0,-141.775L-5.235,-141.775L-30.853,-90.667L-30.853,-141.775L-40.212,-141.775L-40.212,-90.667L-65.83,-141.775L-71.066,-141.775L-71.066,-131.335L-71.065,-131.333L-43.113,-75.568L-71.065,-75.568L-71.065,-66.208L-43.113,-66.208L-71.065,-10.444L-71.066,-10.442L-71.066,-0.002L-71.065,-0.001L-71.063,0L-65.831,0L-40.212,-51.109L-40.212,-0.222L-30.853,-0.222L-30.853,-51.109L-5.235,0L-0.001,0L0,-0.001L0,-10.443L-27.953,-66.208L0,-66.208L0,-75.568L-27.953,-75.568L0,-131.334L0,-141.775Z" style="fill:rgb(143,167,157);fill-rule:nonzero;"/>
        </g>
    </g>
</svg>
