<?xml version="1.0" encoding="UTF-8" standalone="no"?>
<!DOCTYPE svg PUBLIC "-//W3C//DTD SVG 1.1//EN" "http://www.w3.org/Graphics/SVG/1.1/DTD/svg11.dtd">
<svg width="100%" height="100%" viewBox="0 0 790 788" version="1.1" xmlns="http://www.w3.org/2000/svg" xmlns:xlink="http://www.w3.org/1999/xlink" xml:space="preserve" xmlns:serif="http://www.serif.com/" style="fill-rule:evenodd;clip-rule:evenodd;stroke-linejoin:round;stroke-miterlimit:2;">
    <g transform="matrix(1,0,0,1,-5939.584444,-2606.181111)">
        <g transform="matrix(5.555556,0,0,5.555556,6531.79,2664.197778)">
            <path d="M0,120.889L-12.532,95.888L5.234,60.444L-12.532,25L0,-0.001L30.299,60.444L0,120.889ZM-30.298,60.444L-17.766,35.443L-5.234,60.444L-17.766,85.445L-30.298,60.444ZM-35.532,120.889L-48.064,95.888L-35.532,70.887L-23,95.888L-35.532,120.889ZM-65.83,60.444L-53.298,35.443L-40.767,60.444L-53.298,85.445L-65.83,60.444ZM-71.064,120.889L-101.363,60.444L-71.064,-0.001L-58.533,25L-76.299,60.444L-58.533,95.888L-71.064,120.889ZM-35.532,-0.001L-23,25L-35.532,50.001L-48.064,25L-35.532,-0.001ZM35.532,49.999L5.235,-10.443L-5.235,-10.443L-17.766,14.557L-30.297,-10.443L-40.767,-10.443L-53.298,14.557L-65.83,-10.443L-76.299,-10.443L-106.597,50L-106.597,70.888L-76.299,131.332L-65.83,131.332L-53.298,106.331L-40.767,131.332L-30.298,131.332L-17.766,106.331L-5.234,131.332L5.235,131.332L35.532,70.889L35.533,70.887L35.533,50.001L35.532,49.999Z" style="fill:rgb(217,122,91);fill-rule:nonzero;"/>
        </g>
    </g>
</svg>
