<?xml version="1.0" encoding="UTF-8" standalone="no"?>
<!DOCTYPE svg PUBLIC "-//W3C//DTD SVG 1.1//EN" "http://www.w3.org/Graphics/SVG/1.1/DTD/svg11.dtd">
<svg width="100%" height="100%" viewBox="0 0 1185 788" version="1.1" xmlns="http://www.w3.org/2000/svg" xmlns:xlink="http://www.w3.org/1999/xlink" xml:space="preserve" xmlns:serif="http://www.serif.com/" style="fill-rule:evenodd;clip-rule:evenodd;stroke-linejoin:round;stroke-miterlimit:2;">
    <g transform="matrix(1,0,0,1,-4748.534444,-2606.182222)">
        <g transform="matrix(5.555556,0,0,5.555556,5844.801111,3000.004444)">
            <path d="M0,-0.001L-90.273,29.974L-179.551,-0.002L-90.274,-29.977L0,-0.001ZM15.867,-70.887L15.866,-70.888L0.157,-70.888L-90.291,-40.52L-181.745,-70.888L-197.328,-70.888L-197.328,-65.526L-106.069,-35.222L-197.328,-4.582L-197.328,4.578L-106.069,35.219L-197.328,65.522L-197.328,70.887L-181.751,70.887L-90.291,40.517L0.159,70.887L15.866,70.887L15.867,70.884L15.867,65.612L-74.495,35.272L15.867,5.267L15.867,-5.269L-74.495,-35.275L15.867,-65.615L15.867,-70.887Z" style="fill:rgb(237,230,220);fill-rule:nonzero;"/>
        </g>
    </g>
</svg>
