<svg width="680" height="299" viewBox="0 0 680 299" fill="none" xmlns="http://www.w3.org/2000/svg">
<g clip-path="url(#clip0_114_7149)">
<path d="M679.919 0H0V298.119H679.919V0Z" fill="#8FA79D"/>
<path d="M660.165 19.754V278.365H19.754V19.754H660.165ZM679.919 0H0V298.119H679.919V0Z" fill="#E3A97C"/>
<path d="M138.793 19.5216C204.545 19.5216 258.047 77.6382 258.047 149.051C258.047 220.465 204.545 278.581 138.793 278.581C73.04 278.581 19.5216 220.481 19.5216 149.068C19.5216 77.6548 73.0234 19.5216 138.793 19.5216ZM138.793 0C62.1338 0 0 66.732 0 149.068C0 231.404 62.1338 298.136 138.793 298.136C215.451 298.136 277.585 231.404 277.585 149.068C277.585 66.732 215.435 0 138.793 0Z" fill="#E3A97C"/>
<path d="M272.904 19.5216C338.657 19.5216 392.158 77.6382 392.158 149.051C392.158 220.465 338.657 278.581 272.904 278.581C207.151 278.581 153.65 220.481 153.65 149.051C153.65 77.6216 207.151 19.5216 272.904 19.5216ZM272.904 0C196.245 0 134.111 66.732 134.111 149.068C134.111 231.404 196.245 298.136 272.904 298.136C349.563 298.136 411.697 231.404 411.697 149.068C411.697 66.732 349.563 0 272.904 0Z" fill="#E3A97C"/>
<path d="M407.016 19.5216C472.769 19.5216 526.271 77.6382 526.271 149.051C526.271 220.465 472.769 278.581 407.016 278.581C341.264 278.581 287.762 220.481 287.762 149.051C287.762 77.6216 341.264 19.5216 407.016 19.5216ZM407.016 0C330.374 0 268.224 66.732 268.224 149.068C268.224 231.404 330.357 298.136 407.016 298.136C483.675 298.136 545.809 231.404 545.809 149.068C545.809 66.732 483.675 0 407.016 0Z" fill="#E3A97C"/>
<path d="M541.128 19.5216C606.897 19.5216 660.382 77.6382 660.382 149.051C660.382 220.465 606.88 278.581 541.128 278.581C475.375 278.581 421.873 220.481 421.873 149.051C421.873 77.6216 475.375 19.5216 541.128 19.5216ZM541.128 0C464.469 0 402.335 66.732 402.335 149.068C402.335 231.404 464.469 298.136 541.128 298.136C617.786 298.136 679.92 231.404 679.92 149.068C679.92 66.732 617.786 0 541.128 0Z" fill="#E3A97C"/>
</g>
<defs>
<clipPath id="clip0_114_7149">
<rect width="679.919" height="298.119" fill="white"/>
</clipPath>
</defs>
</svg>
