<svg width="1260" height="392" viewBox="0 0 1260 392" fill="none" xmlns="http://www.w3.org/2000/svg">
<g clip-path="url(#clip0_114_7185)">
<path d="M1259.64 0H-1V391.843H1259.64V0Z" fill="#A3CDD8"/>
<path d="M1239.98 19.6544V372.189H18.6544V19.6544H1239.98ZM1259.64 0H-1V391.843H1259.64V0Z" fill="#EDE6DC"/>
<path d="M629.319 20.1358C795.767 20.1358 951.989 40.1554 1069.2 76.4928C1176.14 109.643 1239.98 154.297 1239.98 195.913C1239.98 237.529 1176.14 282.183 1069.2 315.334C951.989 351.671 795.767 371.691 629.319 371.691C462.87 371.691 306.648 351.671 189.435 315.334C82.498 282.183 18.6544 237.546 18.6544 195.913C18.6544 154.28 82.498 109.643 189.435 76.4928C306.648 40.1554 462.87 20.1358 629.319 20.1358ZM629.319 0.481445C281.2 0.481445 -1 87.98 -1 195.913C-1 303.846 281.2 391.345 629.319 391.345C977.437 391.345 1259.64 303.846 1259.64 195.913C1259.64 87.98 977.437 0.481445 629.319 0.481445Z" fill="#EDE6DC"/>
</g>
<defs>
<clipPath id="clip0_114_7185">
<rect width="1260.64" height="391.843" fill="white" transform="translate(-1)"/>
</clipPath>
</defs>
</svg>
