<?xml version="1.0" encoding="UTF-8" standalone="no"?>
<!DOCTYPE svg PUBLIC "-//W3C//DTD SVG 1.1//EN" "http://www.w3.org/Graphics/SVG/1.1/DTD/svg11.dtd">
<svg width="100%" height="100%" preserveAspectRatio="xMidYMid slice" viewBox="0 0 3585 3688" version="1.1" xmlns="http://www.w3.org/2000/svg" xmlns:xlink="http://www.w3.org/1999/xlink" xml:space="preserve" xmlns:serif="http://www.serif.com/" style="fill-rule:evenodd;clip-rule:evenodd;stroke-linejoin:round;stroke-miterlimit:2;">
    <g transform="matrix(1,0,0,1,-7082.338889,-1.413889)">
        <g transform="matrix(5.555556,0,0,5.555556,0,6.966667)">
            <path d="M655.169,1068.23L1264.6,1068.23L1264.6,10.516L655.169,10.516L655.169,1068.23ZM1274.821,1078.746L644.947,1078.746L644.947,0L1274.821,0L1274.821,1078.746Z" style="fill:rgb(237,230,220);fill-rule:nonzero;"/>
        </g>
        <g transform="matrix(-5.555556,0,0,5.555556,17749.005556,-2309.705556)">
            <rect x="1279.932" y="421.259" width="634.957" height="653.229" style="fill:rgb(227,169,124);"/>
        </g>
        <g transform="matrix(5.555556,0,0,5.555556,8935.941111,1845.147222)">
            <path d="M0,0L150.363,314.695L300.725,0L150.363,-314.695L0,0ZM150.363,331.872C148.414,331.872 146.636,330.733 145.776,328.934L-10.281,2.32C-10.98,0.857 -10.98,-0.857 -10.281,-2.32L145.776,-328.934C146.636,-330.732 148.414,-331.872 150.363,-331.872C152.311,-331.872 154.09,-330.732 154.95,-328.934L311.007,-2.32C311.705,-0.857 311.705,0.857 311.007,2.32L154.95,328.934C154.09,330.733 152.311,331.872 150.363,331.872" style="fill:rgb(217,122,91);fill-rule:nonzero;"/>
        </g>
        <g transform="matrix(5.555556,0,0,5.555556,7142.370556,1845.147222)">
            <path d="M0,0L150.362,314.695L300.725,0L150.362,-314.696L0,0ZM150.362,331.872C148.414,331.872 146.635,330.733 145.776,328.934L-10.281,2.32C-10.98,0.857 -10.98,-0.857 -10.281,-2.32L145.776,-328.934C146.635,-330.732 148.414,-331.872 150.362,-331.872C152.311,-331.872 154.09,-330.732 154.949,-328.934L311.006,-2.32C311.705,-0.857 311.705,0.857 311.006,2.32L154.949,328.934C154.09,330.733 152.311,331.872 150.362,331.872" style="fill:rgb(217,122,91);fill-rule:nonzero;"/>
        </g>
        <g transform="matrix(5.555556,0,0,5.555556,8009.353889,1845.147222)">
            <path d="M0,0L150.362,314.695L300.725,0L150.362,-314.696L0,0ZM150.362,331.872C148.414,331.872 146.635,330.733 145.776,328.934L-10.281,2.32C-10.98,0.857 -10.98,-0.857 -10.281,-2.32L145.776,-328.934C146.635,-330.732 148.414,-331.872 150.362,-331.872C152.311,-331.872 154.09,-330.732 154.949,-328.934L311.006,-2.32C311.705,-0.857 311.705,0.857 311.006,2.32L154.949,328.934C154.09,330.733 152.311,331.872 150.362,331.872" style="fill:rgb(217,122,91);fill-rule:nonzero;"/>
        </g>
        <g transform="matrix(5.555556,0,0,5.555556,0,-2309.7)">
            <path d="M1285.043,1069.229L1909.779,1069.229L1909.779,426.516L1285.043,426.516L1285.043,1069.229ZM1920,1079.745L1274.821,1079.745L1274.821,416.001L1920,416.001L1920,1079.745Z" style="fill:rgb(217,122,91);fill-rule:nonzero;"/>
        </g>
    </g>
</svg>
