<?xml version="1.0" encoding="UTF-8" standalone="no"?>
<!DOCTYPE svg PUBLIC "-//W3C//DTD SVG 1.1//EN" "http://www.w3.org/Graphics/SVG/1.1/DTD/svg11.dtd">
<svg width="100%" height="100%" viewBox="0 0 3273 1353" version="1.1" xmlns="http://www.w3.org/2000/svg" xmlns:xlink="http://www.w3.org/1999/xlink" xml:space="preserve" xmlns:serif="http://www.serif.com/" style="fill-rule:evenodd;clip-rule:evenodd;stroke-linejoin:round;stroke-miterlimit:2;">
    <g transform="matrix(1,0,0,1,-3697.227778,-2323.709444)">
        <g transform="matrix(5.555556,0,0,5.555556,4411.702778,2618.06)">
            <path d="M0,-17.671L0,-9.817L6.872,-9.817L6.872,-6.872L0,-6.872L0,2.945L-3.436,2.945L-3.436,-20.616L9.326,-20.616L9.326,-17.671L-0.004,-17.671L0,-17.671Z" style="fill:rgb(217,212,205);fill-rule:nonzero;"/>
        </g>
        <g transform="matrix(5.555556,0,0,5.555556,4504.421111,2618.06)">
            <path d="M0,-17.671L0,-10.308L7.363,-10.308L7.363,-7.363L0,-7.363L0,0L9.326,0L9.326,2.945L-3.436,2.945L-3.436,-20.616L9.817,-20.616L9.817,-17.671L0,-17.671Z" style="fill:rgb(217,212,205);fill-rule:nonzero;"/>
        </g>
        <g transform="matrix(5.555556,0,0,5.555556,4598.045556,2507.673889)">
            <path d="M0,22.039C-1.353,21.273 -2.422,20.283 -3.208,19.066L-0.878,16.872C-0.203,17.841 0.615,18.619 1.572,19.202C2.53,19.788 3.527,20.08 4.561,20.08C5.73,20.08 6.676,19.765 7.398,19.134C8.12,18.504 8.479,17.706 8.479,16.736C8.479,15.926 8.264,15.232 7.837,14.657C7.41,14.082 6.875,13.607 6.233,13.236C5.59,12.865 4.709,12.418 3.579,11.904C2.251,11.297 1.181,10.738 0.367,10.232C-0.443,9.725 -1.137,9.039 -1.712,8.169C-2.286,7.303 -2.574,6.225 -2.574,4.94C-2.574,3.815 -2.274,2.79 -1.68,1.864C-1.085,0.942 -0.259,0.208 0.786,-0.331C1.832,-0.874 3.001,-1.141 4.282,-1.141C5.678,-1.141 6.967,-0.822 8.152,-0.179C9.333,0.463 10.331,1.269 11.141,2.235L9.046,4.398C8.416,3.675 7.689,3.085 6.867,2.622C6.045,2.159 5.207,1.928 4.349,1.928C3.268,1.928 2.39,2.215 1.716,2.79C1.042,3.364 0.702,4.09 0.702,4.968C0.702,5.667 0.906,6.273 1.309,6.792C1.716,7.311 2.215,7.75 2.813,8.109C3.412,8.468 4.238,8.887 5.295,9.358C6.668,9.988 7.785,10.571 8.639,11.098C9.493,11.628 10.223,12.346 10.818,13.26C11.416,14.174 11.712,15.303 11.712,16.656C11.712,17.873 11.42,18.978 10.834,19.968C10.247,20.958 9.397,21.744 8.284,22.318C7.171,22.893 5.858,23.18 4.345,23.18C2.833,23.18 1.337,22.797 -0.012,22.031L0,22.039Z" style="fill:rgb(217,212,205);fill-rule:nonzero;"/>
        </g>
        <g transform="matrix(5.555556,0,0,5.555556,4760.759444,2618.06)">
            <path d="M0,-17.671L-5.89,-17.671L-5.89,2.945L-9.326,2.945L-9.326,-17.671L-15.217,-17.671L-15.217,-20.616L0,-20.616L0,-17.671Z" style="fill:rgb(217,212,205);fill-rule:nonzero;"/>
        </g>
        <g transform="matrix(5.555556,0,0,5.555556,0,-862.05)">
            <rect x="860.864" y="605.804" width="3.436" height="23.561" style="fill:rgb(217,212,205);"/>
        </g>
        <g transform="matrix(5.555556,0,0,5.555556,4935.979444,2637.147778)">
            <path d="M0,-24.052L-10.115,0L-10.59,0L-20.705,-24.052L-17.185,-24.052L-10.35,-6.767L-3.519,-24.052L0,-24.052Z" style="fill:rgb(217,212,205);fill-rule:nonzero;"/>
        </g>
        <g transform="matrix(5.555556,0,0,5.555556,5005.015556,2547.157222)">
            <path d="M0,7.363L-3.783,-1.759L-7.566,7.363L0.004,7.363L0,7.363ZM1.157,10.799L-8.727,10.799L-10.768,15.708L-14.525,15.708L-4.055,-8.345L-3.579,-8.345L6.923,15.708L3.199,15.708L1.157,10.799Z" style="fill:rgb(217,212,205);fill-rule:nonzero;"/>
        </g>
        <g transform="matrix(5.555556,0,0,5.555556,5128.905556,2519.887222)">
            <path d="M0,17.671L0,20.616L-11.781,20.616L-11.781,-2.945L-8.836,-2.945L-8.836,17.671L0,17.671Z" style="fill:rgb(217,212,205);fill-rule:nonzero;"/>
        </g>
        <g transform="matrix(5.555556,0,0,5.555556,0,-409.372222)">
            <rect x="665.501" y="565.063" width="3.436" height="23.561" style="fill:rgb(217,212,205);"/>
        </g>
        <g transform="matrix(5.555556,0,0,5.555556,3858.120556,2862.158333)">
            <path d="M0,-24.063L0,0.24L-0.442,0.24L-16.198,-16.42L-16.198,-0.251L-19.144,-0.251L-19.144,-24.303L-18.758,-24.303L-2.945,-7.475L-2.945,-23.812L0.065,-23.812L0,-24.063Z" style="fill:rgb(217,212,205);fill-rule:nonzero;"/>
        </g>
        <g transform="matrix(5.555556,0,0,5.555556,3964.473889,2844.401111)">
            <path d="M0,-17.671L-5.399,-17.671L-5.399,2.945L-8.836,2.945L-8.836,-17.671L-15.217,-17.671L-15.217,-20.616L0,-20.616L0,-17.671Z" style="fill:rgb(217,212,205);fill-rule:nonzero;"/>
        </g>
        <g transform="matrix(5.555556,0,0,5.555556,4008.105556,2844.401111)">
            <path d="M0,-17.671L0,-10.799L7.363,-10.799L7.363,-7.854L-0.491,-7.854L-0.491,-0.491L9.326,-0.491L9.326,2.945L-3.436,2.945L-3.436,-20.616L9.326,-20.616L9.326,-17.671L0,-17.671Z" style="fill:rgb(217,212,205);fill-rule:nonzero;"/>
        </g>
        <g transform="matrix(5.555556,0,0,5.555556,4109.005,2798.038333)">
            <path d="M0,-0.981L3.089,-0.981C4.447,-0.981 5.548,-1.37 6.398,-2.151C7.247,-2.932 7.668,-3.934 7.668,-5.151C7.668,-6.369 7.243,-7.403 6.398,-8.172C5.548,-8.941 4.447,-9.326 3.089,-9.326L0,-9.326L0,-0.981ZM3.054,1.964L0,1.964L0,11.29L-3.436,11.29L-3.436,-12.271L3.432,-12.271C5.092,-12.271 6.548,-11.933 7.785,-11.261C9.028,-10.589 9.979,-9.691 10.641,-8.57C11.303,-7.449 11.636,-6.26 11.636,-5C11.636,-3.43 11.183,-2.031 10.282,-0.81C9.378,0.414 8.118,1.281 6.505,1.798L12.651,11.29L8.393,11.29L3.054,1.964Z" style="fill:rgb(217,212,205);fill-rule:nonzero;"/>
        </g>
        <g transform="matrix(5.555556,0,0,5.555556,4308.076667,2862.158333)">
            <path d="M0,-24.063L0,0.24L-0.442,0.24L-16.198,-16.42L-16.198,-0.251L-19.144,-0.251L-19.144,-24.303L-19.065,-24.303L-3.436,-7.475L-3.436,-23.812L-0.243,-23.812L0,-24.063Z" style="fill:rgb(217,212,205);fill-rule:nonzero;"/>
        </g>
        <g transform="matrix(5.555556,0,0,5.555556,4406.952778,2773.498889)">
            <path d="M0,7.363L-3.783,-1.759L-7.566,7.363L0.004,7.363L0,7.363ZM1.161,10.799L-8.723,10.799L-10.765,15.708L-14.521,15.708L-4.051,-8.345L-3.575,-8.345L6.927,15.708L3.203,15.708L1.161,10.799Z" style="fill:rgb(217,212,205);fill-rule:nonzero;"/>
        </g>
        <g transform="matrix(5.555556,0,0,5.555556,4487.333889,2735.523889)">
            <path d="M0,21.117C-1.836,20.004 -3.256,18.511 -4.258,16.64C-5.259,14.772 -5.762,12.741 -5.762,10.559C-5.762,8.376 -5.259,6.345 -4.258,4.477C-3.256,2.606 -1.836,1.113 0,-0C1.836,-1.113 3.946,-1.672 6.337,-1.672C8.432,-1.672 10.291,-1.253 11.911,-0.423L11.911,3.192C10.447,2.023 8.599,1.437 6.369,1.437C4.657,1.437 3.124,1.856 1.772,2.686C0.419,3.52 -0.626,4.633 -1.373,6.029C-2.115,7.426 -2.486,8.934 -2.486,10.559C-2.486,12.183 -2.115,13.691 -1.373,15.088C-0.63,16.484 0.419,17.598 1.772,18.432C3.124,19.265 4.653,19.68 6.369,19.68C8.599,19.68 10.447,19.094 11.911,17.925L11.911,21.54C10.291,22.374 8.432,22.789 6.337,22.789C3.95,22.789 1.836,22.23 0,21.117" style="fill:rgb(217,212,205);fill-rule:nonzero;"/>
        </g>
        <g transform="matrix(5.555556,0,0,5.555556,0,-409.372222)">
            <rect x="824.54" y="565.063" width="3.436" height="23.561" style="fill:rgb(217,212,205);"/>
        </g>
        <g transform="matrix(5.555556,0,0,5.555556,4724.096111,2750.799444)">
            <path d="M0,15.646C1.361,14.812 2.422,13.703 3.176,12.318C3.93,10.933 4.31,9.429 4.31,7.809C4.31,6.189 3.93,4.685 3.176,3.3C2.422,1.915 1.365,0.81 0,-0.012C-1.365,-0.834 -2.901,-1.245 -4.613,-1.245C-6.325,-1.245 -7.889,-0.834 -9.242,-0.012C-10.594,0.81 -11.64,1.915 -12.386,3.3C-13.128,4.685 -13.499,6.189 -13.499,7.809C-13.499,9.429 -13.128,10.933 -12.386,12.318C-11.644,13.703 -10.594,14.812 -9.242,15.646C-7.889,16.48 -6.349,16.895 -4.613,16.895C-2.877,16.895 -1.365,16.48 0,15.646M-10.965,18.399C-12.813,17.286 -14.242,15.794 -15.255,13.922C-16.269,12.055 -16.775,10.016 -16.775,7.805C-16.775,5.594 -16.269,3.591 -15.255,1.724C-14.242,-0.148 -12.813,-1.64 -10.965,-2.753C-9.118,-3.867 -6.999,-4.425 -4.613,-4.425C-2.227,-4.425 -0.144,-3.867 1.704,-2.753C3.551,-1.64 4.98,-0.148 5.993,1.724C7.007,3.595 7.514,5.622 7.514,7.805C7.514,9.988 7.007,12.051 5.993,13.922C4.98,15.794 3.547,17.286 1.704,18.399C-0.144,19.513 -2.251,20.071 -4.613,20.071C-6.975,20.071 -9.118,19.513 -10.965,18.399" style="fill:rgb(217,212,205);fill-rule:nonzero;"/>
        </g>
        <g transform="matrix(5.555556,0,0,5.555556,4905.291111,2862.158333)">
            <path d="M0,-24.063L0,0.24L-0.442,0.24L-16.198,-16.42L-16.198,-0.251L-19.144,-0.251L-19.144,-24.303L-18.912,-24.303L-2.945,-7.475L-2.945,-23.812L-0.09,-23.812L0,-24.063Z" style="fill:rgb(217,212,205);fill-rule:nonzero;"/>
        </g>
        <g transform="matrix(5.555556,0,0,5.555556,5005.015556,2773.498889)">
            <path d="M0,7.363L-3.783,-1.759L-7.566,7.363L0.004,7.363L0,7.363ZM1.161,10.799L-8.722,10.799L-10.765,15.708L-14.521,15.708L-4.051,-8.345L-3.575,-8.345L6.927,15.708L3.203,15.708L1.161,10.799Z" style="fill:rgb(217,212,205);fill-rule:nonzero;"/>
        </g>
        <g transform="matrix(5.555556,0,0,5.555556,5128.905556,2748.957778)">
            <path d="M0,16.689L0,20.125L-11.781,20.125L-11.781,-3.436L-8.836,-3.436L-8.836,16.689L0,16.689Z" style="fill:rgb(217,212,205);fill-rule:nonzero;"/>
        </g>
        <g transform="matrix(5.555556,0,0,5.555556,4302.622222,2976.312778)">
            <path d="M0,15.342C1.337,14.56 2.357,13.514 3.065,12.2C3.773,10.885 4.126,9.436 4.126,7.853C4.126,6.27 3.773,4.802 3.065,3.507C2.357,2.216 1.333,1.194 0,0.448C-1.337,-0.299 -2.909,-0.674 -4.719,-0.674L-7.854,-0.674L-7.854,16.507L-4.719,16.507C-2.909,16.507 -1.333,16.116 0,15.338L0,15.342ZM1.963,-2.563C3.79,-1.53 5.19,-0.122 6.166,1.662C7.142,3.447 7.631,5.427 7.631,7.605C7.631,9.784 7.142,11.803 6.166,13.596C5.19,15.393 3.79,16.816 1.963,17.87C0.137,18.923 -2.003,19.452 -4.46,19.452L-10.799,19.452L-10.799,-4.11L-4.46,-4.11C-2.003,-4.11 0.137,-3.593 1.963,-2.559L1.963,-2.563Z" style="fill:rgb(217,212,205);fill-rule:nonzero;"/>
        </g>
        <g transform="matrix(5.555556,0,0,5.555556,4392.613889,3068.015556)">
            <path d="M0,-17.671L0,-10.308L7.363,-10.308L7.363,-7.363L0,-7.363L0,0L9.817,0L9.817,2.945L-2.945,2.945L-2.945,-20.616L9.817,-20.616L9.817,-17.671L0,-17.671Z" style="fill:rgb(217,212,205);fill-rule:nonzero;"/>
        </g>
        <g transform="matrix(5.555556,0,0,5.555556,4571.871111,2960.778333)">
            <path d="M0,21.117C-1.836,20.004 -3.256,18.511 -4.258,16.64C-5.259,14.772 -5.762,12.741 -5.762,10.559C-5.762,8.376 -5.259,6.345 -4.258,4.477C-3.256,2.606 -1.836,1.113 0,-0C1.836,-1.113 3.946,-1.672 6.337,-1.672C8.432,-1.672 10.291,-1.253 11.911,-0.423L11.911,3.192C10.447,2.023 8.599,1.437 6.369,1.437C4.657,1.437 3.124,1.856 1.772,2.686C0.419,3.52 -0.627,4.633 -1.373,6.03C-2.115,7.426 -2.486,8.935 -2.486,10.559C-2.486,12.183 -2.115,13.691 -1.373,15.088C-0.63,16.484 0.419,17.598 1.772,18.432C3.124,19.265 4.653,19.68 6.369,19.68C8.599,19.68 10.447,19.094 11.911,17.925L11.911,21.54C10.291,22.374 8.432,22.789 6.337,22.789C3.95,22.789 1.836,22.23 0,21.117" style="fill:rgb(217,212,205);fill-rule:nonzero;"/>
        </g>
        <g transform="matrix(5.555556,0,0,5.555556,0,37.861111)">
            <rect x="840.247" y="524.812" width="3.436" height="23.561" style="fill:rgb(217,212,205);"/>
        </g>
        <g transform="matrix(5.555556,0,0,5.555556,4828.935,3084.129444)">
            <path d="M0,-23.472L0,0.536L-0.442,0.536L-16.198,-16.124L-16.198,0.045L-19.144,0.045L-19.144,-24.008L-18.797,-24.008L-2.945,-6.884L-2.945,-23.517L0.025,-23.517L0,-23.472Z" style="fill:rgb(217,212,205);fill-rule:nonzero;"/>
        </g>
        <g transform="matrix(5.555556,0,0,5.555556,4883.475,3068.015556)">
            <path d="M0,-17.671L0,-10.308L7.363,-10.308L7.363,-7.363L0,-7.363L0,0L9.817,0L9.817,2.945L-2.945,2.945L-2.945,-20.616L9.817,-20.616L9.817,-17.671L0,-17.671Z" style="fill:rgb(217,212,205);fill-rule:nonzero;"/>
        </g>
        <g transform="matrix(5.555556,0,0,5.555556,5374.805,2846.161667)">
            <path d="M0,-62.181L11.106,-62.181L11.106,-10.214L41.133,-10.214L41.133,0L0,0L0,-62.181Z" style="fill:rgb(217,212,205);fill-rule:nonzero;"/>
        </g>
        <g transform="matrix(5.555556,0,0,5.555556,5673.873333,2673.935)">
            <path d="M0,-0.087C0,3.29 0.457,6.352 1.376,9.11C2.295,11.862 3.611,14.19 5.33,16.082C7.049,17.98 9.164,19.443 11.682,20.482C14.201,21.521 17.056,22.038 20.254,22.038C23.452,22.038 26.307,21.521 28.825,20.482C31.343,19.449 33.475,17.98 35.221,16.082C36.967,14.19 38.299,11.862 39.219,9.11C40.138,6.358 40.595,3.29 40.595,-0.087C40.595,-3.464 40.138,-6.51 39.219,-9.235C38.299,-11.96 36.967,-14.266 35.221,-16.164C33.475,-18.056 31.343,-19.525 28.825,-20.564C26.307,-21.597 23.452,-22.119 20.254,-22.119C17.056,-22.119 14.195,-21.603 11.682,-20.564C9.164,-19.525 7.049,-18.062 5.33,-16.164C3.611,-14.266 2.295,-11.96 1.376,-9.235C0.457,-6.51 0,-3.459 0,-0.087M-11.106,-0.087C-11.106,-4.944 -10.382,-9.355 -8.93,-13.325C-7.478,-17.29 -5.39,-20.683 -2.665,-23.495C0.06,-26.307 3.345,-28.483 7.195,-30.027C11.046,-31.566 15.397,-32.339 20.254,-32.339C25.111,-32.339 29.478,-31.566 33.356,-30.027C37.234,-28.488 40.535,-26.312 43.26,-23.495C45.984,-20.683 48.073,-17.29 49.525,-13.325C50.977,-9.355 51.701,-4.944 51.701,-0.087C51.701,4.77 50.977,9.181 49.525,13.151C48.073,17.121 45.984,20.526 43.26,23.365C40.535,26.209 37.234,28.401 33.356,29.94C29.478,31.479 25.105,32.252 20.254,32.252C15.402,32.252 11.046,31.479 7.195,29.94C3.345,28.401 0.06,26.209 -2.665,23.365C-5.39,20.52 -7.478,17.116 -8.93,13.151C-10.382,9.186 -11.106,4.77 -11.106,-0.087" style="fill:rgb(217,212,205);fill-rule:nonzero;"/>
        </g>
        <g transform="matrix(5.555556,0,0,5.555556,6241.947222,2600.814444)">
            <path d="M0,26.133C0,28.798 -0.446,31.3 -1.332,33.638C-2.219,35.977 -3.568,37.989 -5.373,39.681C-7.179,41.367 -9.458,42.699 -12.215,43.678C-14.967,44.657 -18.241,45.147 -22.032,45.147C-24.817,45.147 -27.395,44.897 -29.761,44.391C-32.132,43.89 -34.307,43.205 -36.292,42.346C-38.278,41.487 -40.067,40.513 -41.666,39.414C-43.265,38.321 -44.657,37.206 -45.843,36.08L-38.827,28.439C-36.401,30.511 -33.85,32.11 -31.186,33.236C-28.521,34.362 -25.502,34.922 -22.125,34.922C-19.993,34.922 -18.214,34.688 -16.795,34.21C-15.375,33.736 -14.233,33.127 -13.374,32.388C-12.515,31.648 -11.922,30.789 -11.595,29.81C-11.269,28.831 -11.106,27.868 -11.106,26.922C-11.106,25.089 -11.595,23.577 -12.574,22.391C-13.553,21.206 -14.853,20.216 -16.485,19.416C-18.116,18.617 -19.965,17.937 -22.038,17.371C-24.11,16.811 -26.231,16.229 -28.39,15.636C-30.555,15.043 -32.67,14.347 -34.742,13.548C-36.815,12.748 -38.669,11.726 -40.295,10.48C-41.927,9.235 -43.227,7.679 -44.206,5.814C-45.185,3.948 -45.674,1.626 -45.674,-1.158C-45.674,-3.764 -45.201,-6.162 -44.255,-8.354C-43.308,-10.546 -41.932,-12.427 -40.121,-13.994C-38.316,-15.56 -36.064,-16.795 -33.372,-17.681C-30.68,-18.568 -27.585,-19.014 -24.088,-19.014C-19.291,-19.014 -14.951,-18.231 -11.073,-16.659C-7.195,-15.087 -3.834,-13.091 -0.99,-10.66L-7.473,-2.578C-10.317,-4.83 -13.085,-6.429 -15.778,-7.375C-18.475,-8.321 -21.211,-8.794 -23.996,-8.794C-27.727,-8.794 -30.424,-8.142 -32.078,-6.842C-33.736,-5.537 -34.563,-3.938 -34.563,-2.045C-34.563,-0.506 -34.073,0.767 -33.095,1.773C-32.116,2.779 -30.816,3.622 -29.184,4.307C-27.558,4.987 -25.703,5.58 -23.631,6.086C-21.559,6.592 -19.443,7.152 -17.279,7.772C-15.12,8.392 -12.998,9.137 -10.926,9.991C-8.854,10.85 -7.005,11.976 -5.373,13.368C-3.747,14.761 -2.442,16.49 -1.463,18.568C-0.484,20.64 0.005,23.158 0.005,26.117L0,26.133Z" style="fill:rgb(217,212,205);fill-rule:nonzero;"/>
        </g>
        <g transform="matrix(5.555556,0,0,5.555556,5373.324444,3122.023889)">
            <path d="M0,0.011C0,-4.846 0.723,-9.257 2.176,-13.227C3.628,-17.192 5.716,-20.585 8.441,-23.397C11.166,-26.209 14.451,-28.385 18.301,-29.929C22.152,-31.468 26.503,-32.241 31.36,-32.241C36.923,-32.241 41.797,-31.251 45.974,-29.266C50.15,-27.28 53.658,-24.512 56.503,-20.961L47.442,-14.744C45.544,-17.056 43.281,-18.845 40.644,-20.118C38.006,-21.39 34.911,-22.027 31.36,-22.027C28.162,-22.027 25.301,-21.51 22.788,-20.471C20.27,-19.432 18.154,-17.969 16.436,-16.071C14.717,-14.173 13.401,-11.867 12.482,-9.142C11.563,-6.418 11.106,-3.366 11.106,0.006C11.106,3.378 11.563,6.434 12.482,9.154C13.401,11.878 14.717,14.19 16.436,16.082C18.154,17.981 20.27,19.444 22.788,20.482C25.306,21.521 28.162,22.038 31.36,22.038C34.911,22.038 38.006,21.401 40.644,20.129C43.276,18.856 45.544,17.061 47.442,14.755L56.503,20.972C53.658,24.523 50.15,27.297 45.974,29.277C41.797,31.262 36.923,32.252 31.36,32.252C26.503,32.252 22.152,31.479 18.301,29.94C14.451,28.401 11.166,26.226 8.441,23.408C5.716,20.597 3.628,17.203 2.176,13.238C0.723,9.273 0,4.857 0,-0L0,0.011Z" style="fill:rgb(217,212,205);fill-rule:nonzero;"/>
        </g>
        <g transform="matrix(5.555556,0,0,5.555556,5893.507222,3097.398889)">
            <path d="M0,8.887L-7.108,-13.678L-14.217,8.887L0,8.887ZM-12.879,-26.65L-1.24,-26.65L20.08,35.537L8.441,35.537L3.29,19.101L-17.409,19.101L-22.56,35.537L-34.199,35.537L-12.879,-26.65Z" style="fill:rgb(217,212,205);fill-rule:nonzero;"/>
        </g>
        <g transform="matrix(5.555556,0,0,5.555556,6200.492222,3006.178333)">
            <path d="M0,41.737C2.665,41.737 4.797,40.938 6.396,39.339C7.995,37.74 8.794,35.608 8.794,32.943C8.794,30.278 7.995,28.042 6.396,26.411C4.797,24.785 2.665,23.969 0,23.969L-19.808,23.969L-19.808,41.737L0,41.737ZM-2.485,13.755C-0.413,13.755 1.245,13.135 2.491,11.889C3.736,10.644 4.356,8.991 4.356,6.913C4.356,4.835 3.736,3.095 2.491,1.849C1.245,0.604 -0.413,-0.016 -2.485,-0.016L-19.808,-0.016L-19.808,13.755L-2.485,13.755ZM-30.914,-10.23L-1.066,-10.23C1.479,-10.23 3.774,-9.833 5.819,-9.028C7.864,-8.228 9.594,-7.086 11.019,-5.607C12.438,-4.128 13.537,-2.393 14.304,-0.408C15.071,1.578 15.457,3.78 15.457,6.211C15.457,9.23 14.88,11.704 13.722,13.63C12.569,15.555 11.041,17.023 9.148,18.03C10.627,18.503 12.02,19.183 13.325,20.075C14.625,20.961 15.767,22.06 16.746,23.36C17.725,24.665 18.492,26.171 19.057,27.89C19.618,29.609 19.9,31.561 19.9,33.753C19.9,36.418 19.471,38.86 18.611,41.084C17.752,43.303 16.523,45.229 14.924,46.86C13.325,48.492 11.383,49.748 9.105,50.635C6.826,51.521 4.264,51.967 1.42,51.967L-30.919,51.967L-30.919,-10.219L-30.914,-10.23Z" style="fill:rgb(217,212,205);fill-rule:nonzero;"/>
        </g>
        <g transform="matrix(5.555556,0,0,5.555556,6401.362222,3122.568333)">
            <path d="M0,-0.087C0,3.29 0.457,6.352 1.376,9.11C2.295,11.862 3.611,14.19 5.33,16.082C7.049,17.98 9.164,19.443 11.682,20.482C14.201,21.521 17.056,22.038 20.254,22.038C23.452,22.038 26.307,21.521 28.825,20.482C31.343,19.449 33.475,17.98 35.221,16.082C36.967,14.19 38.299,11.862 39.219,9.11C40.138,6.358 40.595,3.29 40.595,-0.087C40.595,-3.464 40.132,-6.51 39.219,-9.235C38.299,-11.96 36.967,-14.266 35.221,-16.164C33.475,-18.056 31.343,-19.525 28.825,-20.564C26.307,-21.597 23.452,-22.119 20.254,-22.119C17.056,-22.119 14.195,-21.603 11.682,-20.564C9.164,-19.525 7.049,-18.062 5.33,-16.164C3.611,-14.266 2.295,-11.96 1.376,-9.235C0.457,-6.51 0,-3.459 0,-0.087M-11.106,-0.087C-11.106,-4.944 -10.383,-9.355 -8.93,-13.325C-7.478,-17.29 -5.39,-20.683 -2.665,-23.495C0.06,-26.307 3.345,-28.483 7.195,-30.027C11.046,-31.566 15.397,-32.339 20.254,-32.339C25.111,-32.339 29.478,-31.566 33.356,-30.027C37.233,-28.488 40.535,-26.312 43.259,-23.495C45.984,-20.683 48.073,-17.29 49.525,-13.325C50.977,-9.355 51.7,-4.944 51.7,-0.087C51.7,4.77 50.972,9.181 49.525,13.151C48.073,17.121 45.984,20.526 43.259,23.365C40.535,26.209 37.233,28.401 33.356,29.94C29.478,31.479 25.11,32.252 20.254,32.252C15.397,32.252 11.046,31.479 7.195,29.94C3.345,28.401 0.06,26.209 -2.665,23.365C-5.39,20.52 -7.478,17.116 -8.93,13.151C-10.383,9.186 -11.106,4.77 -11.106,-0.087" style="fill:rgb(217,212,205);fill-rule:nonzero;"/>
        </g>
        <g transform="matrix(5.555556,0,0,5.555556,6969.405556,3049.448333)">
            <path d="M0,26.133C0,28.798 -0.446,31.3 -1.332,33.638C-2.219,35.977 -3.568,37.989 -5.373,39.681C-7.179,41.367 -9.458,42.699 -12.215,43.678C-14.967,44.657 -18.241,45.147 -22.032,45.147C-24.817,45.147 -27.395,44.897 -29.761,44.391C-32.132,43.89 -34.307,43.205 -36.292,42.346C-38.278,41.486 -40.067,40.513 -41.666,39.414C-43.265,38.321 -44.657,37.206 -45.843,36.08L-38.827,28.439C-36.401,30.511 -33.851,32.11 -31.186,33.236C-28.521,34.362 -25.502,34.922 -22.125,34.922C-19.993,34.922 -18.214,34.688 -16.795,34.209C-15.375,33.736 -14.233,33.127 -13.374,32.388C-12.514,31.648 -11.922,30.789 -11.595,29.81C-11.269,28.831 -11.106,27.868 -11.106,26.922C-11.106,25.089 -11.595,23.577 -12.569,22.391C-13.548,21.206 -14.848,20.216 -16.479,19.416C-18.111,18.617 -19.96,17.937 -22.032,17.371C-24.104,16.811 -26.22,16.229 -28.385,15.636C-30.549,15.043 -32.665,14.347 -34.737,13.548C-36.809,12.748 -38.658,11.726 -40.29,10.48C-41.922,9.235 -43.221,7.679 -44.2,5.814C-45.179,3.948 -45.663,1.626 -45.663,-1.158C-45.663,-3.764 -45.19,-6.162 -44.244,-8.354C-43.297,-10.546 -41.921,-12.428 -40.11,-13.994C-38.305,-15.56 -36.053,-16.795 -33.361,-17.681C-30.669,-18.568 -27.574,-19.014 -24.077,-19.014C-19.28,-19.014 -14.94,-18.231 -11.062,-16.659C-7.184,-15.087 -3.823,-13.091 -0.979,-10.66L-7.462,-2.578C-10.306,-4.83 -13.074,-6.429 -15.767,-7.375C-18.464,-8.321 -21.2,-8.794 -23.984,-8.794C-27.715,-8.794 -30.413,-8.142 -32.066,-6.842C-33.725,-5.537 -34.552,-3.938 -34.552,-2.045C-34.552,-0.506 -34.062,0.767 -33.089,1.773C-32.11,2.779 -30.81,3.622 -29.178,4.307C-27.552,4.987 -25.698,5.58 -23.626,6.086C-21.553,6.592 -19.438,7.152 -17.273,7.772C-15.114,8.392 -12.993,9.137 -10.921,9.991C-8.849,10.85 -6.999,11.976 -5.368,13.368C-3.742,14.761 -2.436,16.49 -1.457,18.568C-0.478,20.64 0.006,23.158 0.006,26.117L0,26.133Z" style="fill:rgb(217,212,205);fill-rule:nonzero;"/>
        </g>
        <g transform="matrix(5.555556,0,0,5.555556,6375.891111,2567.937222)">
            <path d="M0,-21.912C0.832,-22.782 1.664,-23.652 2.496,-24.517C3.959,-26.04 5.618,-26.399 7.647,-25.67C11.193,-24.398 14.755,-23.168 18.366,-22.102C19.715,-21.705 21.216,-21.825 23.082,-21.673C21.216,-19.677 19.65,-17.757 17.828,-16.12C16.169,-14.63 14.037,-14.494 11.96,-15.211C9.779,-15.962 7.625,-16.816 5.498,-17.719C1.615,-19.378 -1.327,-17.621 -1.632,-13.395C-2.899,3.965 10.083,18.938 27.509,19.879C40.627,20.586 52.456,16.746 63.171,9.143C70.404,4.014 78.154,-0.179 86.905,-2.213C93.48,-3.741 100.056,-3.611 106.707,-2.371C107.034,-1.087 106.811,-0.483 105.364,-0.233C97.375,1.164 90.859,5.069 85.589,11.259C82.717,14.631 79.519,17.736 76.349,20.836C75.663,21.505 74.45,21.973 73.477,21.973C48.965,22.033 24.458,22.011 -0.054,22.049C-1.316,22.049 -2.056,21.641 -2.714,20.619C-10.693,8.148 -11.672,-4.856 -5.482,-18.274C-4.074,-21.325 -4.367,-23.723 -6.516,-26.105C-7.859,-27.595 -9.181,-29.113 -10.475,-30.652C-12.438,-32.985 -12.797,-35.558 -11.389,-38.288C-10.475,-40.056 -9.453,-41.769 -8.229,-43.961C-7.027,-38.435 -3.187,-35.144 -0.044,-31.43C1.882,-29.156 2.339,-27.046 0.805,-24.495C0.375,-23.777 0.071,-22.983 -0.288,-22.222C-0.19,-22.124 -0.098,-22.026 0,-21.923L0,-21.912Z" style="fill:rgb(217,212,205);fill-rule:nonzero;"/>
        </g>
        <g transform="matrix(5.555556,0,0,5.555556,6474.180556,2667.044444)">
            <path d="M0,19.808C2.703,20.308 5.531,21.037 8.408,21.325C20.645,22.555 32.061,19.395 43.134,14.587C53.751,9.98 62.529,3.03 69.621,-6.097C73.977,-11.704 81.738,-15.886 88.662,-16.555C87.987,-2.023 77.714,17.964 57.275,27.259C37.266,36.363 14.326,32.453 0,19.797L0,19.808Z" style="fill:rgb(217,212,205);fill-rule:nonzero;"/>
        </g>
        <g transform="matrix(5.555556,0,0,5.555556,6373.564444,2779.627778)">
            <path d="M0,-14.429L59.554,-14.429C56.699,-8.055 42.699,-0.897 31.887,-0.484C19.199,0 8.713,-4.699 0,-14.429" style="fill:rgb(217,212,205);fill-rule:nonzero;"/>
        </g>
        <g transform="matrix(5.555556,0,0,5.555556,5251.596667,2461.111111)">
            <path d="M0,163.415C-0.654,163.415 -1.185,162.679 -1.185,161.771L-1.185,1.638C-1.185,0.73 -0.654,-0.006 0,-0.006C0.654,-0.006 1.185,0.73 1.185,1.638L1.185,161.776C1.185,162.684 0.654,163.421 0,163.421L0,163.415Z" style="fill:rgb(217,212,205);fill-rule:nonzero;"/>
        </g>
        <g transform="matrix(5.555556,0,0,5.555556,5019.988333,3085.716111)">
            <path d="M0,-23.832L3.414,-23.832L9.261,-13.655L15.108,-23.832L18.522,-23.832L10.746,-10.368L10.746,0L7.775,0L7.775,-10.368L0,-23.832Z" style="fill:rgb(217,212,205);fill-rule:nonzero;"/>
        </g>
        <g transform="matrix(5.555556,0,0,5.555556,4242.365,3283.433889)">
            <path d="M0,-17.434L0,-10.475L7.534,-10.475L7.534,-7.398L0,-7.398L0,0L9.764,0L9.764,3.108L-3.212,3.108L-3.212,-20.542L9.764,-20.542L9.764,-17.434L0,-17.434Z" style="fill:rgb(217,212,205);fill-rule:nonzero;"/>
        </g>
        <g transform="matrix(5.555556,0,0,5.555556,4519.678889,3283.255556)">
            <path d="M0,-17.37L-5.846,-17.37L-5.846,3.14L-9.054,3.14L-9.054,-17.37L-15.036,-17.37L-15.036,-20.51L0,-20.51L0,-17.37Z" style="fill:rgb(217,212,205);fill-rule:nonzero;"/>
        </g>
        <g transform="matrix(5.555556,0,0,5.555556,0,467.927778)">
            <rect x="819.257" y="486.061" width="3.212" height="23.651" style="fill:rgb(217,212,205);"/>
        </g>
        <g transform="matrix(5.555556,0,0,5.555556,4703.081111,3301.745)">
            <path d="M0,-24.026L-10.104,0L-10.578,0L-20.682,-24.026L-17.166,-24.026L-10.339,-6.76L-3.516,-24.026L0,-24.026Z" style="fill:rgb(217,212,205);fill-rule:nonzero;"/>
        </g>
        <g transform="matrix(5.555556,0,0,5.555556,4134.458333,3237.099444)">
            <path d="M0,-0.754L3.077,-0.754C4.429,-0.754 5.527,-1.141 6.373,-1.919C7.219,-2.697 7.638,-3.695 7.638,-4.908C7.638,-6.121 7.215,-7.151 6.373,-7.917C5.527,-8.683 4.429,-9.066 3.077,-9.066L0,-9.066L0,-0.754ZM2.981,2.358L0.004,2.358L0.004,11.448L-3.208,11.448L-3.208,-12.202L3.212,-12.202C4.764,-12.202 6.125,-11.863 7.282,-11.189C8.444,-10.514 9.333,-9.613 9.952,-8.487C10.57,-7.362 10.882,-6.169 10.882,-4.904C10.882,-3.328 10.459,-1.923 9.617,-0.698C8.771,0.531 7.594,1.401 6.085,1.92L11.831,11.448L8.184,11.448L2.981,2.358Z" style="fill:rgb(217,212,205);fill-rule:nonzero;"/>
        </g>
        <g transform="matrix(5.555556,0,0,5.555556,4400.821667,3211.514444)">
            <path d="M0,7.702L-3.783,-1.42L-7.566,7.702L0.004,7.702L0,7.702ZM1.289,10.81L-8.851,10.81L-10.945,15.846L-14.493,15.846L-4.05,-8.144L-3.575,-8.144L6.899,15.846L3.384,15.846L1.289,10.81Z" style="fill:rgb(217,212,205);fill-rule:nonzero;"/>
        </g>
        <g transform="matrix(5.555556,0,0,5.555556,4015.922778,3176.346667)">
            <path d="M0,21.117C-1.836,20.004 -3.256,18.511 -4.258,16.64C-5.259,14.772 -5.762,12.741 -5.762,10.559C-5.762,8.376 -5.259,6.345 -4.258,4.477C-3.256,2.606 -1.836,1.113 0,-0C1.836,-1.113 3.946,-1.672 6.337,-1.672C8.432,-1.672 10.291,-1.253 11.911,-0.423L11.911,3.192C10.447,2.023 8.599,1.437 6.369,1.437C4.657,1.437 3.124,1.856 1.772,2.686C0.419,3.52 -0.627,4.633 -1.373,6.03C-2.115,7.426 -2.486,8.935 -2.486,10.559C-2.486,12.183 -2.115,13.691 -1.373,15.088C-0.63,16.484 0.419,17.598 1.772,18.432C3.124,19.265 4.653,19.681 6.369,19.681C8.599,19.681 10.447,19.094 11.911,17.925L11.911,21.54C10.291,22.374 8.432,22.789 6.337,22.789C3.95,22.789 1.836,22.23 0,21.117Z" style="fill:rgb(217,212,205);fill-rule:nonzero;"/>
        </g>
        <g transform="matrix(5.555556,0,0,5.555556,0,470.016667)">
            <rect x="851.651" y="485.873" width="3.212" height="23.651" style="fill:rgb(217,212,205);"/>
        </g>
        <g transform="matrix(5.555556,0,0,5.555556,4963.131667,3211.514444)">
            <path d="M0,7.702L-3.783,-1.42L-7.566,7.702L0.004,7.702L0,7.702ZM1.289,10.81L-8.851,10.81L-10.945,15.846L-14.493,15.846L-4.05,-8.144L-3.575,-8.144L6.899,15.846L3.384,15.846L1.289,10.81Z" style="fill:rgb(217,212,205);fill-rule:nonzero;"/>
        </g>
        <g transform="matrix(5.555556,0,0,5.555556,4840.422778,3191.248333)">
            <path d="M0,14.999C1.297,14.209 2.286,13.151 2.973,11.823C3.659,10.494 4.002,9.029 4.002,7.429C4.002,5.829 3.659,4.345 2.973,3.036C2.286,1.731 1.293,0.698 0,-0.057C-1.297,-0.811 -2.821,-1.19 -4.577,-1.19L-7.618,-1.19L-7.618,16.176L-4.577,16.176C-2.821,16.176 -1.293,15.781 0,14.995L0,14.999ZM1.692,-2.774C3.484,-1.736 4.856,-0.324 5.814,1.468C6.772,3.259 7.25,5.247 7.25,7.433C7.25,9.62 6.772,11.647 5.814,13.447C4.856,15.25 3.484,16.679 1.692,17.736C-0.1,18.794 -2.199,19.325 -4.609,19.325L-10.826,19.325L-10.826,-4.326L-4.609,-4.326C-2.199,-4.326 -0.1,-3.807 1.692,-2.77L1.692,-2.774Z" style="fill:rgb(217,212,205);fill-rule:nonzero;"/>
        </g>
        <g transform="matrix(5.555556,0,0,5.555556,5082.606111,3193.343333)">
            <path d="M0,14.999C1.297,14.209 2.286,13.151 2.973,11.823C3.659,10.494 4.002,9.029 4.002,7.429C4.002,5.829 3.659,4.345 2.973,3.036C2.286,1.731 1.293,0.698 0,-0.057C-1.297,-0.811 -2.821,-1.19 -4.577,-1.19L-7.618,-1.19L-7.618,16.176L-4.577,16.176C-2.821,16.176 -1.293,15.781 0,14.995L0,14.999ZM1.692,-2.774C3.484,-1.737 4.856,-0.324 5.814,1.468C6.772,3.259 7.25,5.247 7.25,7.433C7.25,9.62 6.772,11.647 5.814,13.447C4.856,15.25 3.484,16.679 1.692,17.736C-0.1,18.794 -2.199,19.325 -4.609,19.325L-10.826,19.325L-10.826,-4.326L-4.609,-4.326C-2.199,-4.326 -0.1,-3.807 1.692,-2.77L1.692,-2.774Z" style="fill:rgb(217,212,205);fill-rule:nonzero;"/>
        </g>
        <g transform="matrix(5.555556,0,0,5.555556,5392.646111,3651.035)">
            <path d="M0,-22.612L2.02,-25.953L8.586,-25.953L8.586,3.341L5.09,3.341L5.09,-22.612L0,-22.612Z" style="fill:rgb(217,212,205);fill-rule:nonzero;"/>
        </g>
        <g transform="matrix(5.555556,0,0,5.555556,5572.658333,3608.516667)">
            <path d="M0,-8.548L-0.078,-8.548L-8.314,3.535L0,3.535L0,-8.548ZM6.838,3.535L6.838,6.721L3.497,6.721L3.497,10.995L0,10.995L0,6.721L-14.453,6.721L3.497,-19.543L3.497,3.535L6.838,3.535Z" style="fill:rgb(217,212,205);fill-rule:nonzero;"/>
        </g>
        <g transform="matrix(5.555556,0,0,5.555556,5673.025,3535.773889)">
            <path d="M0,-0.039C0,-2.176 -1.399,-3.963 -3.847,-3.963C-6.178,-3.963 -7.576,-2.059 -7.576,-0.039C-7.576,2.02 -6.255,3.924 -3.847,3.924C-1.36,3.924 0,2.098 0,-0.039M2.176,5.4L-0.117,5.4L-0.117,3.73L-0.194,3.73C-1.088,4.934 -2.487,5.789 -4.196,5.789C-7.809,5.789 -9.869,3.031 -9.869,-0.117C-9.869,-3.108 -7.693,-5.828 -4.274,-5.828C-2.525,-5.828 -1.127,-4.973 -0.156,-3.691L-0.117,-3.691L-0.117,-5.478L2.176,-5.478L2.176,5.4Z" style="fill:rgb(217,212,205);fill-rule:nonzero;"/>
        </g>
        <g transform="matrix(5.555556,0,0,5.555556,5765.619444,3669.598889)">
            <path d="M0,-29.295L15.735,-29.295L15.735,-25.954L3.652,-25.954L3.652,-17.756L15.385,-17.756L15.385,-14.414L3.652,-14.414L3.652,-3.341L15.735,-3.341L15.735,0L0,0L0,-29.295Z" style="fill:rgb(217,212,205);fill-rule:nonzero;"/>
        </g>
        <g transform="matrix(5.555556,0,0,5.555556,5912.825,3525.407778)">
            <path d="M0,22.613L1.282,22.613C8.741,22.613 15.191,19.816 15.191,11.307C15.191,2.759 8.741,0.001 1.282,0.001L0,0.001L0,22.613ZM-3.652,-3.341L2.409,-3.341C11.383,-3.341 18.843,1.4 18.843,11.151C18.843,21.136 11.539,25.954 2.292,25.954L-3.652,25.954L-3.652,-3.341Z" style="fill:rgb(217,212,205);fill-rule:nonzero;"/>
        </g>
        <g transform="matrix(-5.555556,0,0,5.555556,12126.966667,1176.45)">
            <rect x="1089.601" y="419.472" width="3.652" height="29.295" style="fill:rgb(217,212,205);"/>
        </g>
        <g transform="matrix(5.555556,0,0,5.555556,6238.748333,3638.519444)">
            <path d="M0,-18.106C-2.098,-19.971 -4.973,-20.981 -7.732,-20.981C-14.298,-20.981 -19.31,-15.503 -19.31,-9.014C-19.31,-2.604 -14.337,2.874 -7.809,2.874C-4.935,2.874 -2.176,1.786 0,-0.156L0,4.156C-2.254,5.477 -5.129,6.216 -7.693,6.216C-16.046,6.216 -22.962,-0.428 -22.962,-8.898C-22.962,-17.562 -16.007,-24.322 -7.382,-24.322C-4.818,-24.322 -2.215,-23.701 0,-22.341L0,-18.106Z" style="fill:rgb(217,212,205);fill-rule:nonzero;"/>
        </g>
        <g transform="matrix(-5.555556,0,0,5.555556,12577.211111,1176.45)">
            <rect x="1130.123" y="419.472" width="3.652" height="29.295" style="fill:rgb(217,212,205);"/>
        </g>
        <g transform="matrix(5.555556,0,0,5.555556,6448.115556,3663.551111)">
            <path d="M0,-35.86L-6.372,-30.071L-8.081,-31.12L-3.225,-37.57L0,-35.86ZM6.488,-13.559C6.488,-20.008 1.671,-25.409 -5.206,-25.409C-12.083,-25.409 -16.901,-20.008 -16.901,-13.559C-16.901,-6.876 -11.539,-1.709 -5.206,-1.709C1.127,-1.709 6.488,-6.876 6.488,-13.559M10.141,-13.559C10.141,-4.856 3.264,1.71 -5.206,1.71C-13.676,1.71 -20.553,-4.856 -20.553,-13.559C-20.553,-21.951 -13.598,-28.828 -5.206,-28.828C3.186,-28.828 10.141,-21.951 10.141,-13.559" style="fill:rgb(217,212,205);fill-rule:nonzero;"/>
        </g>
        <g transform="matrix(5.555556,0,0,5.555556,6538.335556,3676.286111)">
            <path d="M0,-31.897L21.99,-8.858L21.99,-30.499L25.642,-30.499L25.642,0L3.652,-23.039L3.652,-1.204L0,-1.204L0,-31.897Z" style="fill:rgb(217,212,205);fill-rule:nonzero;"/>
        </g>
    </g>
</svg>
