<?xml version="1.0" encoding="UTF-8"?>
<svg id="Capa_1" xmlns="http://www.w3.org/2000/svg" version="1.1" viewBox="0 0 1920 1080">
  <!-- Generator: Adobe Illustrator 30.3.0, SVG Export Plug-In . SVG Version: 2.1.3 Build 182)  -->
  <defs>
    <style>
      .st0 {
        fill: #f6eddb;
      }
    </style>
  </defs>
  <g>
    <g>
      <path class="st0" d="M468.99,292.35v23.24h20.34v8.72h-20.34v29.06h-10.17v-69.73h37.77v8.72h-27.61.01Z"/>
      <path class="st0" d="M518.38,292.35v21.79h21.79v8.72h-21.79v21.79h27.6v8.72h-37.77v-69.73h39.23v8.72h-29.06Z"/>
      <path class="st0" d="M568.26,351.07c-4-2.27-7.17-5.2-9.5-8.8l6.9-6.5c2,2.87,4.42,5.17,7.25,6.9,2.83,1.74,5.79,2.6,8.85,2.6,3.46,0,6.26-.93,8.4-2.8,2.14-1.87,3.2-4.23,3.2-7.1,0-2.4-.64-4.45-1.9-6.15-1.26-1.7-2.85-3.11-4.75-4.2-1.9-1.1-4.51-2.42-7.85-3.94-3.93-1.8-7.1-3.45-9.51-4.95-2.4-1.5-4.45-3.53-6.15-6.11-1.7-2.56-2.55-5.75-2.55-9.55,0-3.33.89-6.37,2.65-9.11,1.76-2.73,4.2-4.9,7.3-6.5,3.09-1.61,6.55-2.4,10.35-2.4,4.13,0,7.95.94,11.46,2.85,3.5,1.9,6.45,4.29,8.85,7.15l-6.2,6.4c-1.87-2.14-4.02-3.89-6.45-5.26-2.43-1.37-4.91-2.05-7.45-2.05-3.2,0-5.8.85-7.79,2.55s-3,3.85-3,6.45c0,2.07.6,3.86,1.8,5.4,1.2,1.54,2.68,2.83,4.45,3.9,1.77,1.06,4.22,2.3,7.35,3.7,4.06,1.87,7.37,3.59,9.9,5.15,2.53,1.57,4.69,3.7,6.45,6.4,1.77,2.7,2.65,6.05,2.65,10.05,0,3.6-.86,6.87-2.6,9.8s-4.25,5.26-7.55,6.96c-3.3,1.7-7.18,2.55-11.66,2.55s-8.9-1.13-12.9-3.4l.04.02Z"/>
      <path class="st0" d="M654.94,292.35h-17.43v61.02h-10.17v-61.02h-17.43v-8.72h45.04v8.72Z"/>
      <path class="st0" d="M666.57,283.63h10.17v69.73h-10.17v-69.73Z"/>
      <path class="st0" d="M748.29,283.63l-29.94,71.19h-1.41l-29.94-71.19h10.42l20.23,51.16,20.22-51.16h10.42Z"/>
      <path class="st0" d="M788.48,338.84h-29.24l-6.04,14.53h-11.12l30.99-71.19h1.41l31.08,71.19h-11.02l-6.04-14.53h-.01ZM785.07,328.67l-11.2-27-11.2,27h22.4-.01Z"/>
      <path class="st0" d="M851.07,344.65v8.72h-34.87v-69.73h8.72v61.02h26.15Z"/>
      <path class="st0" d="M88.35,404.22h10.17v69.73h-10.17v-69.73Z"/>
      <path class="st0" d="M174.07,403.47v71.93h-1.31l-46.63-49.31v47.85h-8.72v-71.19h1.14l46.8,49.81v-48.35h8.91l-.19-.74Z"/>
      <path class="st0" d="M230.73,412.93h-15.98s0,61.02,0,61.02h-10.17v-61.02h-18.89v-8.72h45.04v8.72h0Z"/>
      <path class="st0" d="M253.97,412.93v20.34h21.79v8.72h-23.24v21.79h29.06v10.17h-37.77v-69.73h37.77v8.72h-27.6Z"/>
      <path class="st0" d="M316.75,446.35h-9.03v27.6h-10.17v-69.73h20.33c4.91,0,9.22,1,12.89,2.99,3.68,1.99,6.49,4.65,8.45,7.97,1.96,3.32,2.94,6.84,2.94,10.57,0,4.65-1.34,8.79-4,12.4-2.68,3.62-6.4,6.19-11.18,7.72l18.19,28.1h-12.6s-15.8-27.6-15.8-27.6h-.01ZM307.72,437.63h9.14c4.02,0,7.28-1.15,9.79-3.46,2.51-2.31,3.76-5.28,3.76-8.88s-1.26-6.66-3.76-8.94c-2.51-2.28-5.77-3.41-9.79-3.41h-9.14v24.7Z"/>
      <path class="st0" d="M413.78,403.47v71.93h-1.31l-46.63-49.31v47.85h-8.72v-71.19h.23l46.26,49.81v-48.35h9.45l.72-.74Z"/>
      <path class="st0" d="M469.88,459.42h-29.24l-6.04,14.53h-11.12l30.99-71.19h1.41l31.08,71.19h-11.02l-6.04-14.53h-.01ZM466.45,449.25l-11.2-27-11.2,27h22.4-.01Z"/>
      <path class="st0" d="M509.28,469.73c-5.43-3.3-9.64-7.71-12.6-13.25-2.96-5.53-4.45-11.54-4.45-18s1.49-12.47,4.45-18c2.96-5.54,7.17-9.96,12.6-13.25,5.43-3.3,11.68-4.95,18.75-4.95,6.2,0,11.7,1.24,16.5,3.7v10.7c-4.33-3.46-9.8-5.2-16.4-5.2-5.07,0-9.6,1.24-13.61,3.7-4,2.47-7.1,5.76-9.31,9.9-2.2,4.13-3.3,8.6-3.3,13.4s1.1,9.27,3.3,13.4c2.2,4.13,5.3,7.43,9.31,9.9,4,2.47,8.53,3.7,13.61,3.7,6.6,0,12.07-1.74,16.4-5.2v10.7c-4.79,2.47-10.3,3.7-16.5,3.7-7.06,0-13.32-1.65-18.75-4.95h0Z"/>
      <path class="st0" d="M559.06,404.22h10.17v69.73h-10.17v-69.73Z"/>
      <path class="st0" d="M602.96,469.82c-5.47-3.3-9.7-7.71-12.7-13.25-3-5.53-4.5-11.56-4.5-18.1s1.5-12.47,4.5-18c3-5.54,7.23-9.96,12.7-13.25,5.47-3.3,11.74-4.95,18.8-4.95s13.23,1.65,18.7,4.95c5.47,3.3,9.7,7.71,12.7,13.25,3,5.54,4.5,11.54,4.5,18s-1.5,12.57-4.5,18.1c-3,5.54-7.24,9.96-12.7,13.25-5.47,3.3-11.7,4.95-18.7,4.95s-13.33-1.65-18.8-4.95ZM635.41,461.67c4.03-2.47,7.17-5.75,9.4-9.85,2.23-4.1,3.35-8.55,3.35-13.35s-1.12-9.25-3.35-13.35c-2.23-4.1-5.36-7.37-9.4-9.8-4.04-2.43-8.59-3.65-13.65-3.65s-9.7,1.22-13.7,3.65c-4,2.43-7.1,5.7-9.31,9.8-2.2,4.1-3.3,8.55-3.3,13.35s1.1,9.25,3.3,13.35c2.2,4.1,5.3,7.38,9.31,9.85,4,2.47,8.56,3.7,13.7,3.7s9.61-1.23,13.65-3.7Z"/>
      <path class="st0" d="M731.94,403.47v71.93h-1.31l-46.63-49.31v47.85h-8.72v-71.19h.68l47.26,49.81v-48.35h8.45l.27-.74Z"/>
      <path class="st0" d="M788.49,459.42h-29.24l-6.04,14.53h-11.12l30.99-71.19h1.41l31.08,71.19h-11.02l-6.04-14.53h-.01ZM785.07,449.25l-11.2-27-11.2,27h22.4-.01Z"/>
      <path class="st0" d="M851.07,463.78v10.17h-34.87v-69.73h8.72v59.56h26.15Z"/>
      <path class="st0" d="M416.68,527.92c5.41,3.06,9.55,7.22,12.44,12.51,2.89,5.28,4.33,11.14,4.33,17.59s-1.44,12.42-4.33,17.73c-2.89,5.32-7.03,9.53-12.44,12.65-5.41,3.12-11.74,4.68-19.01,4.68h-18.76v-69.73h18.76c7.27,0,13.61,1.53,19.01,4.59h0ZM410.87,580.92c3.96-2.31,6.98-5.41,9.07-9.3,2.09-3.89,3.14-8.18,3.14-12.86s-1.05-9.03-3.14-12.86c-2.09-3.82-5.13-6.85-9.07-9.05-3.96-2.21-8.61-3.32-13.97-3.32h-9.28v50.85h9.28c5.36,0,10.02-1.16,13.97-3.46h0Z"/>
      <path class="st0" d="M458.82,532.06v21.79h21.79v8.72h-21.79v21.79h29.06v8.72h-37.77v-69.73h37.77v8.72h-29.06Z"/>
      <path class="st0" d="M554.31,589.73c-5.43-3.3-9.64-7.71-12.6-13.25-2.96-5.53-4.45-11.54-4.45-18s1.49-12.47,4.45-18c2.96-5.54,7.17-9.96,12.6-13.25,5.43-3.3,11.68-4.95,18.75-4.95,6.2,0,11.7,1.24,16.5,3.7v10.7c-4.33-3.46-9.8-5.2-16.4-5.2-5.07,0-9.6,1.24-13.61,3.7-4,2.47-7.1,5.76-9.31,9.9-2.2,4.13-3.3,8.6-3.3,13.4s1.1,9.27,3.3,13.4c2.2,4.13,5.3,7.43,9.31,9.9,4,2.47,8.53,3.7,13.61,3.7,6.6,0,12.07-1.74,16.4-5.2v10.7c-4.79,2.47-10.3,3.7-16.5,3.7-7.06,0-13.32-1.65-18.75-4.95h0Z"/>
      <path class="st0" d="M605.55,523.35h10.17v69.73h-10.17v-69.73Z"/>
      <path class="st0" d="M691.26,523.48v71.05h-1.31l-46.63-49.31v47.85h-8.72v-71.19h1.03l46.92,50.68v-49.23h8.79l-.08.13Z"/>
      <path class="st0" d="M720.32,532.06v21.79h21.79v8.72h-21.79v21.79h29.06v8.72h-37.77v-69.73h37.77v8.72h-29.06,0Z"/>
    </g>
    <g>
      <g>
        <path class="st0" d="M982.07,282.13h32.87v153.81h88.87v30.23h-121.74v-184.04Z"/>
        <path class="st0" d="M1108.53,374.16c0-14.37,2.14-27.43,6.44-39.18,4.3-11.73,10.48-21.78,18.54-30.1,8.06-8.32,17.79-14.76,29.18-19.33,11.4-4.56,24.27-6.84,38.65-6.84s27.3,2.29,38.78,6.84c11.48,4.56,21.25,10.99,29.31,19.33,8.06,8.32,14.25,18.37,18.54,30.1,4.3,11.75,6.44,24.81,6.44,39.18s-2.14,27.43-6.44,39.18c-4.3,11.75-10.48,21.83-18.54,30.23-8.06,8.42-17.84,14.91-29.31,19.46-11.48,4.56-24.42,6.84-38.78,6.84s-27.25-2.29-38.65-6.84c-11.4-4.56-21.12-11.04-29.18-19.46-8.06-8.42-14.25-18.5-18.54-30.23-4.3-11.73-6.44-24.81-6.44-39.18ZM1141.4,374.16c0,10,1.35,19.06,4.07,27.22,2.72,8.15,6.62,15.03,11.7,20.64,5.09,5.62,11.35,9.95,18.8,13.02,7.45,3.07,15.9,4.6,25.37,4.6s17.92-1.53,25.37-4.6c7.45-3.06,13.76-7.4,18.93-13.02,5.17-5.6,9.11-12.49,11.83-20.64,2.72-8.15,4.07-17.22,4.07-27.22s-1.35-19.01-4.07-27.07c-2.72-8.06-6.66-14.89-11.83-20.51-5.17-5.6-11.48-9.95-18.93-13.02-7.45-3.06-15.9-4.6-25.37-4.6s-17.93,1.53-25.37,4.6c-7.45,3.07-13.71,7.4-18.8,13.02-5.09,5.62-8.98,12.44-11.7,20.51-2.72,8.06-4.07,17.09-4.07,27.08Z"/>
        <path class="st0" d="M1444.04,412.81c0,7.89-1.32,15.29-3.94,22.21-2.62,6.92-6.62,12.88-11.96,17.88-5.34,4.99-12.09,8.93-20.25,11.83-8.15,2.9-17.84,4.35-29.05,4.35-8.24,0-15.87-.74-22.87-2.24-7.02-1.48-13.46-3.51-19.33-6.05-5.88-2.54-11.17-5.42-15.9-8.68-4.73-3.24-8.85-6.54-12.36-9.87l20.77-22.62c7.18,6.13,14.73,10.87,22.62,14.2,7.89,3.33,16.82,4.99,26.82,4.99,6.31,0,11.57-.69,15.77-2.11,4.2-1.4,7.58-3.2,10.13-5.39,2.54-2.19,4.3-4.73,5.26-7.63.97-2.9,1.45-5.75,1.45-8.55,0-5.42-1.45-9.9-4.35-13.41-2.9-3.51-6.74-6.44-11.57-8.81s-10.3-4.38-16.43-6.05c-6.13-1.66-12.41-3.38-18.8-5.13-6.41-1.75-12.67-3.81-18.8-6.18-6.13-2.37-11.62-5.39-16.43-9.08-4.83-3.69-8.68-8.29-11.57-13.81-2.9-5.52-4.35-12.39-4.35-20.64,0-7.71,1.4-14.81,4.2-21.3s6.87-12.06,12.23-16.69c5.34-4.64,12.01-8.29,19.98-10.91,7.97-2.62,17.13-3.94,27.48-3.94,14.2,0,27.04,2.32,38.52,6.97,11.48,4.65,21.43,10.56,29.84,17.75l-19.19,23.92c-8.42-6.66-16.61-11.4-24.58-14.2-7.98-2.8-16.08-4.2-24.32-4.2-11.04,0-19.03,1.93-23.92,5.78-4.91,3.86-7.36,8.6-7.36,14.2,0,4.56,1.45,8.32,4.35,11.3,2.9,2.98,6.74,5.47,11.57,7.5,4.81,2.01,10.3,3.77,16.43,5.26,6.13,1.5,12.39,3.15,18.8,4.99,6.39,1.84,12.67,4.04,18.8,6.57,6.13,2.54,11.61,5.88,16.43,10,4.81,4.12,8.68,9.24,11.57,15.39,2.9,6.13,4.35,13.59,4.35,22.34l-.02.05Z"/>
        <path class="st0" d="M981.28,613.17c0-14.37,2.14-27.43,6.44-39.18,4.3-11.73,10.48-21.78,18.54-30.1,8.06-8.32,17.79-14.76,29.18-19.33,11.4-4.56,24.27-6.84,38.65-6.84,16.47,0,30.89,2.93,43.25,8.81,12.36,5.88,22.74,14.07,31.16,24.58l-26.82,18.4c-5.62-6.84-12.31-12.14-20.12-15.9-7.81-3.77-16.97-5.65-27.48-5.65-9.46,0-17.93,1.53-25.37,4.6-7.45,3.07-13.71,7.4-18.8,13.02-5.09,5.62-8.98,12.44-11.7,20.51-2.72,8.06-4.07,17.09-4.07,27.07s1.35,19.03,4.07,27.08c2.72,8.06,6.62,14.91,11.7,20.51,5.09,5.62,11.35,9.95,18.8,13.02,7.45,3.07,15.9,4.6,25.37,4.6,10.51,0,19.67-1.88,27.48-5.65,7.79-3.77,14.5-9.08,20.12-15.9l26.82,18.4c-8.42,10.51-18.8,18.72-31.16,24.58-12.36,5.88-26.79,8.81-43.25,8.81-14.37,0-27.25-2.29-38.65-6.84-11.4-4.56-21.12-10.99-29.18-19.33-8.06-8.32-14.25-18.37-18.54-30.1-4.3-11.73-6.44-24.81-6.44-39.18v.03Z"/>
        <path class="st0" d="M1220.29,521.14h34.45l63.1,184.05h-34.45l-15.24-48.64h-61.26l-15.24,48.64h-34.45l63.1-184.05h0ZM1258.41,626.32l-21.04-66.79-21.04,66.79h42.08Z"/>
        <path class="st0" d="M1330.46,521.14h88.34c7.53,0,14.33,1.18,20.38,3.56,6.05,2.37,11.17,5.75,15.39,10.12,4.2,4.38,7.45,9.51,9.72,15.39,2.27,5.88,3.41,12.39,3.41,19.59,0,8.93-1.71,16.26-5.13,21.96-3.41,5.7-7.94,10.04-13.54,13.02,4.38,1.4,8.5,3.41,12.36,6.05,3.85,2.62,7.23,5.88,10.13,9.72,2.9,3.86,5.17,8.32,6.84,13.41,1.66,5.09,2.5,10.87,2.5,17.35,0,7.89-1.27,15.12-3.81,21.7-2.54,6.57-6.18,12.27-10.91,17.09-4.73,4.83-10.48,8.55-17.22,11.17-6.74,2.62-14.33,3.94-22.74,3.94h-95.71v-184.05l.02-.03ZM1414.6,592.13c6.13,0,11.04-1.84,14.73-5.52,3.69-3.69,5.52-8.58,5.52-14.73s-1.84-11.3-5.52-14.99c-3.69-3.69-8.6-5.52-14.73-5.52h-51.27v40.76h51.27ZM1421.95,674.95c7.89,0,14.2-2.37,18.93-7.1,4.73-4.73,7.1-11.04,7.1-18.93s-2.37-14.5-7.1-19.33c-4.73-4.81-11.04-7.23-18.93-7.23h-58.62v52.59h58.62Z"/>
        <path class="st0" d="M1496.09,613.17c0-14.37,2.14-27.43,6.44-39.18,4.3-11.73,10.48-21.78,18.54-30.1,8.06-8.32,17.79-14.76,29.18-19.33,11.4-4.56,24.27-6.84,38.65-6.84s27.3,2.29,38.78,6.84c11.48,4.56,21.25,10.99,29.31,19.33,8.06,8.32,14.25,18.37,18.54,30.1,4.3,11.75,6.44,24.81,6.44,39.18s-2.16,27.43-6.44,39.18c-4.3,11.75-10.48,21.83-18.54,30.23-8.06,8.42-17.84,14.91-29.31,19.46-11.48,4.56-24.4,6.84-38.78,6.84s-27.25-2.29-38.65-6.84c-11.4-4.56-21.12-11.04-29.18-19.46-8.06-8.42-14.25-18.5-18.54-30.23-4.3-11.73-6.44-24.81-6.44-39.18ZM1528.96,613.17c0,10,1.35,19.06,4.07,27.22,2.72,8.15,6.62,15.03,11.7,20.64,5.09,5.62,11.35,9.95,18.8,13.02,7.45,3.07,15.9,4.6,25.37,4.6s17.92-1.53,25.37-4.6c7.45-3.06,13.76-7.4,18.93-13.02,5.17-5.6,9.11-12.49,11.83-20.64,2.72-8.15,4.07-17.22,4.07-27.22s-1.37-19.01-4.07-27.08c-2.72-8.06-6.66-14.89-11.83-20.51-5.17-5.6-11.48-9.95-18.93-13.02-7.45-3.06-15.9-4.6-25.37-4.6s-17.93,1.53-25.37,4.6c-7.45,3.07-13.71,7.4-18.8,13.02-5.09,5.62-8.98,12.44-11.7,20.51-2.72,8.06-4.07,17.09-4.07,27.08Z"/>
        <path class="st0" d="M1831.59,651.82c0,7.89-1.32,15.29-3.94,22.21-2.62,6.92-6.62,12.88-11.96,17.88-5.34,4.99-12.09,8.93-20.25,11.83-8.15,2.9-17.84,4.35-29.05,4.35-8.24,0-15.87-.74-22.87-2.24-7.02-1.48-13.46-3.51-19.33-6.05-5.88-2.54-11.17-5.42-15.9-8.68-4.73-3.24-8.85-6.54-12.36-9.87l20.77-22.62c7.18,6.13,14.73,10.87,22.62,14.2,7.89,3.33,16.82,4.99,26.82,4.99,6.31,0,11.57-.69,15.78-2.11,4.2-1.4,7.58-3.2,10.13-5.39,2.54-2.19,4.3-4.73,5.26-7.63.97-2.9,1.45-5.75,1.45-8.55,0-5.42-1.45-9.9-4.33-13.41-2.9-3.51-6.74-6.44-11.57-8.81-4.83-2.37-10.3-4.38-16.43-6.05-6.13-1.66-12.39-3.38-18.8-5.13-6.41-1.75-12.67-3.81-18.8-6.18-6.13-2.37-11.61-5.39-16.43-9.08-4.83-3.69-8.68-8.29-11.57-13.81-2.9-5.52-4.33-12.39-4.33-20.64,0-7.71,1.4-14.81,4.2-21.3s6.87-12.06,12.23-16.69c5.34-4.64,12.01-8.29,19.98-10.91,7.97-2.62,17.13-3.94,27.48-3.94,14.2,0,27.04,2.32,38.52,6.97,11.48,4.65,21.43,10.56,29.84,17.75l-19.19,23.92c-8.42-6.66-16.61-11.4-24.58-14.2-7.98-2.8-16.08-4.2-24.32-4.2-11.04,0-19.03,1.93-23.92,5.78-4.91,3.86-7.36,8.6-7.36,14.2,0,4.56,1.45,8.32,4.33,11.3,2.9,2.98,6.74,5.47,11.57,7.5,4.81,2.01,10.3,3.77,16.43,5.26,6.13,1.5,12.39,3.16,18.8,4.99,6.39,1.84,12.67,4.04,18.8,6.57,6.13,2.54,11.61,5.88,16.43,10,4.81,4.12,8.68,9.24,11.57,15.39,2.9,6.13,4.33,13.59,4.33,22.34l-.02.05Z"/>
      </g>
      <g>
        <path class="st0" d="M1515.39,253.1c2.46-2.58,4.93-5.15,7.39-7.71,4.33-4.51,9.24-5.57,15.24-3.41,10.5,3.77,21.04,7.4,31.73,10.56,3.99,1.18,8.43.82,13.96,1.27-5.52,5.91-10.16,11.59-15.55,16.43-4.91,4.41-11.22,4.81-17.37,2.69-6.45-2.22-12.83-4.75-19.12-7.42-11.49-4.91-20.2.29-21.1,12.8-3.75,51.38,34.67,95.7,86.25,98.48,38.83,2.09,73.84-9.27,105.55-31.78,21.41-15.18,44.35-27.59,70.25-33.61,19.46-4.52,38.92-4.14,58.61-.47.97,3.8.31,5.59-3.98,6.33-23.65,4.14-42.93,15.69-58.53,34.01-8.5,9.98-17.96,19.17-27.35,28.35-2.03,1.98-5.62,3.36-8.5,3.36-72.55.18-145.08.11-217.63.23-3.73,0-5.92-1.21-7.87-4.23-23.61-36.91-26.51-75.4-8.19-115.11,4.17-9.03,3.3-16.13-3.06-23.18-3.98-4.41-7.89-8.9-11.72-13.46-5.81-6.91-6.87-14.52-2.7-22.6,2.7-5.23,5.73-10.3,9.35-16.79,3.56,16.35,14.92,26.09,24.23,37.09,5.7,6.73,7.05,12.97,2.51,20.52-1.27,2.12-2.17,4.47-3.24,6.73.29.29.56.58.85.89v.03Z"/>
        <path class="st0" d="M1567.76,429.37c8,1.48,16.37,3.64,24.89,4.49,36.22,3.64,70.01-5.71,102.78-19.94,31.42-13.63,57.4-34.21,78.39-61.22,12.89-16.6,35.86-28.97,56.36-30.95-2,43.01-32.4,102.17-92.9,129.68-59.22,26.95-127.12,15.37-169.52-22.08v.03Z"/>
        <path class="st0" d="M1514.16,388.02h176.26c-8.45,18.87-49.88,40.05-81.88,41.27-37.55,1.43-68.59-12.48-94.38-41.27Z"/>
      </g>
    </g>
    <path class="st0" d="M916.43,744.7c-1.94,0-3.51-2.18-3.51-4.87v-473.94c0-2.69,1.57-4.87,3.51-4.87s3.51,2.18,3.51,4.87v473.96c0,2.69-1.57,4.87-3.51,4.87v-.02Z"/>
  </g>
  <g>
    <path class="st0" d="M982.29,888.71l-1-3.72,1.86-4.01,4.44-.72h13.47l1.43-.43h1.15l.72-.72,2.29-1.58v-2.72l.72-4.3v-15.04l-1-6.02,1.43-9.31-1.58-11.75v-6.73l.43-2.58-.43-.72.43-1.15v-3.01l.86-3.3-2.72-3.87-6.02-1-1.43.72-1.15-.72-2.29.72-3.72-1.86-.72-2.58v-4.44l2.29-2.44h1.43l1.15.57,2.58-.57,17.33.57,2.86,1.72,1.29,3.87v4.44l1,2.29-1,4.01.72,1.15-.86.86.86,12.18-.72,1.86,1.43,5.44v1.86l1,6.59-1,8.31v8.6l-1.15,4.01,1.15,8.59v4.87l1.86,2.44,7.88,1.15h4.44l1.15.72,4.44,1.15,1.15,2.58v2.58l-1.86,1.86-4.15,1.15h-3.29l-3.72,1.86h-26.65l-16.04-.72-2.72-2.72Z"/>
    <path class="st0" d="M1104.19,887.28v-4.44l-.72-4.87.72-3.01-2.58-4.15-7.45-1.43-10.6,1.15-2.29-.57h-1.86l-1.43-.57-2.86,1-.86-1.15-2.29.72h-11.17l-2.58-2.44v-5.01l3.01-6.3,1.43-1.86.43-1.15,3.29-3.01,2.29-3.72,1.43-1.43-.72-.43,2.58-2.58v-.72l2.29-4.15,1.86-1.86.72-1.43,2.58-3.58,3.01-4.87,1.15-1.29.72-1.29,3.01-3.01,1.86-2.58,2.01-3.72,3.01-3.01,2.58-3.72v-.72l1.15-1.15,3.58-6.45,2.01-1v-1.15l4.87-1.58,1.43,1.58.86-1.15,3.29,1.58v1.86l.72,1.86v2.58l.72,5.59-.72,2.58v8.59l-.72,4.58.72,4.01v16.19l.72,1.15.43,5.59v5.59l5.73,5.16-1.29,6.02-3.72,2.44v1.29l-.72,1.72v3.3l-.43,1.15.43,1.86v8.17l-1.86,1.86-1.15.43-1,1-4.58-1-3.01-3.01ZM1090.44,859.49h8.17l1.86-.72h1.15l1-1,2.01-7.59v-8.88l.72-3.72-.72-1.15v-3.72l-.43-1.15v-5.59l-.72-1.86.72-1.29v-3.01l-.72-.72-.86-1.86h-1.72l-4.58,6.88-2.15,1.29v1.15l-.72.57-.43,1.29-3.15,5.44-.72.72-2.44,3.72-2.44,2.58-2.86,4.58-2.01,2.15v1.15l-.72.72-4.16,7.16,3.15,2.15h9.03l3.72.72Z"/>
    <path class="st0" d="M1161.78,822.82l-5.73-4.44-2.29-4.87-1-3.72v-10.46l3.01-6.3,4.15-4.15,9.74-2.29,7.45,1.15,4.15,4.15,3.15,6.02v15.33l-4.73,7.02-6.45,3.29h-6.3l-3.72-.72h-1.43ZM1168.08,813.5l3.3-1.15v.86l2.58-3.87v-6.3l-3.01-3.29h-4.44l-2.58,5.16v4.44l4.15,4.15Z"/>
    <path class="st0" d="M1298.72,889.43l-1-3.58v-19.63l-1.15-7.45v-5.59l1.15-2.58-.72-1.86-.43-6.3-1.15-2.01,1.43-9.03-1.43-2.86,1.15-3.87v-9.6l.43-3.01v-8.02l.72-2.44-.86-2.01,1.29-6.59,4.01-1.29h4.15l1.86-.72,7.88.86,1.58-.86,4.87-.43,1.29-.72h12.89l8.88.72h1.86l2.58,1.15h1.15l2.58,2.44v4.87l-2.58,2.58h-1.86l-.72-.72-1.15.72h-3.01l-2.58,1.15-8.17-.57-.72.57h-3.01l-4.3.72h-1.29l-1.86.57h-10.31l-1.43.57-1.43-.57.72,12.46.72,1.15v3.29l-.72,1.15.72,1.15v3.72l2.58,2.58h3.72l1.15.72h9.88l3.01,1.15h1.43l2.29,1.15,12.61-1,2.58,1.43,1.86,2.72-.72,4.87h-1.15l-1.43.72h-10.46l-1.86,1.15h-7.45l-3.72,1.29-5.59.57h-6.88l-1.15.72-1.86.43v1.43l-1.72,3.01,1,4.15-1.15,4.73,1.15,1.15-.72.72,1,4.87-1,.72,1.15,2.29-1.15,5.59.72,1.29v1.29l1.15,1.29,1,1.72,11.46.57,1.43-.57,3.01.57h13.04l1.86.72h10.46l1.43,1.15.43,3.72-.72,3.72h-2.29l-1.15.72h-19.34l-3.72,1.15h-1.29l-3.15.72-2.44-.72-8.88,1-10.46-1-2.01-2.01Z"/>
    <path class="st0" d="M1373.78,886.13v-26.5l.72-2.58v-41.4l.43-4.3-.72-9.17.72-.72v-6.3l2.29-4.15h3.29l1.86-.72h4.44l3.01-.72h13.75l.57.72,3.01-.72,8.17,2.58,2.29,1.15h1.43l.43,1.43h.72l4.87,3.01,1.43,1.86,3.72,5.59.86.86,1.43,4.58,1.86,3.72v3.72l.72,3.72v15.61l.72,4.16v8.17l.43,3.01v11.75l-1.15,1.15v4.44l-1.15,1.15v1.86l-1.43,2.58-.86,2.86-6.59,6.45-9.74,4.87h-5.01l-1.86-.43-1.29,1.15h-11.75l-7.16-.72-4.01.72h-6.73l-2.01-1-1.72-3.44ZM1391.26,878.68h3.01l.72-.43h9.74l7.31-1.86,5.16-2.15,3.72-5.3v-.72l1.43-3.01,1.58-6.3v-12.89l.72-4.87v-1.86l.43-1.43v-12.32l.72-.72-.72-1.86-.43-.43.43-1.43-.43-1.86v-2.29l-1.58-3.15-1.15-4.44-2.44-2.29v-1.29l-3.72-1.29-3.01-1.43-3.72-.86-.57-.72h-13.04l-.43-.72h-2.58l-2.29.86-1.43,2.87h-.72l-.86,4.87.86,13.18-.43,1.15.43.72v9.31l-.43.43.86,5.87-.86,9.88.72,10.89-.72,4.87v3.72l-.72,1.86.72.72v4.01l3.72,2.72Z"/>
    <path class="st0" d="M1454.43,886.13l1-4.58,3.87-1.72h5.59l1.43.72,3.44-.72h4.44l4.87-1.29v-19.05l-.43-2.44v-3.58l-1.29-4.87,1.29-8.88v-11.17l-1-5.01,1.43-4.3v-9.88l-.43-3.01v-1.86l-.72-.72-.72-1.86-1.15-1.15-4.87.72h-12.61l-2.29-1.43h-1.43l-1.58-4.44,2.15-4.15h.86l1.15-1.15h2.58l4.87-.72h43.83l3.72,1.86,1.15,4.44-1.15,3.15-2.29,1.72-1.86-.72-1.43.72h-7.88l-6.3,1.15-.72.72-1.15.72v7.31l.72.57-1.29,2.58v1.15l.57.72v7.31l.72,2.58v16.76l1,9.88-1.86,3.3.86,2.15v2.58l-1.29,1.29.57,4.87v11.6l1.15-.43.72.43v1.43l1.15-.72h3.29l4.15-.72,1.43.72h5.59l2.29,1.15h1.43l2.29,2.58v6.3h-1.15l-1.86,1.15h-14.9l-1.86-.72h-4.87l-4.16-.72-2.72,1.43h-10.46l-.72-.72h-8.59l-5.3,1-1.86-1.29-1.43-2.72Z"/>
    <path class="st0" d="M1559,890.72l-.72-.43-3.72-.86-1.15-1h-2.58l-4.15-2.58-4.44-4.3-1.15-.57-3.44-4.15-3.58-8.31-.43-.43v-1.86l-.72-1.43v-1.15l-.72-1.86-.43-3.3-.86-2.01.86-8.45v-19.2l1.15-1.15v-1.15l.72-3.72v-1.43l1.15-6.02.72-1.86v-1.43l3.72-7.88.86-2.72,1-1,.43-1.43.72-.43,1.15-1.86,5.16-5.01,4.16-2.58h2.58l1.86-.43h3.01l1.86-.72h5.01l1.86.72h1.86l2.58.43h1.15l3.72,1.86,1.15,1.43h1.86l1.86,1.72v.57h1.86l1.86,2.01,2.15,1,1.58,5.01.72.72,2.72,5.59-.86,3.01v3.29h-6.3v-1.43l-1.15-.43-1.15-4.58-2.87-4.01-4.58-3.3-1.86-.72-3.72-1.86h-6.3l-3.15.72h-1.86l-6.73,5.44-3.01,4.58v.43l-1.86,5.16v.43l-.72,1.43v2.29l-.72,2.58v2.58l-1.15,6.02v10.6l-1,13.32,1.72,9.03v1.15l1.15,3.29.72,1.15v1.86l6.73,6.73h1.15l5.01,1.86h1.86l3.01.57,1.86-.57h3.29l4.15-1.86,3.72-2.86v-1.43l1.43-1.29,1.86-3.72.43-.43,1.15-4.3,2.58-2.72h3.29l1.86.72h.86l1.43,3.01v6.3l-3.01,6.16-.72.57v1.29l-3.72,3.72-1.15.57-3.01,3.15h-1.43l-1.86,1.86-7.88,2.29h-4.44l-1.15.72h-3.15l-1.86-.72h-1.86Z"/>
    <path class="st0" d="M1623.61,889.43l-1.86.43-3.01-.43h-3.01l-3.44-1.72-1.15-2.72.86-4.01,2.29-1.58,1.86.72,3.29-.72h11.89l4.15-2.15v-28.94l1.29-2.29-.57-.72.57-2.29-.57-7.02.57-1.43-.86-2.01,1.15-1.86-.86-1,.57-.72v-2.29l-.57-1.29.57-7.45v-2.29h.57v-4.01l.57-.43-.57-1.43-.57-2.29-1.29-3.72v-1.86h-3.72l-2.29-.72h-13.75l-2.58-2.58v-1.86l-.72-1.86.72-2.29,2.58-3.3h3.01l4.44-.43h3.01l9.31-.86,4.3.86h8.17l6.02,1.15,1.86.72,1.43-.72,1.15.72h1.43l3.01.43h3.01l1.43.72h2.29l1.86,1.86v6.73h-1.86l-1.15.72h-11.17l-1.43.72h-3.72l-2.29,1.86v2.29l-1.43,2.86,1,2.01-1.43,8.59-.72,17.62.72.72v4.15l.72,2.58-.72,2.58.43,1.15v8.74l-.43,5.59v14.9l2.29,1.86h5.16l2.58.72h6.73l4.44,1.15,1.15,1.15v2.58l.72.72v2.29l-1.72,1.58-4.58,1h-23.64l-6.73-1.15h-10.74Z"/>
    <path class="st0" d="M1708.7,888l-.43-.72-2.43-.72-3.87-2.29-3.29-3.3-.43-1.15-1.43-1.15-.43-1.86-1.86-3.87v-3.01h-1.43v-3.01l-.43-.72v-1.15l-.72-1.43v-1.86l-.72-1.86v-13.47l-1.15-4.01v-25.93l.72-2.29v-4.44l1.86-3.72,1.58-4.16,2.15-2.86,1.15-1.15,3.01-4.58,5.87-2.72h1.15l1.15-.72h.72l4.87-2.44h7.45l2.44,1.29h2.58l1.86,1.86h2.29l6.73,3.87,1,1.58h.43l1.58,4.73,1,.86h.72l.43,1.86,2.72,2.87,1,5.73v1.43l.72,1.86v3.72h1.15v4.44l-.43,1.15.43.72v6.73l.72,2.43-.72,1.86.72,3.01v.72l.72,1.43-1,2.15,1.43,1.29v8.17l-1,1.86,1,1.86-.43,1.15.43,1.43v3.72l-1.15,2.29-1.15,4.44v1.86l-1.43,2.44-1.15,3.01-3.01,3.3-1.86,3.29-7.02,3.44h-1.58l-4.73,1.86h-9.74l-2.43-.72-6.3-.43ZM1719.3,879.11h6.73l1.86-.43h1l4.15-2.72,1.15-2.44,1.86-.86v-1.58l3.01-5.59v-10.46l.72-3.72v-2.58l1.15-2.29v-6.3l-1.58-9.45,1.15-3.01.86-5.59-1.58-3.01v-8.17l-1.15-.72v-1.86l-1.86-1.86-4.44-5.73-3.3-1-1.86-1.15-1.58.72-4.87-1.58-1.43,1.29h-5.01l-3.72,1.86-3.01,3.3-1.15.43-2.86,4.3-1.15,5.73-.43.72v8.6l-.72,1.86v19.2l-.72.72v13.04l.72,1.15v2.58l2.58,2.58v4.16l1.15,1.29.86,3.29,2.43,1.15,5.3,3.58,5.73.57ZM1705.69,777.55v-3.3l1.15-1.86h1.43l3.01-1.15h4.3l3.72-1.86,2.44-.72,3.58-1.86h2.58l2.58-.43h1.15l1.86-.72.72.72,1.15.43.72,1.43.72.43v3.29l-1.43,1.86-6.45.72-5.44,3.44h-5.44l-5.59,1.86h-5.16l-1.58-2.29Z"/>
    <path class="st0" d="M1770.72,886.85l-.43-.72v-3.01l-1.15-4.58,1.15-5.44-.72-.72v-8.6l-.72-2.43v-2.58l-.43-1.86v-34.09l.43-2.29-.43-1.43v-17.48l-.86-6.16,1.29-3.01,1.86-1.29h7.02l1.86,1.86,1.15,2.58.72.43.43,1.43,4.01,5.59,3.58,6.73.57,1.86,1.86,1.86,3.72,7.45,1.29,1.86.57,1.86,1.29,1.86,1.86,3.72,2.29,2.43,3.72,9.31,1.43,1.86,2.29,5.16,1.43,1.86.43,1.15,1.43,1.86v.72l1.86,1.86h3.01v-3.29l.72-.43v-12.61l-.72-1.15v-10.03l.72-.57v-6.73l-.72-3.01v-6.3l-.72-4.16.72-2.15.72-6.73v-7.16l1.86-1h3.72l3.01,1.72v12.03l.72,3.72v5.59l.72,7.59-.72,3.58v3.58l-1,1,1,1.58v2.29l1.58,7.02-1.86,13.9,1,2.86-.72,5.59,1.15,2.43v19.77l-3.01,3.3h-1.15l-4.3.72-3.15-1.15-1.43-2.86h-.43v-1.15l-1.43-1.86v-1.43l-3.72-6.73-.72-.72-.43-1.72-1.43-.57-1.15-3.15-1.86-3.01-1.15-2.58-6.3-9.31-.57-1.86-1.29-1.86-1.15-3.72-.72-.43-.57-1.43-1.72-1.58-5.01-8.88-.72-1.86-1.86-3.15-1.86-3.72h-2.58v6.16l-.43,3.72,1.15,10.74-.72,4.15-.43,1.43.43.43v22.92l-.43,2.58.43,2.58v4.15l-1.86,6.3h-7.45v-3.01Z"/>
  </g>
  <path class="st0" d="M793.05,523.26h10.1l17.31,30.12,17.31-30.12h10.1l-23.01,39.85v30.68h-8.79v-30.68l-23.01-39.85Z"/>
  <g>
    <path class="st0" d="M378.77,647.53v20.6h22.3v9.11h-22.3v21.9h28.9v9.2h-38.41v-70h38.41v9.2h-28.9Z"/>
    <path class="st0" d="M526.51,647.62h-17.3v60.7h-9.5v-60.7h-17.7v-9.29h44.5v9.29Z"/>
    <path class="st0" d="M543.42,637.77h9.51v70h-9.51v-70Z"/>
    <path class="st0" d="M624.22,637.77l-29.9,71.11h-1.41l-29.9-71.11h10.4l20.21,51.1,20.2-51.1h10.4Z"/>
    <path class="st0" d="M330.1,681.42h-8.8v26.9h-9.51v-70h19c4.59,0,8.62,1,12.05,3,3.44,2,6.07,4.67,7.9,8,1.83,3.33,2.75,6.86,2.75,10.61,0,4.67-1.25,8.82-3.74,12.45-2.5,3.64-5.99,6.21-10.45,7.75l17.01,28.2h-10.79l-15.4-26.9h-.01ZM321.29,672.21h9.11c4,0,7.25-1.15,9.76-3.45,2.5-2.3,3.74-5.26,3.74-8.85s-1.25-6.64-3.74-8.9c-2.5-2.27-5.75-3.4-9.76-3.4h-9.11v24.6Z"/>
    <path class="st0" d="M466.99,692.81h-30l-6.2,14.9h-10.5l30.91-71h1.41l31,71h-10.4l-6.2-14.9h-.01ZM463.19,683.61l-11.2-27-11.2,27h22.4-.01Z"/>
    <path class="st0" d="M258.14,704.57c-5.43-3.3-9.64-7.71-12.6-13.25-2.96-5.53-4.45-11.54-4.45-18s1.49-12.47,4.45-18c2.96-5.54,7.17-9.96,12.6-13.25,5.43-3.3,11.68-4.95,18.75-4.95,6.2,0,11.7,1.24,16.5,3.7v10.7c-4.33-3.46-9.8-5.2-16.4-5.2-5.07,0-9.6,1.24-13.61,3.7-4,2.47-7.1,5.76-9.31,9.9-2.2,4.13-3.3,8.6-3.3,13.4s1.1,9.27,3.3,13.4c2.2,4.13,5.3,7.43,9.31,9.9,4,2.47,8.53,3.7,13.61,3.7,6.6,0,12.07-1.74,16.4-5.2v10.7c-4.79,2.47-10.3,3.7-16.5,3.7-7.06,0-13.32-1.65-18.75-4.95h0Z"/>
    <path class="st0" d="M639.3,638.33h9.51v70h-9.51v-70Z"/>
    <path class="st0" d="M766.56,692.81h-30l-6.2,14.9h-10.5l30.91-71h1.41l31,71h-10.4l-6.2-14.9h-.01ZM762.76,683.61l-11.2-27-11.2,27h22.4-.01Z"/>
    <path class="st0" d="M702.39,641.8c5.3,3.07,9.37,7.25,12.2,12.55,2.83,5.3,4.25,11.18,4.25,17.66s-1.42,12.47-4.25,17.8c-2.83,5.34-6.9,9.57-12.2,12.7-5.3,3.13-11.51,4.7-18.65,4.7h-18.4v-70h18.4c7.13,0,13.35,1.54,18.65,4.61h0ZM697.38,694.41c3.84-2.34,6.77-5.47,8.8-9.4,2.03-3.93,3.05-8.27,3.05-13s-1.02-9.13-3.05-13c-2.03-3.86-4.97-6.92-8.8-9.15-3.84-2.23-8.35-3.35-13.55-3.35h-9v51.4h9c5.2,0,9.72-1.17,13.55-3.5h0Z"/>
    <path class="st0" d="M831.41,642.92c5.3,3.07,9.37,7.25,12.2,12.55,2.83,5.3,4.25,11.18,4.25,17.66s-1.42,12.47-4.25,17.8c-2.83,5.34-6.9,9.57-12.2,12.7-5.3,3.13-11.51,4.7-18.65,4.7h-18.4v-70h18.4c7.13,0,13.35,1.54,18.65,4.61h0ZM826.41,695.52c3.84-2.34,6.77-5.47,8.8-9.4,2.03-3.93,3.05-8.27,3.05-13s-1.02-9.13-3.05-13c-2.03-3.86-4.97-6.92-8.8-9.15-3.84-2.23-8.35-3.35-13.55-3.35h-9v51.4h9c5.2,0,9.72-1.17,13.55-3.5h0Z"/>
  </g>
</svg>