<?xml version="1.0" encoding="UTF-8"?>
<svg id="Capa_1" xmlns="http://www.w3.org/2000/svg" version="1.1" viewBox="0 0 1920 1080">
  <!-- Generator: Adobe Illustrator 30.3.0, SVG Export Plug-In . SVG Version: 2.1.3 Build 182)  -->
  <defs>
    <style>
      .st0 {
        fill: #ede6dc;
      }
    </style>
  </defs>
  <g>
    <path class="st0" d="M1381.34,855.35h-13.59v-7.9c7.36-.26,13.94-2.98,15.17-10.7h10.44v60.52h-12.02v-41.93Z"/>
    <path class="st0" d="M1429.57,884.21h-27.72v-12.89l27.28-34.82h12.1v38.15h9.12v9.56h-9.12v13.07h-11.67v-13.07ZM1411.5,874.64h18.07v-23.33h-.18l-17.89,23.07v.26Z"/>
  </g>
  <path class="st0" d="M1480.16,872.19h-.18c-1.93,2.81-5.18,5.26-11.4,5.26-7.89,0-14.03-4.39-14.03-12.28,0-8.6,6.84-11.4,16.23-12.63,6.58-.88,9.21-1.58,9.21-4.39s-2.02-4.47-6.23-4.47c-4.82,0-7.01,1.93-7.37,5.35h-10c.35-6.93,5.79-13.07,17.36-13.07s17.11,5.35,17.11,14.56v20.18c0,2.98.44,4.74,1.32,5.35v.53h-10.7c-.62-.79-1.05-2.63-1.32-4.39ZM1480.25,862.63v-5.96c-1.84,1.05-4.38,1.67-7.01,2.28-5.26,1.14-7.81,2.63-7.81,5.96s2.37,5,5.79,5c5.79,0,9.03-3.51,9.03-7.28Z"/>
  <g>
    <path class="st0" d="M1529.79,834.56h46.14v10.7h-33.42v14.04h29.3v10.44h-29.3v16.93h33.68v10.61h-46.4v-62.72Z"/>
    <path class="st0" d="M1580.11,874.82c0-14.03,7.98-23.77,19.21-23.77,6.31,0,10.26,2.89,12.72,6.67h.27v-23.16h11.93v62.72h-11.49v-5.88h-.18c-2.63,4.3-7.11,7.19-13.42,7.19-11.32,0-19.03-9.21-19.03-23.77ZM1612.57,875.08c0-8.6-2.81-14.38-10.44-14.38-6.58,0-9.91,5.79-9.91,14.12s3.42,13.77,9.56,13.77c7.11,0,10.79-5.26,10.79-13.51Z"/>
    <path class="st0" d="M1631.94,834.56h11.93v10.7h-11.93v-10.7ZM1631.94,852.28h11.93v45h-11.93v-45Z"/>
    <path class="st0" d="M1649.38,874.82c0-13.42,8.77-23.77,22.46-23.77,11.67,0,18.86,6.75,20.44,16.49h-11.67c-.79-3.95-3.86-6.93-8.25-6.93-7.19,0-10.88,5.53-10.88,14.21s3.42,14.21,10.7,14.21c4.83,0,8.25-2.54,9.03-7.63h11.49c-.79,9.56-8.25,17.19-20.26,17.19-14.21,0-23.07-10.35-23.07-23.77Z"/>
    <path class="st0" d="M1697.87,834.56h11.93v10.7h-11.93v-10.7ZM1697.87,852.28h11.93v45h-11.93v-45Z"/>
    <path class="st0" d="M1715.32,874.82c0-13.42,9.56-23.77,23.51-23.77s23.51,10.35,23.51,23.77-9.56,23.77-23.51,23.77-23.51-10.35-23.51-23.77ZM1750.23,874.82c0-8.77-4.12-14.74-11.4-14.74s-11.4,5.96-11.4,14.74,4.04,14.65,11.4,14.65,11.4-5.88,11.4-14.65ZM1743.39,846.66h-9.3l4.82-12.37h13.95l-9.47,12.37Z"/>
    <path class="st0" d="M1779.51,858.42h.26c3.07-4.83,7.2-7.37,13.34-7.37,9.3,0,15.53,7.02,15.53,16.84v29.38h-11.93v-27.63c0-4.83-2.8-8.25-7.81-8.25-5.26,0-9.12,4.21-9.12,10.35v25.53h-11.93v-45h11.67v6.14Z"/>
  </g>
  <path class="st0" d="M929.66,973.99c0,6.02,3.01,12.96,8.87,12.96,1.93,0,2.47-.08,3.39-.31.31.15.39.62.23.93-1.55,1.31-3.94,2.24-6.95,2.24-6.25,0-11.73-5.01-11.73-13.04,0-9.26,7.02-15.74,15.82-15.74,9.65,0,15.36,8.33,15.36,19.67,0,8.41-3.47,18.44-11.34,25.46-5.71,5.09-13.19,7.94-18.36,8.87-.62-.23-.85-1.39-.46-1.77,4.63-1.39,8.49-3.24,11.42-5.4,7.1-5.24,11.88-13.19,11.88-27.78,0-7.02-2-16.74-9.49-16.74-4.94,0-8.64,3.78-8.64,10.65Z"/>
  <path class="st0" d="M1006.28,985.79v3.78h-38.58v-3.78h38.58Z"/>
  <path class="st0" d="M1021.71,974.76c0-5.25-.23-6.95-3.7-7.26l-3.71-.31c-.62-.31-.69-1.39-.08-1.7,6.48-1.16,10.72-3.16,12.73-4.47.31,0,.62.15.77.39-.15,1.39-.31,5.25-.31,9.64v29.94c0,5.94.15,7.25,3.32,7.49l3.24.23c.46.46.39,1.7-.15,1.93-3.01-.16-6.48-.23-9.18-.23s-6.25.08-9.26.23c-.54-.23-.62-1.47-.16-1.93l3.16-.23c3.24-.23,3.32-1.55,3.32-7.49v-26.23Z"/>
  <g>
    <path class="st0" d="M1043.39,1009.94c0-1.54,1.16-3.01,3.01-3.01s2.85,1.55,3.7,2.78c1,1.47,1.93,2.32,4.09,2.32,5.01,0,13.81-6.56,13.81-15.12,0-6.79-3.24-12.58-9.95-12.58-3.78,0-6.56,1.85-8.33,3.78-1.24-.15-2.16-1.23-1.7-2.7,2.93-1.31,9.26-4.17,12.35-6.71,1.7-1.39,4.09-3.7,4.09-7.4,0-4.09-2.85-6.64-6.33-6.64-4.55,0-8.02,2.85-10.41,6.79-.77.16-1.62-.31-1.62-1.08,2.39-5.4,8.02-9.34,13.96-9.34,6.33,0,10.72,3.4,10.72,8.87,0,3.16-1.24,6.17-8.25,9.88-.39.77,0,1.08.93,1.15,5.86.46,11.19,4.55,11.19,11.88,0,5.55-2.7,11.11-7.49,15.28-5.71,5.01-12.35,6.64-16.13,6.64-3.47,0-7.64-1.16-7.64-4.78Z"/>
    <path class="st0" d="M1136.91,999.14c0,6.09.08,8.95,2.24,8.95.85,0,2.16-.39,3.32-.77.54.15.62,2.08-.08,2.47-3.24.46-8.02,1.62-10.19,2.47-.46,0-.85-.23-.85-.62v-1.31c0-1.16,0-2.08-.16-2.39h-.31c-3.39,2.31-6.02,3.55-9.72,3.55-8.56,0-14.27-6.71-14.27-14.81,0-10.8,8.18-17.74,18.67-17.74,2.62,0,4.32.39,5.17.69.39,0,.46-.46.46-1.08v-11.65c0-4.55-.08-5.01-2.39-6.4l-.77-.46c-.39-.23-.39-1.31,0-1.55,1.93-.62,5.55-1.77,8.33-3.24.31,0,.62.15.77.46-.08,2.31-.23,6.17-.23,9.57v33.87ZM1131.2,987.57c0-1.54-.31-2.24-.85-3.01-1.15-1.62-3.47-3.24-6.48-3.24-7.02,0-10.65,6.1-10.65,12.81s3.94,13.65,11.5,13.65c2.08,0,4.7-.93,5.94-2.16.46-.46.54-1.62.54-2.85v-15.2Z"/>
    <path class="st0" d="M1156.59,990.65c-2,0-2.08.15-2.08,2.08,0,7.79,4.55,14.43,12.81,14.43,2.55,0,4.71-.77,7.1-3.78.77-.23,1.31.23,1.39.93-2.55,5.25-8.1,7.18-12.11,7.18-5.01,0-8.95-2.16-11.19-5.09-2.31-3.01-3.24-6.64-3.24-10.03,0-9.49,6.25-17.44,15.51-17.44,6.63,0,10.95,4.55,10.95,9.18,0,1.08-.15,1.7-.31,2.01-.23.46-1.31.54-4.55.54h-14.27ZM1161.37,988.34c5.71,0,7.41-.31,8.02-.77.23-.15.46-.46.46-1.46,0-2.16-1.46-4.86-5.94-4.86s-8.49,4.17-8.56,6.71c0,.15,0,.39.54.39h5.48Z"/>
    <path class="st0" d="M1235.21,999.14c0,6.09.08,8.95,2.24,8.95.85,0,2.16-.39,3.32-.77.54.15.62,2.08-.08,2.47-3.24.46-8.02,1.62-10.19,2.47-.46,0-.85-.23-.85-.62v-1.31c0-1.16,0-2.08-.16-2.39h-.31c-3.39,2.31-6.02,3.55-9.72,3.55-8.56,0-14.27-6.71-14.27-14.81,0-10.8,8.18-17.74,18.67-17.74,2.62,0,4.32.39,5.17.69.39,0,.46-.46.46-1.08v-11.65c0-4.55-.08-5.01-2.39-6.4l-.77-.46c-.39-.23-.39-1.31,0-1.55,1.93-.62,5.55-1.77,8.33-3.24.31,0,.62.15.77.46-.08,2.31-.23,6.17-.23,9.57v33.87ZM1229.5,987.57c0-1.54-.31-2.24-.85-3.01-1.15-1.62-3.47-3.24-6.48-3.24-7.02,0-10.65,6.1-10.65,12.81s3.94,13.65,11.5,13.65c2.08,0,4.7-.93,5.94-2.16.46-.46.54-1.62.54-2.85v-15.2Z"/>
    <path class="st0" d="M1252.42,988.26c0-3.01,0-3.4-2.08-4.78l-.69-.46c-.31-.31-.31-1.16.08-1.39,1.77-.62,6.17-2.62,7.95-3.78.38,0,.69.16.77.47-.15,2.7-.31,6.4-.31,9.57v13.89c0,5.55.15,6.33,2.93,6.71l1.62.23c.54.39.39,1.7-.16,1.93-2.31-.16-4.55-.23-7.25-.23s-5.09.08-7.25.23c-.54-.23-.7-1.55-.15-1.93l1.62-.23c2.86-.39,2.93-1.16,2.93-6.71v-13.5ZM1258.82,966.28c0,2.78-1.93,4.01-4.09,4.01-2.39,0-3.94-1.77-3.94-3.86,0-2.55,1.85-4.17,4.17-4.17s3.86,1.85,3.86,4.01Z"/>
    <path class="st0" d="M1296.09,980.24c.62.54,1.16,1.77,1.16,3.09,0,1.39-.77,2.85-1.7,2.85-.39,0-.77-.15-1.08-.54-1.69-2.08-4.55-4.09-7.71-4.09-5.4,0-10.64,4.24-10.64,12.42,0,6.02,4.17,13.2,12.42,13.2,4.47,0,6.79-2.01,8.56-4.63.62-.15,1.31.39,1.39,1.08-2.62,5.71-8.41,7.87-12.88,7.87-4.09,0-7.87-1.31-10.57-3.93-2.7-2.62-4.47-6.41-4.47-11.42,0-8.33,5.86-17.2,18.67-17.2,1.77,0,4.78.39,6.87,1.31Z"/>
    <path class="st0" d="M1309.21,988.26c0-3.01,0-3.4-2.08-4.78l-.69-.46c-.31-.31-.31-1.16.08-1.39,1.77-.62,6.17-2.62,7.95-3.78.38,0,.69.16.77.47-.15,2.7-.31,6.4-.31,9.57v13.89c0,5.55.15,6.33,2.93,6.71l1.62.23c.54.39.39,1.7-.16,1.93-2.31-.16-4.55-.23-7.25-.23s-5.09.08-7.25.23c-.54-.23-.7-1.55-.15-1.93l1.62-.23c2.86-.39,2.93-1.16,2.93-6.71v-13.5ZM1315.61,966.28c0,2.78-1.93,4.01-4.09,4.01-2.39,0-3.94-1.77-3.94-3.86,0-2.55,1.85-4.17,4.17-4.17s3.86,1.85,3.86,4.01Z"/>
    <path class="st0" d="M1334.59,990.65c-2,0-2.08.15-2.08,2.08,0,7.79,4.55,14.43,12.81,14.43,2.55,0,4.71-.77,7.1-3.78.77-.23,1.31.23,1.39.93-2.55,5.25-8.1,7.18-12.11,7.18-5.01,0-8.95-2.16-11.19-5.09-2.31-3.01-3.24-6.64-3.24-10.03,0-9.49,6.25-17.44,15.51-17.44,6.63,0,10.95,4.55,10.95,9.18,0,1.08-.15,1.7-.31,2.01-.23.46-1.31.54-4.55.54h-14.27ZM1339.38,988.34c5.71,0,7.41-.31,8.02-.77.23-.15.46-.46.46-1.46,0-2.16-1.46-4.86-5.94-4.86s-8.49,4.17-8.56,6.71c0,.15,0,.39.54.39h5.48Z"/>
    <path class="st0" d="M1406.66,990.58c0-5.25-2.31-7.95-7.18-7.95-2.93,0-5.32,1.31-6.4,2.7-.93,1.16-1.16,1.93-1.16,4.63v11.81c0,5.55.15,6.33,2.93,6.71l1.62.23c.54.39.39,1.7-.15,1.93-2.31-.16-4.55-.23-7.25-.23s-4.86.08-7.02.23c-.54-.23-.69-1.55-.15-1.93l1.39-.23c2.85-.46,2.93-1.16,2.93-6.71v-11.19c0-5.17-2.31-7.95-7.09-7.95-3.16,0-5.32,1.39-6.48,2.78-.77.93-1.15,1.93-1.15,4.4v11.96c0,5.55.15,6.25,2.93,6.71l1.39.23c.54.39.39,1.7-.15,1.93-2.08-.16-4.32-.23-7.02-.23s-5.09.08-7.48.23c-.54-.23-.7-1.55-.16-1.93l1.85-.23c2.86-.39,2.93-1.16,2.93-6.71v-13.5c0-3.01,0-3.4-2.08-4.78l-.69-.46c-.31-.31-.31-1.16.08-1.39,1.77-.62,6.17-2.62,7.71-3.78.31,0,.7.16.85.54-.15,1.77-.15,2.93-.15,3.63,0,.46.31.85.85.85,2.93-2.08,6.56-3.94,10.26-3.94s6.02,1.39,8.18,4.55c.69.15,1.23-.15,1.93-.62,3.09-2.16,6.87-3.94,10.49-3.94,6.17,0,9.18,4.24,9.18,9.57v13.27c0,5.55.15,6.33,2.93,6.71l1.85.23c.54.39.39,1.7-.15,1.93-2.55-.16-4.78-.23-7.49-.23s-4.86.08-7.02.23c-.54-.23-.7-1.55-.16-1.93l1.39-.23c2.86-.46,2.93-1.16,2.93-6.71v-11.19Z"/>
    <path class="st0" d="M1427.8,966.89c0-4.55-.08-5.01-2.39-6.4l-.77-.46c-.39-.23-.39-1.31,0-1.55,1.77-.69,5.48-1.69,8.41-3.24.31,0,.62.15.77.46-.15,2.7-.31,6.17-.31,9.57v14.58c0,1.31.31,1.62.77,1.62,2.01-1.16,5.09-2.55,8.87-2.55,8.8,0,14.74,6.64,14.74,15.12,0,10.26-7.41,17.43-17.75,17.43-2.85,0-5.01-.54-6.56-1-1.62-.54-2.62-1-3.24-1s-1.24.62-1.62,1.16c-.08.08-.15.08-.31.08-.31,0-.62-.16-.77-.46.08-1.08.15-2.55.15-6.56v-36.8ZM1433.51,999.91c0,2.7.62,5.09,1.93,6.71,1.31,1.62,3.39,2.54,5.86,2.54,7.25,0,10.1-6.17,10.1-12.81,0-7.95-4.09-14.12-11.73-14.12-2.31,0-4.17.54-5.24,1.24-.77.54-.93,1.39-.93,4.4v12.04Z"/>
    <path class="st0" d="M1471.17,988.26c0-3.01,0-3.4-2.08-4.78l-.69-.46c-.31-.31-.31-1.16.08-1.39,1.77-.62,5.86-2.62,7.79-3.78.39.08.62.23.62.54v4.47c0,.38.08.62.23.69,2.7-2.24,5.63-4.63,8.49-4.63,1.93,0,3.47,1.24,3.47,3.09,0,2.54-2.08,3.55-3.32,3.55-.77,0-1.15-.23-1.69-.54-1.16-.77-2.32-1.23-3.4-1.23-1.24,0-2.16.69-2.78,1.54-.77,1.08-1,3.32-1,5.94v10.5c0,5.55.15,6.48,3.08,6.71l2.78.23c.54.39.38,1.7-.16,1.93-3.63-.16-5.86-.23-8.56-.23s-5.09.08-7.1.23c-.54-.23-.69-1.55-.15-1.93l1.46-.23c2.86-.46,2.93-1.16,2.93-6.71v-13.5Z"/>
    <path class="st0" d="M1501.57,990.65c-2,0-2.08.15-2.08,2.08,0,7.79,4.55,14.43,12.81,14.43,2.55,0,4.71-.77,7.1-3.78.77-.23,1.31.23,1.39.93-2.55,5.25-8.1,7.18-12.11,7.18-5.01,0-8.95-2.16-11.19-5.09-2.31-3.01-3.24-6.64-3.24-10.03,0-9.49,6.25-17.44,15.51-17.44,6.63,0,10.95,4.55,10.95,9.18,0,1.08-.15,1.7-.31,2.01-.23.46-1.31.54-4.55.54h-14.27ZM1506.35,988.34c5.71,0,7.41-.31,8.02-.77.23-.15.46-.46.46-1.46,0-2.16-1.46-4.86-5.94-4.86s-8.49,4.17-8.56,6.71c0,.15,0,.39.54.39h5.48Z"/>
    <path class="st0" d="M1580.19,999.14c0,6.09.08,8.95,2.24,8.95.85,0,2.16-.39,3.32-.77.54.15.62,2.08-.08,2.47-3.24.46-8.02,1.62-10.19,2.47-.46,0-.85-.23-.85-.62v-1.31c0-1.16,0-2.08-.16-2.39h-.31c-3.39,2.31-6.02,3.55-9.72,3.55-8.56,0-14.27-6.71-14.27-14.81,0-10.8,8.18-17.74,18.67-17.74,2.62,0,4.32.39,5.17.69.39,0,.46-.46.46-1.08v-11.65c0-4.55-.08-5.01-2.39-6.4l-.77-.46c-.39-.23-.39-1.31,0-1.55,1.93-.62,5.55-1.77,8.33-3.24.31,0,.62.15.77.46-.08,2.31-.23,6.17-.23,9.57v33.87ZM1574.48,987.57c0-1.54-.31-2.24-.85-3.01-1.15-1.62-3.47-3.24-6.48-3.24-7.02,0-10.65,6.1-10.65,12.81s3.94,13.65,11.5,13.65c2.08,0,4.7-.93,5.94-2.16.46-.46.54-1.62.54-2.85v-15.2Z"/>
    <path class="st0" d="M1599.87,990.65c-2,0-2.08.15-2.08,2.08,0,7.79,4.55,14.43,12.81,14.43,2.55,0,4.71-.77,7.1-3.78.77-.23,1.31.23,1.39.93-2.55,5.25-8.1,7.18-12.11,7.18-5.01,0-8.95-2.16-11.19-5.09-2.31-3.01-3.24-6.64-3.24-10.03,0-9.49,6.25-17.44,15.51-17.44,6.63,0,10.95,4.55,10.95,9.18,0,1.08-.15,1.7-.31,2.01-.23.46-1.31.54-4.55.54h-14.27ZM1604.66,988.34c5.71,0,7.41-.31,8.02-.77.23-.15.46-.46.46-1.46,0-2.16-1.46-4.86-5.94-4.86s-8.49,4.17-8.56,6.71c0,.15,0,.39.54.39h5.48Z"/>
    <path class="st0" d="M1670.16,1005.62c3.55,0,5.86-.46,7.25-1.69,1.47-1.31,2.01-2.32,2.47-3.16.54-.23,1.39,0,1.7.46-1,3.86-2.39,7.87-3.55,9.41-3.16-.16-6.4-.23-9.95-.23h-11.19c-4.32,0-6.87.08-8.56.23-.16-.08-.54-.39-.54-1.01,0-.23.39-.54.85-.85,3.55-2.31,6.1-4.94,11.81-11.11,5.09-5.48,11.03-12.96,11.03-21.22,0-7.02-3.39-11.26-9.64-11.26-4.63,0-7.95,3.16-10.03,7.71-.69.39-1.85,0-1.85-1,2.47-6.79,8.56-10.88,15.51-10.88,7.71,0,12.73,5.17,12.73,12.58,0,4.78-2.24,10.03-8.25,16.97l-4.71,5.4c-6.33,7.25-7.02,8.49-7.02,8.95,0,.54.39.69,2.39.69h9.57Z"/>
    <path class="st0" d="M1722.63,986.26c0,12.11-4.71,25.23-15.97,25.23s-15.97-13.11-15.97-25.23,4.71-25.23,15.97-25.23,15.97,13.58,15.97,25.23ZM1697.56,986.26c0,7.25.62,22.91,9.1,22.91s9.1-15.66,9.1-22.91-.62-22.91-9.1-22.91-9.1,15.66-9.1,22.91Z"/>
    <path class="st0" d="M1753.42,1005.62c3.55,0,5.86-.46,7.25-1.69,1.47-1.31,2.01-2.32,2.47-3.16.54-.23,1.39,0,1.7.46-1,3.86-2.39,7.87-3.55,9.41-3.16-.16-6.4-.23-9.95-.23h-11.19c-4.32,0-6.87.08-8.56.23-.16-.08-.54-.39-.54-1.01,0-.23.39-.54.85-.85,3.55-2.31,6.1-4.94,11.81-11.11,5.09-5.48,11.03-12.96,11.03-21.22,0-7.02-3.39-11.26-9.64-11.26-4.63,0-7.95,3.16-10.03,7.71-.69.39-1.85,0-1.85-1,2.47-6.79,8.56-10.88,15.51-10.88,7.71,0,12.73,5.17,12.73,12.58,0,4.78-2.24,10.03-8.25,16.97l-4.71,5.4c-6.33,7.25-7.02,8.49-7.02,8.95,0,.54.39.69,2.39.69h9.57Z"/>
    <path class="st0" d="M1784.06,968.05c8.02-7.87,17.44-10.34,22.14-10.96.54.23.7,1.24.31,1.62-4.94,1.7-11.57,3.94-17.13,9.88-6.56,6.94-8.8,15.43-8.8,23.38,0,8.95,3.09,17.2,10.72,17.2,5.79,0,8.72-5.24,8.72-11.8s-2.93-12.89-9.49-12.89c-1.54,0-2.78.39-3.55.62-.46-.23-.54-.77-.23-1.24,2.24-1.39,4.55-2.31,7.56-2.31,7.4,0,12.27,5.94,12.27,13.81,0,9.03-6.64,16.13-16.28,16.13-11.26,0-16.59-8.79-16.59-19.29,0-6.56,2.16-16.12,10.34-24.15Z"/>
  </g>
  <path class="st0" d="M998.84,154.28h31.13v145.68h84.18v28.64h-115.31v-174.32ZM1118.62,241.45c0-13.61,2.03-25.98,6.1-37.11,4.07-11.11,9.93-20.63,17.56-28.51,7.64-7.88,16.85-13.98,27.65-18.31,10.79-4.31,22.99-6.48,36.61-6.48s25.86,2.16,36.73,6.48c10.87,4.31,20.13,10.41,27.77,18.31,7.64,7.88,13.5,17.4,17.57,28.51,4.07,11.13,6.09,23.5,6.09,37.11s-2.03,25.98-6.09,37.11c-4.07,11.13-9.93,20.68-17.57,28.64-7.64,7.97-16.9,14.12-27.77,18.43-10.87,4.31-23.13,6.48-36.73,6.48s-25.81-2.17-36.61-6.48c-10.8-4.31-20.01-10.46-27.65-18.43-7.64-7.97-13.49-17.52-17.56-28.64-4.07-11.11-6.1-23.49-6.1-37.11M1149.76,241.45c0,9.47,1.28,18.05,3.86,25.78,2.58,7.71,6.26,14.24,11.08,19.55,4.82,5.32,10.75,9.42,17.81,12.33,7.06,2.91,15.07,4.36,24.03,4.36s16.97-1.45,24.03-4.36c7.06-2.9,13.04-7.01,17.93-12.33,4.9-5.31,8.63-11.83,11.21-19.55,2.58-7.71,3.86-16.31,3.86-25.78s-1.28-18.01-3.86-25.65c-2.58-7.64-6.31-14.1-11.21-19.43-4.89-5.3-10.87-9.42-17.93-12.33-7.06-2.9-15.06-4.36-24.03-4.36s-16.99,1.45-24.03,4.36c-7.06,2.91-12.99,7.01-17.81,12.33-4.82,5.32-8.51,11.79-11.08,19.43-2.58,7.64-3.86,16.19-3.86,25.65M1436.41,278.06c0,7.47-1.25,14.48-3.74,21.04-2.48,6.56-6.26,12.2-11.33,16.94-5.06,4.73-11.45,8.46-19.18,11.2-7.72,2.74-16.9,4.12-27.52,4.12-7.8,0-15.03-.7-21.67-2.12-6.65-1.4-12.75-3.32-18.31-5.73-5.57-2.41-10.58-5.14-15.07-8.22-4.48-3.07-8.39-6.19-11.71-9.35l19.67-21.42c6.8,5.81,13.95,10.29,21.42,13.45,7.47,3.16,15.93,4.73,25.4,4.73,5.98,0,10.96-.66,14.94-1.99,3.98-1.33,7.18-3.04,9.59-5.11,2.41-2.07,4.07-4.48,4.99-7.23.91-2.74,1.37-5.44,1.37-8.09,0-5.14-1.37-9.38-4.12-12.7-2.74-3.33-6.39-6.1-10.96-8.34-4.57-2.24-9.76-4.15-15.57-5.73-5.81-1.57-11.75-3.2-17.81-4.87-6.07-1.66-12-3.61-17.81-5.85-5.81-2.24-11.01-5.11-15.56-8.6-4.57-3.49-8.22-7.85-10.97-13.08-2.74-5.23-4.12-11.74-4.12-19.54,0-7.31,1.33-14.03,3.98-20.17,2.65-6.14,6.51-11.42,11.59-15.81,5.06-4.39,11.37-7.85,18.92-10.34,7.55-2.48,16.22-3.73,26.03-3.73,13.45,0,25.61,2.2,36.49,6.6,10.87,4.41,20.29,10,28.26,16.82l-18.17,22.66c-7.97-6.31-15.73-10.8-23.28-13.45-7.56-2.65-15.23-3.98-23.04-3.98-10.46,0-18.02,1.83-22.66,5.47-4.65,3.66-6.97,8.14-6.97,13.45,0,4.31,1.37,7.88,4.12,10.7,2.74,2.82,6.39,5.18,10.97,7.1,4.56,1.91,9.76,3.57,15.56,4.99,5.81,1.42,11.74,2.99,17.81,4.73,6.05,1.74,12,3.83,17.81,6.22,5.81,2.41,10.99,5.56,15.57,9.47,4.56,3.91,8.22,8.75,10.96,14.58,2.74,5.81,4.12,12.87,4.12,21.16v.05ZM998.1,467.84c0-13.62,2.03-25.98,6.1-37.11,4.07-11.11,9.92-20.63,17.56-28.51,7.64-7.88,16.85-13.98,27.64-18.31,10.8-4.32,22.99-6.48,36.61-6.48,15.6,0,29.26,2.77,40.97,8.34,11.71,5.56,21.54,13.33,29.52,23.28l-25.4,17.43c-5.32-6.48-11.67-11.5-19.06-15.07-7.4-3.56-16.07-5.35-26.03-5.35-8.97,0-16.99,1.45-24.03,4.36-7.06,2.91-12.99,7.01-17.81,12.33s-8.51,11.79-11.08,19.43c-2.58,7.64-3.86,16.19-3.86,25.64s1.28,18.02,3.86,25.65c2.58,7.64,6.27,14.12,11.08,19.42,4.82,5.32,10.75,9.42,17.81,12.34,7.06,2.91,15.06,4.36,24.03,4.36,9.96,0,18.63-1.78,26.03-5.35,7.38-3.57,13.73-8.6,19.06-15.06l25.4,17.43c-7.97,9.96-17.81,17.73-29.52,23.28-11.71,5.56-25.37,8.34-40.97,8.34-13.62,0-25.81-2.16-36.61-6.48-10.79-4.31-20-10.41-27.64-18.31-7.64-7.88-13.49-17.39-17.56-28.51-4.07-11.11-6.1-23.49-6.1-37.11v.03ZM1224.48,380.67h32.63l59.77,174.33h-32.63l-14.44-46.08h-58.03l-14.44,46.08h-32.63l59.77-174.33ZM1260.57,480.29h.02l-19.93-63.26-19.93,63.26h39.84M1328.83,380.67h83.67c7.14,0,13.57,1.11,19.3,3.37,5.74,2.24,10.58,5.44,14.58,9.59,3.98,4.15,7.06,9.01,9.21,14.58,2.15,5.57,3.23,11.74,3.23,18.56,0,8.46-1.62,15.4-4.87,20.8-3.23,5.4-7.52,9.51-12.82,12.33,4.15,1.33,8.05,3.23,11.71,5.73,3.65,2.49,6.85,5.57,9.59,9.21,2.74,3.66,4.89,7.88,6.48,12.7,1.57,4.82,2.37,10.29,2.37,16.44,0,7.47-1.21,14.32-3.61,20.55-2.41,6.22-5.86,11.62-10.34,16.19-4.48,4.57-9.93,8.1-16.31,10.58-6.39,2.48-13.57,3.73-21.54,3.73h-90.66v-174.33l.02-.03ZM1408.53,447.91c5.81,0,10.46-1.74,13.95-5.23,3.49-3.49,5.23-8.13,5.23-13.95s-1.74-10.71-5.23-14.2c-3.49-3.49-8.14-5.23-13.95-5.23h-48.56v38.6h48.56ZM1415.49,526.35c7.47,0,13.45-2.24,17.93-6.72,4.48-4.48,6.72-10.46,6.72-17.93s-2.24-13.74-6.72-18.31c-4.48-4.56-10.46-6.84-17.93-6.84h-55.53v49.81h55.53ZM1485.72,467.84c0-13.62,2.03-25.98,6.1-37.11,4.07-11.11,9.93-20.63,17.57-28.51,7.64-7.88,16.85-13.98,27.64-18.31,10.79-4.32,22.99-6.48,36.61-6.48s25.86,2.16,36.73,6.48c10.87,4.31,20.13,10.41,27.76,18.31,7.64,7.88,13.5,17.4,17.57,28.51,4.07,11.13,6.1,23.5,6.1,37.11s-2.04,25.98-6.1,37.11c-4.07,11.13-9.93,20.67-17.57,28.63-7.64,7.97-16.89,14.12-27.76,18.44-10.87,4.31-23.11,6.48-36.73,6.48s-25.82-2.16-36.61-6.48c-10.8-4.32-20.01-10.46-27.64-18.44-7.64-7.97-13.5-17.52-17.57-28.63-4.07-11.12-6.1-23.5-6.1-37.11M1516.86,467.84c0,9.47,1.28,18.05,3.86,25.78,2.58,7.71,6.27,14.24,11.08,19.54,4.82,5.32,10.75,9.42,17.81,12.33,7.06,2.91,15.07,4.36,24.03,4.36s16.97-1.45,24.03-4.36c7.06-2.9,13.03-7.01,17.93-12.33,4.9-5.31,8.63-11.83,11.2-19.54,2.58-7.72,3.86-16.31,3.86-25.78s-1.3-18.01-3.86-25.64c-2.58-7.64-6.31-14.11-11.2-19.43-4.9-5.31-10.87-9.42-17.93-12.33-7.06-2.9-15.07-4.36-24.03-4.36s-16.99,1.45-24.03,4.36c-7.06,2.91-12.99,7.01-17.81,12.33-4.82,5.32-8.51,11.79-11.08,19.43-2.58,7.64-3.86,16.19-3.86,25.64M1803.5,504.45c0,7.47-1.25,14.48-3.73,21.04-2.48,6.56-6.27,12.2-11.33,16.94-5.06,4.73-11.45,8.46-19.18,11.21-7.71,2.74-16.89,4.12-27.52,4.12-7.81,0-15.03-.7-21.67-2.12-6.65-1.4-12.75-3.32-18.31-5.73-5.56-2.41-10.58-5.14-15.06-8.22-4.48-3.07-8.39-6.19-11.71-9.35l19.67-21.42c6.8,5.81,13.95,10.29,21.42,13.45,7.47,3.16,15.93,4.73,25.4,4.73,5.97,0,10.96-.66,14.94-2,3.98-1.33,7.18-3.03,9.59-5.11,2.41-2.08,4.07-4.48,4.99-7.23.92-2.74,1.37-5.44,1.37-8.1,0-5.14-1.37-9.37-4.1-12.7-2.74-3.33-6.39-6.1-10.96-8.34-4.57-2.24-9.76-4.15-15.57-5.73-5.81-1.57-11.74-3.2-17.81-4.86-6.07-1.66-12-3.61-17.81-5.86-5.81-2.24-10.99-5.11-15.57-8.6-4.57-3.49-8.22-7.85-10.96-13.08-2.74-5.23-4.1-11.74-4.1-19.54,0-7.3,1.32-14.03,3.98-20.17,2.65-6.14,6.51-11.42,11.59-15.81,5.06-4.39,11.37-7.85,18.92-10.33,7.55-2.49,16.22-3.74,26.03-3.74,13.45,0,25.61,2.2,36.49,6.6,10.87,4.41,20.29,10,28.27,16.82l-18.18,22.66c-7.97-6.31-15.73-10.79-23.28-13.45-7.56-2.65-15.23-3.98-23.04-3.98-10.46,0-18.02,1.83-22.66,5.48-4.65,3.66-6.96,8.14-6.96,13.45,0,4.31,1.37,7.88,4.1,10.7,2.74,2.82,6.39,5.18,10.96,7.11,4.56,1.9,9.76,3.56,15.57,4.98,5.81,1.42,11.74,2.99,17.81,4.73,6.05,1.74,12,3.83,17.81,6.22,5.81,2.41,10.99,5.57,15.57,9.47,4.56,3.9,8.22,8.75,10.96,14.58,2.74,5.81,4.1,12.87,4.1,21.16l-.02.05ZM1504,126.78c2.33-2.44,4.66-4.88,7-7.3,4.1-4.27,8.75-5.27,14.44-3.23,9.94,3.57,19.93,7.01,30.05,10.01,3.78,1.11,7.99.77,13.22,1.2-5.23,5.6-9.62,10.98-14.73,15.57-4.65,4.17-10.63,4.56-16.45,2.54-6.12-2.1-12.15-4.5-18.12-7.03-10.88-4.65-19.13.27-19.99,12.12-3.55,48.67,32.84,90.65,81.69,93.28,36.77,1.98,69.94-8.78,99.98-30.1,20.28-14.38,42-26.13,66.54-31.84,18.43-4.28,36.86-3.91,55.51-.44.92,3.6.29,5.29-3.77,5.99-22.4,3.92-40.66,14.87-55.44,32.22-8.05,9.45-17.01,18.16-25.9,26.85-1.92,1.88-5.32,3.19-8.05,3.19-68.71.17-137.42.11-206.13.21-3.54,0-5.61-1.15-7.46-4.01-22.36-34.96-25.11-71.42-7.76-109.03,3.95-8.55,3.13-15.28-2.9-21.96-3.77-4.17-7.47-8.43-11.1-12.75-5.5-6.54-6.51-13.75-2.56-21.41,2.56-4.95,5.43-9.76,8.86-15.9,3.37,15.49,14.13,24.72,22.94,35.13,5.4,6.37,6.68,12.29,2.38,19.44-1.2,2.01-2.06,4.24-3.06,6.37.27.28.53.55.81.84v.03ZM1553.6,293.75c7.58,1.4,15.51,3.44,23.57,4.25,34.31,3.44,66.31-5.41,97.35-18.89,29.76-12.91,54.37-32.4,74.25-57.98,12.21-15.72,33.97-27.44,53.38-29.32-1.89,40.74-30.69,96.77-87.99,122.83-56.09,25.52-120.41,14.56-160.56-20.92v.03ZM1502.83,254.58h166.95c-8.01,17.87-47.25,37.94-77.56,39.09-35.57,1.36-64.97-11.81-89.39-39.09M914.38,576.2c-2.5,0-4.53-2.03-4.53-4.53V130.68c0-2.5,2.03-4.53,4.53-4.53s4.53,2.03,4.53,4.53v441c0,2.5-2.03,4.53-4.53,4.53h0ZM914.38,576.2c-2.5,0-4.53-2.03-4.53-4.53V130.68c0-2.5,2.03-4.53,4.53-4.53s4.53,2.03,4.53,4.53v441c0,2.5-2.03,4.53-4.53,4.53h0ZM914.38,576.2c-2.5,0-4.53-2.03-4.53-4.53V130.68c0-2.5,2.03-4.53,4.53-4.53s4.53,2.03,4.53,4.53v441c0,2.5-2.03,4.53-4.53,4.53h0ZM470.01,163.42v21.9h19.17v8.21h-19.17v27.38h-9.58v-65.71h35.59v8.21h-26.02.01ZM543.93,163.42v-8.21h-36.96v65.71h35.59v-8.22h-26.01v-20.53h20.53v-8.21h-20.53v-20.53h27.38ZM563.52,218.73c3.76,2.13,7.93,3.21,12.15,3.21s7.88-.8,10.99-2.41c3.1-1.6,5.47-3.8,7.11-6.55,1.64-2.76,2.45-5.84,2.45-9.24,0-3.77-.82-6.92-2.49-9.47-1.66-2.55-3.7-4.55-6.08-6.03-2.38-1.47-5.5-3.09-9.33-4.85-2.95-1.31-5.25-2.48-6.92-3.48-1.67-1-3.06-2.23-4.19-3.67-1.13-1.45-1.69-3.14-1.69-5.09,0-2.45.95-4.48,2.83-6.08s4.33-2.4,7.34-2.4c2.39,0,4.73.65,7.02,1.94,2.3,1.29,4.32,2.94,6.07,4.95l5.85-6.03c-2.26-2.69-5.04-4.94-8.34-6.73-3.3-1.79-6.9-2.68-10.8-2.68-3.57,0-6.83.75-9.75,2.26-2.91,1.5-5.22,3.55-6.88,6.12-1.66,2.58-2.49,5.44-2.49,8.58,0,3.58.8,6.59,2.41,9,1.6,2.42,3.54,4.34,5.79,5.75,2.27,1.41,5.25,2.97,8.96,4.66,3.15,1.43,5.61,2.68,7.4,3.72,1.79,1.03,3.28,2.36,4.48,3.96,1.19,1.6,1.79,3.54,1.79,5.8,0,2.7-1,4.93-3.02,6.69-2.01,1.76-4.65,2.64-7.91,2.64-2.88,0-5.67-.81-8.34-2.45-2.67-1.62-4.95-3.8-6.84-6.5l-6.49,6.12c2.19,3.4,5.17,6.16,8.95,8.29l-.03-.02ZM645.23,155.21h-42.44v8.21h16.43v57.49h9.58v-57.49h16.43v-8.21ZM656.18,220.91h9.58v-65.71h-9.58v65.71ZM723.37,155.21l-19.05,48.21-19.06-48.21h-9.82l28.21,67.07h1.33l28.21-67.07h-9.82ZM771.06,207.23l5.7,13.69h10.39l-29.29-67.07h-1.33l-29.2,67.07h10.48l5.7-13.69h27.56ZM767.85,197.65h-21.11l10.54-25.44,10.55,25.44h.01ZM805.39,212.71v-57.49h-8.22v65.71h32.86v-8.21h-24.64ZM111.37,334.53h9.58v-65.71h-9.58v65.71ZM192.31,268.83h-8.39v45.56l-44.1-46.93h-1.08v67.07h8.21v-45.09l43.94,46.46h1.24v-67.77l.18.7ZM245.52,268.83h-42.44v8.21h17.8v57.49h9.58v-57.49h15.06v-8.21ZM293.43,277.04v-8.21h-35.59v65.71h35.59v-9.59h-27.37v-20.53h21.9v-8.21h-20.53v-19.16h26.01ZM326.58,308.53l14.89,26.01h11.88l-17.14-26.47c4.5-1.44,8.01-3.86,10.53-7.27,2.51-3.4,3.77-7.3,3.77-11.68,0-3.52-.93-6.83-2.77-9.96-1.85-3.13-4.5-5.63-7.96-7.5-3.45-1.88-7.51-2.82-12.14-2.82h-19.15v65.71h9.58v-26.01h8.51ZM318.07,277.04h8.61c3.79,0,6.86,1.07,9.23,3.21,2.36,2.15,3.54,5.03,3.54,8.42s-1.17,6.19-3.54,8.37c-2.37,2.18-5.44,3.26-9.23,3.26h-8.61v-23.27ZM417.32,268.83h-8.91v45.56l-43.58-46.93h-.22v67.07h8.21v-45.09l43.94,46.46h1.24v-67.77l-.68.7ZM470.87,320.84l5.69,13.69h10.39l-29.29-67.07h-1.33l-29.2,67.07h10.48l5.7-13.69h27.56ZM467.64,311.26h-21.11l10.55-25.44,10.55,25.44h.01ZM507.98,330.56c5.12,3.11,11.02,4.66,17.67,4.66,5.84,0,11.03-1.15,15.55-3.48v-10.08c-4.09,3.26-9.24,4.9-15.46,4.9-4.78,0-9.05-1.16-12.82-3.48-3.77-2.33-6.7-5.43-8.77-9.33-2.07-3.89-3.11-8.1-3.11-12.63s1.03-8.74,3.11-12.63c2.08-3.89,4.99-7,8.77-9.33,3.77-2.31,8.04-3.49,12.82-3.49,6.22,0,11.37,1.64,15.46,4.9v-10.08c-4.52-2.31-9.7-3.48-15.55-3.48-6.67,0-12.55,1.56-17.67,4.66-5.12,3.11-9.08,7.27-11.88,12.49-2.79,5.21-4.19,10.87-4.19,16.96s1.4,11.75,4.19,16.96c2.79,5.22,6.75,9.38,11.88,12.48M554.88,334.53h9.58v-65.71h-9.58v65.71ZM596.25,330.65c5.15,3.1,11.13,4.66,17.72,4.66s12.46-1.56,17.62-4.66c5.14-3.1,9.14-7.26,11.96-12.49,2.83-5.22,4.24-10.97,4.24-17.06s-1.41-11.74-4.24-16.96c-2.82-5.22-6.81-9.38-11.96-12.49-5.16-3.1-10.96-4.66-17.62-4.66s-12.56,1.56-17.72,4.66-9.14,7.26-11.96,12.49c-2.83,5.2-4.24,10.79-4.24,16.96s1.41,11.85,4.24,17.06c2.83,5.22,6.81,9.38,11.96,12.49M626.83,322.97c-3.81,2.32-8.02,3.48-12.86,3.48s-9.14-1.16-12.91-3.48c-3.77-2.33-6.7-5.42-8.77-9.28-2.07-3.86-3.1-8.06-3.1-12.58s1.03-8.71,3.1-12.58c2.08-3.86,5-6.94,8.77-9.23,3.77-2.29,8.14-3.44,12.91-3.44s9.06,1.15,12.86,3.44c3.8,2.3,6.75,5.37,8.86,9.23,2.11,3.87,3.16,8.06,3.16,12.58s-1.05,8.72-3.16,12.58c-2.1,3.86-5.06,6.95-8.86,9.28M717.53,268.83h-7.96v45.56l-44.53-46.93h-.65v67.07h8.21v-45.09l43.94,46.46h1.24v-67.77l-.25.7ZM771.08,320.84l5.7,13.69h10.39l-29.29-67.07h-1.33l-29.2,67.07h10.48l5.7-13.69h27.56ZM767.85,311.26h-21.11l10.54-25.44,10.55,25.44h.01ZM805.39,324.95v-56.13h-8.22v65.71h32.86v-9.58h-24.64ZM420.73,385.4c-5.09-2.88-11.06-4.32-17.92-4.32h-17.67v65.71h17.67c6.86,0,12.82-1.48,17.92-4.41,5.09-2.94,9-6.91,11.72-11.92,2.72-5,4.08-10.63,4.08-16.71s-1.36-11.6-4.08-16.57c-2.72-4.97-6.63-8.9-11.72-11.78h0ZM415.26,435.31c-3.72,2.17-8.11,3.26-13.16,3.26h-8.74v-47.91h8.74c5.04,0,9.43,1.05,13.16,3.13,3.72,2.08,6.58,4.93,8.55,8.53,1.97,3.61,2.96,7.71,2.96,12.12s-.99,8.46-2.96,12.12c-1.97,3.67-4.82,6.58-8.55,8.76h0ZM487.81,389.29v-8.21h-35.59v65.71h35.59v-8.21h-27.38v-20.53h20.53v-8.22h-20.53v-20.53h27.38ZM550.41,443.63c5.12,3.1,11.02,4.66,17.67,4.66,5.85,0,11.03-1.16,15.55-3.48v-10.08c-4.09,3.26-9.24,4.9-15.46,4.9-4.78,0-9.04-1.16-12.82-3.49-3.77-2.33-6.7-5.43-8.76-9.33-2.07-3.89-3.11-8.1-3.11-12.63s1.03-8.74,3.11-12.63c2.08-3.89,4.99-7,8.76-9.33,3.77-2.31,8.05-3.48,12.82-3.48,6.22,0,11.37,1.64,15.46,4.9v-10.08c-4.52-2.31-9.7-3.48-15.55-3.48-6.66,0-12.55,1.55-17.67,4.66-5.12,3.1-9.08,7.26-11.87,12.48-2.79,5.21-4.19,10.87-4.19,16.96s1.4,11.75,4.19,16.96c2.79,5.22,6.75,9.38,11.87,12.49M598.69,446.78h9.58v-65.71h-9.58v65.71ZM679.52,381.08h-8.28v46.38l-44.21-47.75h-.96v67.07h8.21v-45.09l43.94,46.46h1.23v-66.95l.07-.12ZM734.21,389.29v-8.21h-35.59v65.71h35.59v-8.21h-27.38v-20.53h20.53v-8.22h-20.53v-20.53h27.38ZM797.04,418.54v28.91h8.29v-28.91l21.68-37.55h-9.52l-16.31,28.38-16.3-28.38h-9.52l21.68,37.55ZM412.24,498.08v-8.67h-36.19v65.96h36.19v-8.67h-27.23v-20.63h21.01v-8.58h-21.01v-19.41h27.23ZM524.21,489.42h-41.93v8.76h16.68v57.2h8.95v-57.2h16.31v-8.76ZM540.15,554.85h8.96v-65.95h-8.96v65.95ZM606.47,488.89l-19.03,48.15-19.04-48.15h-9.8l28.18,67h1.32l28.18-67h-9.8ZM339.15,530.02l14.51,25.35h10.17l-16.03-26.57c4.21-1.45,7.49-3.87,9.85-7.3,2.35-3.42,3.53-7.33,3.53-11.73,0-3.53-.87-6.86-2.59-9.99-1.72-3.14-4.2-5.65-7.44-7.53-3.23-1.88-7.03-2.83-11.35-2.83h-17.9v65.96h8.96v-25.35h8.3ZM330.84,498.16h8.58c3.77,0,6.84,1.07,9.19,3.21,2.35,2.13,3.53,5.01,3.53,8.39s-1.17,6.16-3.53,8.34c-2.36,2.17-5.42,3.25-9.19,3.25h-8.58v-23.18ZM468.14,540.75l5.84,14.04h9.8l-29.21-66.9h-1.32l-29.13,66.9h9.89l5.84-14.04h28.27ZM464.56,532.08h-21.11l10.54-25.44,10.55,25.44h.01ZM289.01,556.5c5.84,0,11.03-1.15,15.55-3.48v-10.08c-4.08,3.26-9.24,4.9-15.46,4.9-4.78,0-9.05-1.16-12.82-3.49-3.77-2.32-6.7-5.43-8.77-9.33-2.07-3.89-3.1-8.1-3.1-12.63s1.03-8.74,3.1-12.63c2.08-3.89,4.99-7,8.77-9.33,3.77-2.31,8.05-3.48,12.82-3.48,6.22,0,11.37,1.63,15.46,4.9v-10.08c-4.52-2.32-9.7-3.48-15.55-3.48-6.66,0-12.55,1.55-17.67,4.66-5.12,3.11-9.08,7.26-11.87,12.49-2.79,5.21-4.19,10.87-4.19,16.96s1.4,11.75,4.19,16.96c2.79,5.22,6.75,9.38,11.87,12.49,5.12,3.1,11.02,4.66,17.67,4.66M630.49,555.37h8.96v-65.95h-8.96v65.95ZM750.41,540.75l5.84,14.04h9.81l-29.21-66.9h-1.32l-29.13,66.9h9.89l5.84-14.04h28.27ZM746.82,532.08h-21.11l10.54-25.44,10.55,25.44h.01ZM689.94,492.71c-4.99-2.9-10.85-4.34-17.57-4.34h-17.34v65.95h17.34c6.72,0,12.58-1.48,17.57-4.43,4.99-2.95,8.82-6.93,11.49-11.96,2.67-5.02,4.01-10.67,4.01-16.77s-1.33-11.64-4.01-16.64c-2.67-4.99-6.5-8.93-11.49-11.83h0ZM685.22,542.25c-3.61,2.19-7.87,3.29-12.77,3.29h-8.48v-48.43h8.48c4.9,0,9.15,1.06,12.77,3.16,3.61,2.1,6.37,4.99,8.29,8.62,1.91,3.65,2.87,7.79,2.87,12.26s-.96,8.55-2.87,12.25c-1.92,3.7-4.67,6.66-8.29,8.86h0ZM811.5,493.76c-4.99-2.9-10.85-4.34-17.57-4.34h-17.34v65.95h17.34c6.72,0,12.58-1.48,17.57-4.43,4.99-2.95,8.82-6.94,11.5-11.97,2.67-5.02,4-10.67,4-16.77s-1.33-11.64-4-16.64c-2.67-5-6.5-8.93-11.5-11.83h0ZM806.79,543.3c-3.61,2.19-7.87,3.3-12.77,3.3h-8.48v-48.43h8.48c4.9,0,9.15,1.06,12.77,3.16,3.61,2.1,6.37,4.99,8.29,8.62,1.91,3.65,2.87,7.79,2.87,12.25s-.96,8.55-2.87,12.25c-1.92,3.71-4.67,6.66-8.29,8.86h0Z"/>
</svg>