<svg width="511" height="156" viewBox="0 0 511 156" fill="none" xmlns="http://www.w3.org/2000/svg">
<path d="M267.757 27.2543H277.174V71.7098H302.623V80.4425H267.757V27.2543ZM303.949 53.8484C303.949 49.6989 304.566 45.9267 305.799 42.5317C307.033 39.1367 308.808 36.2321 311.106 33.8368C313.423 31.4226 316.207 29.5742 319.458 28.2539C322.728 26.9336 326.409 26.2735 330.52 26.2735C334.63 26.2735 338.33 26.9336 341.619 28.2539C344.907 29.5742 347.71 31.4226 350.008 33.8368C352.325 36.251 354.081 39.1367 355.315 42.5317C356.548 45.9267 357.164 49.6989 357.164 53.8484C357.164 57.9978 356.548 61.77 355.315 65.165C354.081 68.56 352.306 71.4646 350.008 73.8977C347.691 76.3308 344.907 78.198 341.619 79.5183C338.33 80.8386 334.63 81.4987 330.52 81.4987C326.409 81.4987 322.709 80.8386 319.458 79.5183C316.188 78.198 313.404 76.3308 311.106 73.8977C308.789 71.4646 307.033 68.56 305.799 65.165C304.566 61.77 303.949 57.9978 303.949 53.8484ZM313.367 53.8484C313.367 56.7341 313.759 59.3558 314.525 61.7135C315.31 64.0711 316.412 66.0515 317.87 67.6736C319.327 69.2956 321.121 70.5404 323.251 71.4458C325.381 72.3511 327.81 72.7849 330.52 72.7849C333.229 72.7849 335.658 72.3511 337.788 71.4458C339.918 70.5593 341.731 69.3145 343.207 67.6736C344.683 66.0515 345.823 64.0711 346.589 61.7135C347.374 59.3558 347.747 56.7341 347.747 53.8484C347.747 50.9626 347.355 48.3598 346.589 46.021C345.804 43.6823 344.683 41.7207 343.207 40.0987C341.731 38.4766 339.918 37.2318 337.788 36.3264C335.658 35.44 333.229 34.9873 330.52 34.9873C327.81 34.9873 325.381 35.4211 323.251 36.3264C321.121 37.2129 319.327 38.4577 317.87 40.0987C316.412 41.7396 315.291 43.7011 314.525 46.021C313.74 48.3598 313.367 50.9626 313.367 53.8484ZM400.028 65.0142C400.028 67.2963 399.654 69.4276 398.907 71.4269C398.159 73.4262 397.02 75.1425 395.488 76.5948C393.955 78.0283 392.031 79.1788 389.695 80.0087C387.359 80.8386 384.594 81.2724 381.38 81.2724C379.026 81.2724 376.84 81.0649 374.822 80.6311C372.804 80.1973 370.973 79.6126 369.291 78.877C367.609 78.1415 366.096 77.3116 364.732 76.3685C363.368 75.4255 362.191 74.4824 361.2 73.5205L367.142 66.9757C369.198 68.7486 371.365 70.1066 373.626 71.0874C375.887 72.0493 378.447 72.5209 381.306 72.5209C383.118 72.5209 384.613 72.3134 385.827 71.9173C387.023 71.5212 387.995 70.9931 388.724 70.3518C389.452 69.7105 389.957 68.975 390.237 68.1451C390.517 67.3152 390.648 66.4853 390.648 65.6743C390.648 64.1088 390.237 62.8074 389.396 61.8078C388.574 60.7893 387.472 59.9405 386.089 59.2615C384.706 58.5825 383.137 57.9978 381.38 57.5074C379.624 57.0359 377.83 56.5267 375.999 56.0174C374.168 55.5082 372.374 54.9235 370.618 54.2256C368.861 53.5466 367.292 52.6601 365.909 51.6039C364.526 50.5477 363.424 49.2086 362.602 47.6054C361.78 46.0022 361.35 44.0218 361.35 41.6453C361.35 39.4197 361.742 37.3638 362.546 35.4966C363.349 33.6293 364.508 32.0073 366.04 30.6681C367.572 29.329 369.478 28.2728 371.758 27.5183C374.037 26.7639 376.653 26.3867 379.624 26.3867C383.697 26.3867 387.36 27.0657 390.648 28.4048C393.937 29.7439 396.777 31.4603 399.187 33.535L393.694 40.457C391.283 38.5332 388.929 37.1563 386.649 36.3453C384.37 35.5343 382.053 35.1382 379.68 35.1382C376.522 35.1382 374.224 35.704 372.823 36.8168C371.421 37.9296 370.711 39.3065 370.711 40.9285C370.711 42.2488 371.122 43.3428 371.963 44.1915C372.804 45.0403 373.888 45.7758 375.27 46.3605C376.653 46.9452 378.223 47.4545 379.979 47.8883C381.735 48.3221 383.529 48.7936 385.36 49.3217C387.191 49.8498 388.985 50.4911 390.741 51.2267C392.498 51.9623 394.067 52.9242 395.45 54.1124C396.833 55.3007 397.935 56.7907 398.757 58.5637C399.58 60.3366 400.009 62.4868 400.009 65.0142H400.028ZM267.532 122.937C267.532 118.787 268.149 115.015 269.382 111.62C270.615 108.225 272.39 105.32 274.689 102.925C277.006 100.511 279.79 98.6623 283.041 97.342C286.311 96.0218 289.992 95.3616 294.102 95.3616C298.811 95.3616 302.94 96.2104 306.491 97.9079C310.041 99.6054 313.012 101.982 315.422 105.019L307.743 110.337C306.136 108.357 304.211 106.829 301.988 105.735C299.745 104.641 297.129 104.094 294.121 104.094C291.412 104.094 288.983 104.528 286.853 105.433C284.723 106.32 282.929 107.565 281.471 109.206C280.014 110.828 278.893 112.808 278.127 115.128C277.342 117.467 276.968 120.07 276.968 122.955C276.968 125.841 277.361 128.463 278.127 130.783C278.912 133.122 280.014 135.083 281.471 136.705C282.929 138.327 284.723 139.572 286.853 140.477C288.983 141.383 291.412 141.816 294.121 141.816C297.129 141.816 299.745 141.27 301.988 140.176C304.211 139.082 306.136 137.554 307.743 135.573L315.422 140.892C313.012 143.929 310.041 146.305 306.491 148.003C302.959 149.7 298.83 150.549 294.102 150.549C289.992 150.549 286.292 149.889 283.041 148.569C279.79 147.248 276.987 145.4 274.689 142.986C272.372 140.572 270.615 137.686 269.382 134.291C268.149 130.896 267.532 127.124 267.532 122.974V122.937ZM335.957 96.3235H345.823L363.891 149.512H354.025L349.653 135.46H332.108L327.736 149.512H317.87L335.938 96.3235H335.957ZM346.869 126.728L340.852 107.433L334.836 126.728H346.888M367.497 96.3235H392.797C394.946 96.3235 396.908 96.663 398.627 97.3609C400.364 98.0399 401.822 99.0207 403.036 100.284C404.232 101.548 405.166 103.038 405.82 104.736C406.474 106.433 406.792 108.319 406.792 110.394C406.792 112.978 406.306 115.09 405.316 116.731C404.344 118.372 403.036 119.636 401.448 120.503C402.7 120.9 403.877 121.484 404.979 122.258C406.082 123.012 407.053 123.955 407.876 125.068C408.698 126.181 409.352 127.482 409.838 128.934C410.305 130.406 410.548 132.065 410.548 133.951C410.548 136.234 410.193 138.327 409.464 140.232C408.735 142.137 407.689 143.778 406.344 145.174C404.979 146.569 403.335 147.645 401.411 148.399C399.486 149.153 397.3 149.531 394.89 149.531H367.479V96.3424L367.497 96.3235ZM391.582 116.844C393.339 116.844 394.74 116.316 395.805 115.241C396.87 114.166 397.393 112.77 397.393 110.979C397.393 109.187 396.87 107.716 395.805 106.641C394.74 105.565 393.339 105.037 391.582 105.037H376.896V116.826H391.582V116.844ZM393.694 140.779C395.955 140.779 397.767 140.1 399.112 138.723C400.476 137.346 401.149 135.536 401.149 133.254C401.149 130.971 400.476 129.066 399.112 127.671C397.748 126.275 395.955 125.577 393.694 125.577H376.915V140.779H393.694ZM414.92 122.937C414.92 118.787 415.537 115.015 416.77 111.62C418.003 108.225 419.778 105.32 422.076 102.925C424.375 100.53 427.177 98.6623 430.429 97.342C433.698 96.0218 437.379 95.3616 441.49 95.3616C445.601 95.3616 449.3 96.0218 452.589 97.342C455.878 98.6623 458.68 100.511 460.979 102.925C463.296 105.339 465.052 108.225 466.285 111.62C467.518 115.015 468.135 118.787 468.135 122.937C468.135 127.086 467.518 130.858 466.285 134.253C465.052 137.648 463.277 140.553 460.979 142.986C458.662 145.419 455.878 147.286 452.589 148.606C449.3 149.927 445.601 150.587 441.49 150.587C437.379 150.587 433.68 149.927 430.429 148.606C427.177 147.286 424.375 145.419 422.076 142.986C419.759 140.553 418.003 137.648 416.77 134.253C415.537 130.858 414.92 127.086 414.92 122.937ZM424.337 122.937C424.337 125.822 424.73 128.444 425.496 130.802C426.28 133.159 427.383 135.14 428.84 136.762C430.298 138.384 432.091 139.629 434.222 140.534C436.352 141.439 438.781 141.873 441.49 141.873C444.199 141.873 446.628 141.439 448.759 140.534C450.889 139.647 452.701 138.403 454.177 136.762C455.653 135.14 456.793 133.159 457.559 130.802C458.325 128.444 458.718 125.822 458.718 122.937C458.718 120.051 458.325 117.448 457.559 115.109C456.774 112.77 455.653 110.809 454.177 109.187C452.701 107.565 450.889 106.32 448.759 105.415C446.628 104.528 444.199 104.075 441.49 104.075C438.781 104.075 436.352 104.509 434.222 105.415C432.091 106.301 430.298 107.546 428.84 109.187C427.383 110.809 426.262 112.789 425.496 115.109C424.711 117.448 424.337 120.051 424.337 122.937ZM510.98 134.102C510.98 136.384 510.606 138.516 509.859 140.515C509.111 142.514 507.971 144.231 506.439 145.683C504.907 147.116 502.983 148.267 500.647 149.097C498.311 149.927 495.546 150.361 492.332 150.361C489.978 150.361 487.792 150.153 485.774 149.719C483.756 149.285 481.924 148.701 480.243 147.965C478.561 147.23 477.048 146.4 475.684 145.457C474.32 144.514 473.142 143.571 472.152 142.609L478.094 136.064C480.149 137.837 482.317 139.195 484.578 140.176C486.839 141.156 489.399 141.609 492.257 141.609C494.07 141.609 495.565 141.402 496.779 141.005C497.975 140.609 498.947 140.081 499.675 139.44C500.404 138.799 500.908 138.063 501.189 137.233C501.469 136.403 501.6 135.573 501.6 134.762C501.6 133.197 501.189 131.896 500.367 130.896C499.544 129.877 498.442 129.029 497.059 128.35C495.677 127.671 494.107 127.086 492.351 126.596C490.594 126.124 488.801 125.615 486.969 125.106C485.138 124.596 483.345 124.012 481.588 123.314C479.832 122.635 478.262 121.748 476.879 120.692C475.497 119.636 474.394 118.297 473.572 116.694C472.75 115.09 472.339 113.11 472.339 110.733C472.339 108.508 472.731 106.452 473.535 104.585C474.338 102.717 475.497 101.095 477.029 99.7563C478.561 98.4171 480.467 97.3609 482.747 96.6065C485.026 95.852 487.642 95.4748 490.613 95.4748C494.686 95.4748 498.349 96.1538 501.637 97.4929C504.926 98.8321 507.766 100.548 510.176 102.623L504.683 109.545C502.272 107.621 499.918 106.244 497.639 105.433C495.359 104.622 493.042 104.226 490.669 104.226C487.511 104.226 485.213 104.792 483.812 105.905C482.41 107.018 481.7 108.395 481.7 110.017C481.7 111.337 482.111 112.431 482.933 113.28C483.756 114.147 484.858 114.864 486.241 115.449C487.623 116.033 489.193 116.543 490.949 116.976C492.706 117.41 494.5 117.882 496.331 118.41C498.162 118.938 499.956 119.579 501.712 120.315C503.468 121.05 505.038 122.012 506.421 123.201C507.803 124.389 508.906 125.879 509.728 127.652C510.55 129.425 510.961 131.575 510.961 134.102H510.98ZM420.451 18.8611C421.161 18.1255 421.852 17.3711 422.562 16.6355C423.795 15.3341 425.215 15.0323 426.934 15.6547C429.943 16.7486 432.951 17.786 436.015 18.7102C437.155 19.0497 438.426 18.9554 440.014 19.0686C438.426 20.7849 437.099 22.4258 435.567 23.8215C434.166 25.1041 432.353 25.2173 430.597 24.5948C428.747 23.9536 426.916 23.218 425.122 22.4447C421.833 21.0301 419.33 22.5201 419.087 26.1415C418.022 40.9851 429.008 53.7918 443.788 54.6028C454.906 55.2064 464.921 51.9246 474.002 45.4175C480.131 41.0229 486.708 37.4392 494.107 35.704C499.675 34.4026 505.243 34.5158 510.886 35.572C511.167 36.6659 510.98 37.194 509.746 37.4015C502.982 38.5898 497.452 41.9282 492.986 47.2281C490.557 50.1139 487.848 52.7733 485.157 55.4139C484.578 55.9797 483.55 56.3946 482.728 56.3946C461.95 56.4512 441.191 56.4324 420.413 56.4512C419.348 56.4512 418.713 56.1117 418.152 55.2252C411.388 44.5499 410.566 33.4407 415.798 21.9543C416.994 19.3515 416.751 17.2956 414.92 15.2586C413.78 13.9761 412.659 12.6935 411.557 11.3732C409.894 9.37396 409.595 7.18607 410.791 4.8473C411.557 3.33841 412.435 1.86725 413.462 0C414.49 4.73413 417.741 7.54443 420.395 10.7131C422.02 12.6558 422.413 14.4664 421.105 16.6355C420.75 17.2579 420.488 17.9369 420.17 18.5782C420.245 18.6536 420.339 18.7479 420.413 18.8422L420.451 18.8611ZM435.455 69.8049C437.753 70.2387 440.145 70.8611 442.574 71.1063C452.944 72.1625 462.623 69.4465 472.003 65.3348C480.99 61.3928 488.446 55.4516 494.443 47.6431C498.143 42.8524 504.72 39.2688 510.587 38.7029C510.008 51.1324 501.301 68.2394 483.98 76.1799C467.033 83.9695 447.581 80.6311 435.436 69.8049H435.455ZM420.096 57.8658H470.564C468.154 63.3167 456.289 69.4465 447.114 69.786C436.37 70.2009 427.476 66.1835 420.096 57.8658ZM242.214 156C241.467 156 240.85 155.378 240.85 154.623V20.0493C240.85 19.2949 241.467 18.6725 242.214 18.6725C242.962 18.6725 243.578 19.2949 243.578 20.0493V154.623C243.578 155.378 242.962 156 242.214 156ZM242.214 156C241.467 156 240.85 155.378 240.85 154.623V20.0493C240.85 19.2949 241.467 18.6725 242.214 18.6725C242.962 18.6725 243.578 19.2949 243.578 20.0493V154.623C243.578 155.378 242.962 156 242.214 156ZM242.214 156C241.467 156 240.85 155.378 240.85 154.623V20.0493C240.85 19.2949 241.467 18.6725 242.214 18.6725C242.962 18.6725 243.578 19.2949 243.578 20.0493V154.623C243.578 155.378 242.962 156 242.214 156ZM108.411 30.0457V36.7225H114.203V39.231H108.411V47.5865H105.514V27.5372H116.277V30.0457H108.411ZM130.758 30.0457V27.5372H119.584V47.5865H130.347V45.078H122.48V38.8161H128.684V36.3076H122.48V30.0457H130.758ZM136.681 46.9264C137.821 47.5865 139.073 47.9071 140.362 47.9071C141.651 47.9071 142.735 47.6619 143.688 47.1716C144.622 46.6812 145.351 46.021 145.837 45.1723C146.323 44.3235 146.584 43.3805 146.584 42.362C146.584 41.2115 146.341 40.2495 145.837 39.4762C145.332 38.7029 144.716 38.0805 144.006 37.6279C143.277 37.1752 142.343 36.6848 141.184 36.1567C140.287 35.7606 139.596 35.4022 139.091 35.1005C138.587 34.7987 138.157 34.4215 137.821 33.9877C137.485 33.5539 137.316 33.0258 137.316 32.4411C137.316 31.6866 137.597 31.0831 138.176 30.5927C138.736 30.1023 139.484 29.8571 140.399 29.8571C141.128 29.8571 141.819 30.0457 142.529 30.4418C143.221 30.8379 143.837 31.3471 144.361 31.9507L146.136 30.1023C145.444 29.2724 144.604 28.5934 143.613 28.0464C142.623 27.4995 141.52 27.2354 140.343 27.2354C139.26 27.2354 138.269 27.4617 137.391 27.9333C136.513 28.3859 135.822 29.0083 135.317 29.8005C134.813 30.5927 134.57 31.4603 134.57 32.4222C134.57 33.5161 134.813 34.4403 135.298 35.1759C135.784 35.9115 136.363 36.4962 137.055 36.93C137.746 37.3638 138.643 37.8353 139.764 38.3446C140.717 38.7784 141.464 39.1556 142.006 39.4762C142.548 39.7969 142.997 40.193 143.352 40.6834C143.707 41.1737 143.893 41.7584 143.893 42.4563C143.893 43.2862 143.594 43.9652 142.978 44.4933C142.361 45.0214 141.577 45.3043 140.586 45.3043C139.708 45.3043 138.867 45.0591 138.064 44.5499C137.26 44.0595 136.569 43.3993 135.99 42.5695L134.028 44.4367C134.682 45.4741 135.597 46.3228 136.737 46.9641L136.681 46.9264ZM161.383 27.5372H148.546V30.0457H153.516V47.5865H156.412V30.0457H161.383V27.5372ZM164.69 47.5865H167.586V27.5372H164.69V47.5865ZM185.001 27.5372L179.246 42.2488L173.491 27.5372H170.52L179.04 48.0015H179.432L187.953 27.5372H184.982H185.001ZM199.425 43.4182L201.144 47.5865H204.284L195.427 27.1222H195.034L186.215 47.5865H189.373L191.092 43.4182H199.425ZM198.454 40.4759H192.063L195.259 32.7051L198.454 40.4759ZM209.796 45.078V27.5372H207.31V47.5865H217.251V45.078H209.796ZM0 82.2532H2.89618V62.2038H0V82.2532ZM24.4774 62.2038H21.9362V76.1045L8.6138 61.7889H8.29616V82.2532H10.7813V68.5034L24.0663 82.687H24.44V62.0152L24.4961 62.2227L24.4774 62.2038ZM40.5465 62.2038H27.7099V64.7124H33.0912V82.2532H35.9874V64.7124H40.5465V62.2038ZM55.0274 64.7124V62.2038H44.2649V82.2532H55.0274V79.3297H46.75V73.0678H53.3645V70.5593H47.161V64.7124H55.0274ZM65.0613 74.3127L69.5644 82.2532H73.1519L67.9762 74.1806C69.3402 73.7468 70.4052 73.0112 71.1526 71.955C71.9187 70.9177 72.2924 69.7294 72.2924 68.3903C72.2924 67.3152 72.0121 66.3156 71.4516 65.3537C70.891 64.3917 70.0876 63.6373 69.0412 63.0714C67.9949 62.5056 66.7616 62.2038 65.3789 62.2038H59.5866V82.2532H62.4828V74.3127H65.0613ZM62.4828 64.7124H65.08C66.2198 64.7124 67.154 65.033 67.8641 65.6932C68.5741 66.3533 68.9291 67.2209 68.9291 68.2582C68.9291 69.2956 68.5741 70.1444 67.8641 70.8045C67.154 71.4646 66.2198 71.8041 65.08 71.8041H62.4828V64.7124ZM92.4909 62.2038H89.8003V76.1045L76.6273 61.7889H76.5526V82.2532H79.0377V68.5034L92.3228 82.687H92.6965V62.0152L92.4909 62.2227V62.2038ZM108.672 78.0849L110.391 82.2532H113.53L104.674 61.7889H104.281L95.4619 82.2532H98.6196L100.339 78.0849H108.672ZM107.701 75.1614H101.31L104.505 67.3906L107.701 75.1614ZM119.883 81.0461C121.434 81.9891 123.209 82.4606 125.227 82.4606C127.002 82.4606 128.553 82.1023 129.936 81.4044V78.3301C128.703 79.3297 127.152 79.8201 125.264 79.8201C123.826 79.8201 122.536 79.4617 121.397 78.7639C120.257 78.0471 119.379 77.1041 118.743 75.9158C118.127 74.7276 117.809 73.445 117.809 72.0682C117.809 70.6913 118.127 69.4088 118.743 68.2205C119.379 67.0323 120.257 66.0892 121.397 65.3725C122.536 64.6746 123.826 64.3163 125.264 64.3163C127.152 64.3163 128.703 64.8067 129.936 65.8063V62.732C128.572 62.0341 127.002 61.6757 125.227 61.6757C123.209 61.6757 121.434 62.1473 119.883 63.0903C118.332 64.0334 117.137 65.3159 116.296 66.9003C115.455 68.4846 115.025 70.2198 115.025 72.0682C115.025 73.9166 115.455 75.6518 116.296 77.2361C117.137 78.8205 118.332 80.103 119.883 81.0461ZM134.065 82.2532H136.961V62.2038H134.065V82.2532ZM146.565 81.0649C148.116 82.008 149.929 82.4795 151.928 82.4795C153.927 82.4795 155.702 82.008 157.253 81.0649C158.804 80.1219 160.019 78.8393 160.878 77.255C161.738 75.6707 162.167 73.9166 162.167 72.0493C162.167 70.1821 161.738 68.4657 160.878 66.8814C160.019 65.2971 158.823 64.0145 157.253 63.0714C155.702 62.1284 153.946 61.6569 151.928 61.6569C149.91 61.6569 148.135 62.1284 146.565 63.0714C145.015 64.0145 143.8 65.2971 142.941 66.8814C142.081 68.4657 141.651 70.1821 141.651 72.0493C141.651 73.9166 142.081 75.6707 142.941 77.255C143.8 78.8393 144.996 80.1219 146.565 81.0649ZM155.815 78.7262C154.656 79.4429 153.385 79.7824 151.928 79.7824C150.471 79.7824 149.163 79.424 148.023 78.7262C146.883 78.0094 146.005 77.0664 145.37 75.897C144.753 74.7276 144.435 73.445 144.435 72.0682C144.435 70.6913 144.753 69.4088 145.37 68.2394C146.005 67.07 146.883 66.1269 148.023 65.4291C149.163 64.7312 150.489 64.3729 151.928 64.3729C153.367 64.3729 154.675 64.7312 155.815 65.4291C156.973 66.1269 157.851 67.07 158.486 68.2394C159.122 69.4276 159.439 70.6913 159.439 72.0682C159.439 73.445 159.122 74.7276 158.486 75.897C157.851 77.0664 156.954 78.0283 155.815 78.7262ZM183.244 62.2038H180.834V76.1045L167.381 61.7889H167.194V82.2532H169.679V68.5034L182.964 82.687H183.338V62.0152L183.263 62.2227L183.244 62.2038ZM199.425 78.0849L201.144 82.2532H204.284L195.427 61.7889H195.034L186.215 82.2532H189.373L191.092 78.0849H199.425ZM198.454 75.1614H192.063L195.259 67.3906L198.454 75.1614ZM209.796 79.3297V62.2038H207.31V82.2532H217.251V79.3297H209.796ZM93.5186 97.7758C91.9864 96.8894 90.174 96.4556 88.1 96.4556H82.756V116.505H88.1C90.174 116.505 91.9678 116.052 93.5186 115.166C95.0508 114.26 96.2466 113.053 97.0688 111.526C97.8909 109.998 98.302 108.281 98.302 106.433C98.302 104.585 97.8909 102.887 97.0688 101.378C96.2466 99.8506 95.0695 98.6623 93.5186 97.7758ZM91.8556 112.997C90.7345 113.657 89.4079 113.996 87.8757 113.996H85.2411V99.379H87.8757C89.4079 99.379 90.7345 99.6997 91.8556 100.341C92.9767 100.982 93.8363 101.85 94.4342 102.944C95.0321 104.038 95.3311 105.301 95.3311 106.641C95.3311 107.98 95.0321 109.225 94.4342 110.337C93.8363 111.45 92.9767 112.355 91.8556 113.016V112.997ZM113.792 98.9641V96.4556H103.029V116.505H113.792V113.996H105.514V107.734H111.718V105.226H105.514V98.9641H113.792ZM132.72 115.543C134.271 116.486 136.046 116.958 138.064 116.958C139.839 116.958 141.39 116.599 142.772 115.901V112.827C141.539 113.827 139.988 114.317 138.101 114.317C136.662 114.317 135.373 113.959 134.233 113.261C133.094 112.544 132.215 111.601 131.58 110.413C130.963 109.225 130.646 107.942 130.646 106.565C130.646 105.188 130.963 103.906 131.58 102.717C132.215 101.529 133.094 100.586 134.233 99.8694C135.373 99.1716 136.662 98.8132 138.101 98.8132C139.988 98.8132 141.539 99.3036 142.772 100.303V97.2289C141.408 96.531 139.839 96.1727 138.064 96.1727C136.046 96.1727 134.271 96.6442 132.72 97.5872C131.169 98.5303 129.973 99.8128 129.132 101.397C128.291 102.981 127.862 104.717 127.862 106.565C127.862 108.413 128.291 110.149 129.132 111.733C129.973 113.317 131.169 114.6 132.72 115.543ZM147.313 116.505H150.209V96.4556H147.313V116.505ZM171.753 96.4556H169.249V110.601L155.889 96.0218H155.59V116.486H158.075V102.736L171.36 116.92H171.734V96.4556H171.753ZM188.27 98.9641V96.4556H177.508V116.505H188.27V113.996H179.993V107.734H186.196V105.226H179.993V98.9641H188.27ZM207.273 107.885V116.712H209.777V107.885L216.335 96.4367H213.458L208.525 105.094L203.592 96.4367H200.715L207.273 107.885ZM90.9588 132.16V129.519H80.028V149.644H90.9588V147.003H82.7187V140.704H89.0716V138.082H82.7187V132.16H90.9588ZM124.797 129.519H112.129V132.197H117.174V149.644H119.883V132.197H124.816V129.519H124.797ZM129.618 149.474H132.327V129.349H129.618V149.474ZM149.667 129.349L143.912 144.042L138.157 129.349H135.186L143.707 149.795H144.099L152.619 129.349H149.648H149.667ZM68.8544 141.911L73.2453 149.644H76.3284L71.4889 141.534C72.7595 141.1 73.7498 140.345 74.4599 139.308C75.1699 138.271 75.5249 137.063 75.5249 135.724C75.5249 134.649 75.2633 133.631 74.7402 132.669C74.217 131.707 73.4696 130.952 72.4979 130.368C71.5263 129.802 70.3678 129.5 69.0599 129.5H63.6412V149.625H66.3506V141.892H68.8544V141.911ZM66.3506 132.178H68.9478C70.0876 132.178 71.0218 132.499 71.7319 133.159C72.4419 133.819 72.7969 134.687 72.7969 135.724C72.7969 136.762 72.4419 137.61 71.7319 138.271C71.0218 138.931 70.0876 139.27 68.9478 139.27H66.3506V132.197V132.178ZM107.85 145.174L109.625 149.455H112.596L103.758 129.048H103.366L94.565 149.455H97.5546L99.3297 145.174H107.869H107.85ZM106.766 142.533H100.376L103.571 134.762L106.766 142.533ZM53.7008 149.983C55.4759 149.983 57.0267 149.625 58.4094 148.927V145.853C57.1762 146.852 55.6254 147.343 53.7382 147.343C52.2994 147.343 51.0102 146.984 49.8704 146.287C48.7306 145.57 47.8524 144.627 47.2171 143.439C46.6005 142.25 46.2828 140.968 46.2828 139.591C46.2828 138.214 46.6005 136.931 47.2171 135.743C47.8524 134.555 48.7306 133.612 49.8704 132.895C51.0102 132.197 52.2994 131.839 53.7382 131.839C55.6254 131.839 57.1762 132.329 58.4094 133.329V130.255C57.0454 129.557 55.4759 129.198 53.7008 129.198C51.6828 129.198 49.9077 129.67 48.3569 130.613C46.806 131.556 45.6102 132.839 44.7693 134.423C43.9285 136.007 43.4988 137.742 43.4988 139.591C43.4988 141.439 43.9285 143.174 44.7693 144.759C45.6102 146.343 46.806 147.626 48.3569 148.569C49.9077 149.512 51.6828 149.983 53.7008 149.983ZM156.917 149.644H159.626V129.519H156.917V149.644ZM193.185 145.174L194.96 149.455H197.931L189.093 129.048H188.7L179.9 149.455H182.889L184.664 145.174H193.203H193.185ZM192.101 142.533H185.711L188.906 134.762L192.101 142.533ZM174.892 130.519C173.378 129.632 171.603 129.198 169.585 129.198H164.335V149.323H169.585C171.622 149.323 173.378 148.87 174.892 147.965C176.405 147.06 177.564 145.853 178.367 144.306C179.171 142.778 179.582 141.043 179.582 139.195C179.582 137.346 179.171 135.649 178.367 134.121C177.564 132.593 176.405 131.386 174.892 130.519ZM173.472 145.626C172.388 146.287 171.099 146.626 169.604 146.626H167.044V131.839H169.604C171.08 131.839 172.369 132.16 173.472 132.801C174.556 133.442 175.396 134.329 175.976 135.441C176.555 136.554 176.835 137.818 176.835 139.176C176.835 140.534 176.555 141.779 175.976 142.91C175.396 144.042 174.556 144.947 173.472 145.608V145.626ZM211.645 130.839C210.132 129.953 208.357 129.519 206.339 129.519H201.088V149.644H206.339C208.376 149.644 210.132 149.191 211.645 148.286C213.159 147.38 214.317 146.173 215.121 144.627C215.924 143.099 216.335 141.364 216.335 139.515C216.335 137.667 215.924 135.97 215.121 134.442C214.317 132.914 213.159 131.707 211.645 130.839ZM210.225 145.947C209.142 146.607 207.852 146.947 206.358 146.947H203.798V132.16H206.358C207.834 132.16 209.123 132.48 210.225 133.122C211.309 133.763 212.15 134.649 212.729 135.762C213.308 136.875 213.589 138.139 213.589 139.497C213.589 140.855 213.308 142.099 212.729 143.231C212.15 144.363 211.309 145.268 210.225 145.928V145.947Z" fill="#A3CDD8"/>
</svg>
