<svg width="65" height="51" viewBox="0 0 65 51" fill="none" xmlns="http://www.w3.org/2000/svg">
<g clip-path="url(#clip0_43_29368)">
<path d="M6.61003 11.91C7.06003 11.44 7.51003 10.97 7.96003 10.5C8.75003 9.68 9.65003 9.48 10.74 9.88C12.66 10.57 14.58 11.23 16.53 11.81C17.26 12.02 18.07 11.96 19.08 12.04C18.07 13.12 17.23 14.15 16.24 15.04C15.34 15.84 14.19 15.92 13.07 15.53C11.89 15.12 10.73 14.66 9.58003 14.18C7.48003 13.28 5.89003 14.23 5.73003 16.52C5.05003 25.9 12.06 33.98 21.47 34.49C28.56 34.87 34.94 32.8 40.73 28.69C44.64 25.92 48.82 23.66 53.55 22.56C57.1 21.73 60.65 21.81 64.25 22.47C64.43 23.16 64.31 23.49 63.52 23.62C59.2 24.37 55.69 26.48 52.84 29.83C51.29 31.65 49.56 33.33 47.85 35C47.48 35.36 46.82 35.61 46.3 35.61C33.06 35.64 19.82 35.63 6.59003 35.65C5.91003 35.65 5.51003 35.43 5.15003 34.88C0.840034 28.14 0.310033 21.12 3.65003 13.87C4.41003 12.22 4.25003 10.93 3.09003 9.64C2.36003 8.84 1.65003 8.02 0.950033 7.18C-0.109967 5.93 -0.299967 4.54 0.460033 3.06C0.950033 2.11 1.51003 1.18 2.17003 0C2.82003 2.98 4.89003 4.76 6.59003 6.77C7.63003 8 7.88003 9.14 7.05003 10.52C6.82003 10.91 6.65003 11.34 6.46003 11.75C6.51003 11.8 6.56003 11.86 6.62003 11.91H6.61003ZM16.17 44.08C17.63 44.35 19.16 44.74 20.71 44.9C27.32 45.56 33.49 43.86 39.47 41.26C45.2 38.77 49.95 35.02 53.78 30.09C56.13 27.06 60.32 24.8 64.06 24.44C63.7 32.29 58.15 43.08 47.11 48.1C36.3 53.02 23.91 50.91 16.18 44.07L16.17 44.08ZM6.39003 36.53H38.56C37.02 39.97 29.46 43.84 23.62 44.06C16.77 44.32 11.1 41.78 6.40003 36.53H6.39003Z" fill="#EDE6DC"/>
</g>
<defs>
<clipPath id="clip0_43_29368">
<rect width="64.32" height="50.79" fill="white"/>
</clipPath>
</defs>
</svg>
