<svg width="76" height="76" viewBox="0 0 76 76" fill="none" xmlns="http://www.w3.org/2000/svg">
<path fill-rule="evenodd" clip-rule="evenodd" d="M37.9561 0C58.9184 0.000264191 75.9121 17.0133 75.9121 38C75.9121 58.9867 58.9184 75.9997 37.9561 76C16.9935 76 0 58.9868 0 38C0 17.0132 16.9935 3.30262e-05 37.9561 0ZM37.9561 8.87012C21.9019 8.87015 8.87012 21.9023 8.87012 38C8.87012 54.0977 21.9019 67.1299 37.9561 67.1299C54.01 67.1296 67.042 54.0976 67.042 38C67.042 21.9024 54.01 8.87038 37.9561 8.87012ZM53.0566 38L30.6826 50V26L53.0566 38Z" fill="#A3CDD8"/>
</svg>
