<?xml version="1.0" encoding="UTF-8" standalone="no"?>
<!DOCTYPE svg PUBLIC "-//W3C//DTD SVG 1.1//EN" "http://www.w3.org/Graphics/SVG/1.1/DTD/svg11.dtd">
<svg width="100%" height="100%" viewBox="0 0 10671 863" version="1.1" xmlns="http://www.w3.org/2000/svg" xmlns:xlink="http://www.w3.org/1999/xlink" xml:space="preserve" xmlns:serif="http://www.serif.com/" style="fill-rule:evenodd;clip-rule:evenodd;stroke-linejoin:round;stroke-miterlimit:2;">
    <g transform="matrix(1,0,0,1,0.002222,57.016667)">
        <g transform="matrix(5.555556,0,0,5.555556,2767.99,749.793889)">
            <path d="M0,-134.979C-39.15,-134.979 -70.888,-104.763 -70.888,-67.489C-70.888,-30.216 -39.15,0 0,0C39.15,0 70.888,-30.216 70.888,-67.489C70.888,-104.763 39.15,-134.979 0,-134.979M0,-125.62C33.927,-125.62 61.529,-99.542 61.529,-67.489C61.529,-35.436 33.927,-9.359 0,-9.359C-33.927,-9.359 -61.529,-35.436 -61.529,-67.489C-61.529,-99.542 -33.927,-125.62 0,-125.62" style="fill:rgb(163,205,216);fill-rule:nonzero;"/>
        </g>
        <g transform="matrix(5.555556,0,0,5.555556,0,0)">
            <clipPath id="_clip1">
                <rect x="356.286" y="0" width="71.065" height="134.963" clip-rule="nonzero"/>
            </clipPath>
            <g clip-path="url(#_clip1)">
                <g transform="matrix(-0.884849,-0.465879,-0.465879,0.884849,452.052495,20.451494)">
                    <rect x="26.712" y="-6.602" width="9.361" height="152.544" style="fill:rgb(143,167,157);"/>
                </g>
                <g transform="matrix(-0.465867,-0.884855,-0.884855,0.465867,438.841357,7.238804)">
                    <rect x="-107.664" y="64.99" width="152.545" height="9.359" style="fill:rgb(143,167,157);"/>
                </g>
                <g transform="matrix(-1,0,0,1,783.637,-945.053)">
                    <rect x="356.286" y="1007.847" width="71.065" height="9.359" style="fill:rgb(143,167,157);"/>
                </g>
                <g transform="matrix(-1,0,0,1,783.637,-944.842)">
                    <rect x="387.139" y="945.037" width="9.359" height="134.768" style="fill:rgb(143,167,157);"/>
                </g>
            </g>
        </g>
        <g transform="matrix(5.555556,0,0,5.555556,6321.24,749.793889)">
            <path d="M0,-134.979C-39.15,-134.979 -70.888,-104.763 -70.888,-67.489C-70.888,-30.216 -39.15,0 0,0C39.15,0 70.888,-30.216 70.888,-67.489C70.888,-104.763 39.15,-134.979 0,-134.979M0,-125.62C33.927,-125.62 61.529,-99.542 61.529,-67.489C61.529,-35.436 33.927,-9.359 0,-9.359C-33.927,-9.359 -61.529,-35.436 -61.529,-67.489C-61.529,-99.542 -33.927,-125.62 0,-125.62" style="fill:rgb(163,205,216);fill-rule:nonzero;"/>
        </g>
        <g transform="matrix(5.555556,0,0,5.555556,0,0)">
            <clipPath id="_clip2">
                <rect x="995.871" y="0" width="71.065" height="134.963" clip-rule="nonzero"/>
            </clipPath>
            <g clip-path="url(#_clip2)">
                <g transform="matrix(-0.465867,-0.884855,-0.884855,0.465867,1078.425815,7.239537)">
                    <rect x="-107.664" y="64.99" width="152.544" height="9.359" style="fill:rgb(143,167,157);"/>
                </g>
                <g transform="matrix(-0.884849,-0.465879,-0.465879,0.884849,1091.637395,20.451494)">
                    <rect x="26.712" y="-6.602" width="9.361" height="152.544" style="fill:rgb(143,167,157);"/>
                </g>
                <g transform="matrix(-1,0,0,1,2062.807,-945.053)">
                    <rect x="995.871" y="1007.847" width="71.065" height="9.359" style="fill:rgb(143,167,157);"/>
                </g>
                <g transform="matrix(-1,0,0,1,2062.807,-945.264)">
                    <rect x="1026.724" y="945.248" width="9.359" height="134.768" style="fill:rgb(143,167,157);"/>
                </g>
            </g>
        </g>
        <g transform="matrix(5.555556,0,0,5.555556,7904.012778,748.670556)">
            <path d="M0,-134.979C-39.15,-134.979 -70.888,-104.763 -70.888,-67.49C-70.888,-30.216 -39.15,0 0,0C39.15,0 70.888,-30.216 70.888,-67.49C70.888,-104.763 39.15,-134.979 0,-134.979M0,-125.62C33.927,-125.62 61.529,-99.543 61.529,-67.49C61.529,-35.437 33.927,-9.359 0,-9.359C-33.927,-9.359 -61.529,-35.437 -61.529,-67.49C-61.529,-99.543 -33.927,-125.62 0,-125.62" style="fill:rgb(163,205,216);fill-rule:nonzero;"/>
        </g>
        <g transform="matrix(-5.555556,0,0,5.555556,16990.477778,-5252.538889)">
            <rect x="1493.611" y="1008.049" width="71.064" height="9.359" style="fill:rgb(143,167,157);"/>
        </g>
        <g transform="matrix(5.555556,0,0,5.555556,0,0)">
            <clipPath id="_clip3">
                <rect x="1493.61" y="0" width="71.065" height="134.761" clip-rule="nonzero"/>
            </clipPath>
            <g clip-path="url(#_clip3)">
                <g transform="matrix(-0.884849,-0.465879,-0.465879,0.884849,1589.376753,20.248561)">
                    <rect x="26.711" y="-6.602" width="9.362" height="152.543" style="fill:rgb(143,167,157);"/>
                </g>
                <g transform="matrix(-0.465862,-0.884858,-0.884858,0.465862,1576.166197,7.038052)">
                    <rect x="-107.663" y="64.99" width="152.543" height="9.359" style="fill:rgb(143,167,157);"/>
                </g>
                <g transform="matrix(-1,0,0,1,3058.285,-945.668)">
                    <rect x="1524.463" y="945.45" width="9.359" height="134.768" style="fill:rgb(143,167,157);"/>
                </g>
            </g>
        </g>
        <g transform="matrix(5.555556,0,0,5.555556,0,0)">
            <clipPath id="_clip4">
                <rect x="214.155" y="0" width="142.131" height="134.963" clip-rule="nonzero"/>
            </clipPath>
            <g clip-path="url(#_clip4)">
                <g transform="matrix(1,0,0,1,254.9766,67.4726)">
                    <path d="M0,0.001L30.244,57.445L60.488,0.001L30.244,-57.443L0,0.001ZM30.244,77.534L-10.577,0.001L30.244,-77.533L71.065,0.001L30.244,77.534Z" style="fill:rgb(217,122,91);fill-rule:nonzero;"/>
                </g>
                <g transform="matrix(1,0,0,1,290.5088,67.4726)">
                    <path d="M0,0.001L30.245,57.445L60.488,0.001L30.245,-57.444L0,0.001ZM30.245,77.534L-10.577,0.001L30.245,-77.533L71.065,0.001L30.245,77.534Z" style="fill:rgb(217,122,91);fill-rule:nonzero;"/>
                </g>
                <g transform="matrix(1,0,0,1,219.4438,67.4726)">
                    <path d="M0,0.001L30.245,57.445L60.488,0.001L30.245,-57.443L0,0.001ZM30.245,77.534L-10.577,0.001L30.245,-77.533L71.065,0.001L30.245,77.534Z" style="fill:rgb(217,122,91);fill-rule:nonzero;"/>
                </g>
            </g>
        </g>
        <g transform="matrix(5.555556,0,0,5.555556,0,0)">
            <clipPath id="_clip5">
                <rect x="853.741" y="0" width="142.13" height="134.963" clip-rule="nonzero"/>
            </clipPath>
            <g clip-path="url(#_clip5)">
                <g transform="matrix(1,0,0,1,894.5615,67.4726)">
                    <path d="M0,0.001L30.244,57.445L60.488,0.001L30.244,-57.443L0,0.001ZM30.244,77.534L-10.577,0.001L30.244,-77.533L71.064,0.001L30.244,77.534Z" style="fill:rgb(217,122,91);fill-rule:nonzero;"/>
                </g>
                <g transform="matrix(1,0,0,1,930.0942,67.4736)">
                    <path d="M0,0L30.244,57.444L60.488,0L30.244,-57.444L0,0ZM30.244,77.534L-10.577,0L30.244,-77.534L71.064,0L30.244,77.534Z" style="fill:rgb(217,122,91);fill-rule:nonzero;"/>
                </g>
                <g transform="matrix(1,0,0,1,859.0288,67.4726)">
                    <path d="M0,0.001L30.244,57.445L60.488,0.001L30.244,-57.444L0,0.001ZM30.244,77.534L-10.577,0.001L30.244,-77.533L71.065,0.001L30.244,77.534Z" style="fill:rgb(217,122,91);fill-rule:nonzero;"/>
                </g>
            </g>
        </g>
        <g transform="matrix(5.555556,0,0,5.555556,0,0)">
            <clipPath id="_clip6">
                <rect x="1564.675" y="0" width="142.13" height="134.761" clip-rule="nonzero"/>
            </clipPath>
            <g clip-path="url(#_clip6)">
                <g transform="matrix(1,0,0,1,1605.4951,67.272)">
                    <path d="M0,-0.001L30.245,57.444L60.489,-0.001L30.245,-57.445L0,-0.001ZM30.245,77.533L-10.576,-0.001L30.245,-77.534L71.065,-0.001L30.245,77.533Z" style="fill:rgb(217,122,91);fill-rule:nonzero;"/>
                </g>
                <g transform="matrix(1,0,0,1,1569.9629,67.272)">
                    <path d="M0,-0.001L30.245,57.444L60.489,-0.001L30.245,-57.445L0,-0.001ZM30.245,77.533L-10.576,-0.001L30.245,-77.534L71.065,-0.001L30.245,77.533Z" style="fill:rgb(217,122,91);fill-rule:nonzero;"/>
                </g>
                <g transform="matrix(1,0,0,1,1641.0283,67.271)">
                    <path d="M0,0L30.244,57.444L60.488,0L30.244,-57.444L0,0ZM30.244,77.534L-10.576,0L30.244,-77.534L71.064,0L30.244,77.534Z" style="fill:rgb(217,122,91);fill-rule:nonzero;"/>
                </g>
            </g>
        </g>
        <g transform="matrix(5.555556,0,0,5.555556,3361.182778,611.785556)">
            <path d="M0,-59.721C-19.624,-59.721 -35.532,-46.352 -35.532,-29.861C-35.532,-13.369 -19.624,0 0,0C19.624,0 35.532,-13.369 35.532,-29.861C35.532,-46.352 19.624,-59.721 0,-59.721M0,-50.362C14.432,-50.362 26.174,-41.165 26.174,-29.861C26.174,-18.556 14.432,-9.359 0,-9.359C-14.432,-9.359 -26.174,-18.556 -26.174,-29.861C-26.174,-41.165 -14.432,-50.362 0,-50.362" style="fill:rgb(227,169,124);fill-rule:nonzero;"/>
        </g>
        <g transform="matrix(5.555556,0,0,5.555556,3361.182778,331.693889)">
            <path d="M0,-59.721C-19.624,-59.721 -35.532,-46.352 -35.532,-29.861C-35.532,-13.369 -19.624,0 0,0C19.624,0 35.532,-13.369 35.532,-29.861C35.532,-46.352 19.624,-59.721 0,-59.721M0,-50.362C14.432,-50.362 26.174,-41.165 26.174,-29.861C26.174,-18.556 14.432,-9.359 0,-9.359C-14.432,-9.359 -26.174,-18.556 -26.174,-29.861C-26.174,-41.165 -14.432,-50.362 0,-50.362" style="fill:rgb(227,169,124);fill-rule:nonzero;"/>
        </g>
        <g transform="matrix(5.555556,0,0,5.555556,3361.182778,749.795556)">
            <path d="M0,-59.721C-19.624,-59.721 -35.532,-46.352 -35.532,-29.861C-35.532,-13.369 -19.624,0 0,0C19.624,0 35.532,-13.369 35.532,-29.861C35.532,-46.352 19.624,-59.721 0,-59.721M0,-50.362C14.432,-50.362 26.174,-41.165 26.174,-29.861C26.174,-18.556 14.432,-9.359 0,-9.359C-14.432,-9.359 -26.174,-18.556 -26.174,-29.861C-26.174,-41.165 -14.432,-50.362 0,-50.362" style="fill:rgb(227,169,124);fill-rule:nonzero;"/>
        </g>
        <g transform="matrix(5.555556,0,0,5.555556,3361.182778,470.015556)">
            <path d="M0,-59.721C-19.624,-59.721 -35.532,-46.352 -35.532,-29.861C-35.532,-13.369 -19.624,0 0,0C19.624,0 35.532,-13.369 35.532,-29.861C35.532,-46.352 19.624,-59.721 0,-59.721M0,-50.362C14.432,-50.362 26.174,-41.165 26.174,-29.861C26.174,-18.556 14.432,-9.359 0,-9.359C-14.432,-9.359 -26.174,-18.556 -26.174,-29.861C-26.174,-41.165 -14.432,-50.362 0,-50.362" style="fill:rgb(227,169,124);fill-rule:nonzero;"/>
        </g>
        <g transform="matrix(5.555556,0,0,5.555556,7112.537222,481.892778)">
            <path d="M0,-58.124C-39.426,-58.124 -71.387,-45.112 -71.387,-29.062C-71.387,-13.012 -39.426,0 0,0C39.426,0 71.387,-13.012 71.387,-29.062C71.387,-45.112 39.426,-58.124 0,-58.124M0,-48.765C17.627,-48.765 34.74,-45.915 46.949,-40.944C57.309,-36.726 62.028,-31.828 62.028,-29.062C62.028,-26.296 57.309,-21.398 46.949,-17.18C34.74,-12.209 17.627,-9.359 0,-9.359C-17.627,-9.359 -34.74,-12.209 -46.949,-17.18C-57.309,-21.398 -62.028,-26.296 -62.028,-29.062C-62.028,-31.828 -57.309,-36.726 -46.949,-40.944C-34.74,-45.915 -17.627,-48.765 0,-48.765" style="fill:rgb(227,169,124);fill-rule:nonzero;"/>
        </g>
        <g transform="matrix(5.555556,0,0,5.555556,7112.537222,749.793889)">
            <path d="M0,-58.124C-39.426,-58.124 -71.387,-45.112 -71.387,-29.062C-71.387,-13.012 -39.426,0 0,0C39.426,0 71.387,-13.012 71.387,-29.062C71.387,-45.112 39.426,-58.124 0,-58.124M0,-48.765C17.627,-48.765 34.74,-45.915 46.949,-40.944C57.309,-36.726 62.028,-31.828 62.028,-29.062C62.028,-26.296 57.309,-21.398 46.949,-17.18C34.74,-12.209 17.627,-9.359 0,-9.359C-17.627,-9.359 -34.74,-12.209 -46.949,-17.18C-57.309,-21.398 -62.028,-26.296 -62.028,-29.062C-62.028,-31.828 -57.309,-36.726 -46.949,-40.944C-34.74,-45.915 -17.627,-48.765 0,-48.765" style="fill:rgb(227,169,124);fill-rule:nonzero;"/>
        </g>
        <g transform="matrix(5.555556,0,0,5.555556,7112.537222,322.821667)">
            <path d="M0,-58.124C-39.426,-58.124 -71.387,-45.112 -71.387,-29.062C-71.387,-13.011 -39.426,0 0,0C39.426,0 71.387,-13.011 71.387,-29.062C71.387,-45.112 39.426,-58.124 0,-58.124M0,-48.765C17.627,-48.765 34.74,-45.915 46.949,-40.944C57.309,-36.726 62.028,-31.828 62.028,-29.062C62.028,-26.296 57.309,-21.397 46.949,-17.18C34.74,-12.209 17.628,-9.359 0,-9.359C-17.628,-9.359 -34.74,-12.209 -46.949,-17.18C-57.309,-21.397 -62.028,-26.296 -62.028,-29.062C-62.028,-31.828 -57.309,-36.726 -46.949,-40.944C-34.74,-45.915 -17.627,-48.765 0,-48.765" style="fill:rgb(227,169,124);fill-rule:nonzero;"/>
        </g>
        <g transform="matrix(5.555556,0,0,5.555556,7112.537222,591.793889)">
            <path d="M0,-58.124C-39.426,-58.124 -71.387,-45.112 -71.387,-29.062C-71.387,-13.012 -39.426,0 0,0C39.426,0 71.387,-13.012 71.387,-29.062C71.387,-45.112 39.426,-58.124 0,-58.124M0,-48.765C17.627,-48.765 34.74,-45.915 46.949,-40.944C57.309,-36.726 62.028,-31.828 62.028,-29.062C62.028,-26.296 57.309,-21.398 46.949,-17.18C34.74,-12.209 17.627,-9.359 0,-9.359C-17.627,-9.359 -34.74,-12.209 -46.949,-17.18C-57.309,-21.398 -62.028,-26.296 -62.028,-29.062C-62.028,-31.828 -57.309,-36.726 -46.949,-40.944C-34.74,-45.915 -17.627,-48.765 0,-48.765" style="fill:rgb(227,169,124);fill-rule:nonzero;"/>
        </g>
        <g transform="matrix(5.555556,0,0,5.555556,1101.203333,378.929444)">
            <path d="M0,-0.001L-90.679,28.841L-180.359,-0.002L-90.68,-28.844L0,-0.001ZM15.938,-63.133L15.938,-68.207L0.157,-68.207L-90.698,-38.988L-182.563,-68.207L-198.217,-68.207L-198.217,-63.048L-106.547,-33.89L-198.217,-4.409L-198.217,4.405L-106.546,33.887L-198.217,63.044L-198.217,68.206L-182.569,68.206L-90.697,38.985L0.16,68.206L15.937,68.206L15.938,68.203L15.938,63.131L-74.83,33.938L15.938,5.068L15.938,-5.07L-74.831,-33.941L15.938,-63.133Z" style="fill:rgb(237,230,220);fill-rule:nonzero;"/>
        </g>
        <g transform="matrix(5.555556,0,0,5.555556,4641.448889,378.795)">
            <path d="M0,-0.001L-90.679,28.841L-180.359,-0.002L-90.68,-28.844L0,-0.001ZM15.938,-63.133L15.938,-68.207L0.157,-68.207L-90.698,-38.988L-182.563,-68.207L-198.217,-68.207L-198.217,-63.048L-106.547,-33.89L-198.217,-4.409L-198.217,4.405L-106.546,33.887L-198.217,63.044L-198.217,68.206L-182.569,68.206L-90.697,38.985L0.16,68.206L15.937,68.206L15.938,68.203L15.938,63.131L-74.83,33.938L15.938,5.068L15.938,-5.07L-74.831,-33.941L15.938,-63.133Z" style="fill:rgb(237,230,220);fill-rule:nonzero;"/>
        </g>
        <g transform="matrix(5.555556,0,0,5.555556,10581.861667,377.422222)">
            <path d="M0,-0.001L-90.679,28.841L-180.359,-0.002L-90.68,-28.844L0,-0.001ZM15.938,-63.133L15.938,-68.207L0.157,-68.207L-90.698,-38.988L-182.563,-68.207L-198.217,-68.207L-198.217,-63.048L-106.547,-33.89L-198.217,-4.409L-198.217,4.405L-106.546,33.887L-198.217,63.044L-198.217,68.206L-182.569,68.206L-90.697,38.985L0.16,68.206L15.938,68.206L15.938,63.131L-74.83,33.938L15.938,5.068L15.938,-5.07L-74.831,-33.941L15.938,-63.133Z" style="fill:rgb(237,230,220);fill-rule:nonzero;"/>
        </g>
    </g>
</svg>
