<?xml version="1.0" encoding="UTF-8"?>
<svg id="Capa_1" xmlns="http://www.w3.org/2000/svg" version="1.1" viewBox="0 0 1266.05 1266.05">
  <!-- Generator: Adobe Illustrator 30.3.0, SVG Export Plug-In . SVG Version: 2.1.3 Build 182)  -->
  <defs>
    <style>
      .st0 {
        fill: #ff5f21;
      }
    </style>
  </defs>
  <path class="st0" d="M464.48,1024.02c-64.16,0-119.82-15.74-165.43-46.78-45.57-31-80.95-76.21-105.17-134.37-23.98-57.56-36.14-128-36.14-209.35s12.16-151.43,36.13-209.33c24.21-58.49,59.59-103.94,105.15-135.12,45.63-31.22,101.3-47.05,165.45-47.05s119.92,15.91,165.71,47.3c45.72,31.33,81.18,76.79,105.4,135.11,23.97,57.75,36.13,128.1,36.13,209.09s-12.07,151.76-35.88,209.33c-24.05,58.17-59.44,103.39-105.18,134.4-45.78,31.03-101.68,46.77-166.17,46.77ZM464.48,261.17c-60.23,0-112.26,14.7-154.65,43.7-42.44,29.04-75.51,71.65-98.27,126.64-23.01,55.57-34.67,123.53-34.67,202.01s11.66,146.77,34.66,201.99c22.76,54.66,55.82,97.02,98.26,125.9,42.37,28.84,94.42,43.47,154.66,43.47s112.88-14.63,155.42-43.47c42.59-28.87,75.64-71.22,98.24-125.87,22.84-55.24,34.42-123.2,34.42-202.01s-11.67-146.33-34.67-201.75c-22.77-54.84-55.92-97.45-98.53-126.66-42.55-29.16-94.66-43.94-154.89-43.94ZM464.48,897.88c-32.62,0-60.82-10.93-83.83-32.51-22.44-21.04-39.61-51.68-51.01-91.08-11.17-38.58-16.83-85.94-16.83-140.77s5.66-102.76,16.83-141.51c11.4-39.54,28.55-70.35,50.99-91.56,23.01-21.75,51.22-32.78,83.86-32.78s61.26,10.94,84.11,32.53c22.26,21.04,39.41,51.83,50.98,91.54,11.34,38.93,17.08,86.64,17.08,141.78s-5.75,102.2-17.09,140.81c-11.57,39.36-28.72,69.98-50.98,91.02-22.85,21.59-51.14,32.53-84.11,32.53ZM464.48,386.82c-27.97,0-51.1,9.01-70.71,27.55-19.91,18.83-35.3,46.74-45.74,82.95-10.67,37.02-16.08,82.85-16.08,136.21s5.41,98.6,16.07,135.45c10.44,36.05,25.81,63.78,45.71,82.43,19.61,18.39,42.75,27.33,70.74,27.33s51.51-8.93,70.96-27.3c19.76-18.67,35.15-46.43,45.75-82.5,10.83-36.85,16.32-82.41,16.32-135.41s-5.49-99.24-16.32-136.43c-10.6-36.39-26-64.31-45.75-82.97-19.45-18.37-42.65-27.3-70.96-27.3Z"/>
  <path class="st0" d="M1108.3,1014.05h-171.22V410.69l-175.01,124.2v-163.12l170.59-119.77h175.64v762.05ZM956.23,994.9h132.93V271.14h-150.44l-157.49,110.58v116.1l157.39-111.7h17.61v608.78Z"/>
</svg>