<?xml version="1.0" encoding="UTF-8"?>
<svg id="Capa_1" xmlns="http://www.w3.org/2000/svg" version="1.1" viewBox="0 0 1266.05 1266.05">
  <!-- Generator: Adobe Illustrator 30.3.0, SVG Export Plug-In . SVG Version: 2.1.3 Build 182)  -->
  <defs>
    <style>
      .st0 {
        fill: #ff5f21;
      }
    </style>
  </defs>
  <path class="st0" d="M357.53,1024.02c-64.17,0-119.83-15.74-165.43-46.78-45.57-31-80.95-76.21-105.17-134.37-23.98-57.56-36.14-127.99-36.14-209.35s12.15-151.44,36.13-209.33c24.21-58.49,59.59-103.94,105.15-135.12,45.62-31.22,101.29-47.05,165.45-47.05s119.92,15.91,165.71,47.3c45.71,31.33,81.17,76.78,105.4,135.11,23.97,57.75,36.13,128.1,36.13,209.09s-12.07,151.76-35.88,209.33c-24.05,58.17-59.44,103.39-105.18,134.4-45.78,31.03-101.68,46.77-166.17,46.77ZM357.53,261.17c-60.24,0-112.26,14.7-154.65,43.7-42.44,29.04-75.51,71.65-98.27,126.64-23,55.56-34.67,123.52-34.67,202.01s11.66,146.78,34.66,201.99c22.76,54.66,55.82,97.02,98.26,125.9,42.37,28.84,94.41,43.47,154.66,43.47s112.88-14.63,155.42-43.47c42.59-28.87,75.64-71.22,98.24-125.87,22.84-55.24,34.42-123.2,34.42-202.01s-11.67-146.33-34.67-201.75c-22.77-54.84-55.93-97.46-98.53-126.66-42.55-29.16-94.66-43.94-154.89-43.94ZM357.53,897.88c-32.63,0-60.83-10.94-83.83-32.51-22.44-21.04-39.61-51.68-51.01-91.08-11.17-38.58-16.83-85.94-16.83-140.77s5.66-102.76,16.83-141.51c11.4-39.54,28.55-70.35,50.99-91.56,23-21.75,51.22-32.78,83.86-32.78s61.25,10.94,84.11,32.53c22.25,21.03,39.4,51.82,50.98,91.53,11.34,38.94,17.08,86.64,17.08,141.79s-5.75,102.2-17.09,140.81c-11.58,39.37-28.73,69.99-50.98,91.02-22.85,21.59-51.15,32.53-84.11,32.53ZM357.53,386.82c-27.98,0-51.1,9.01-70.71,27.55-19.91,18.83-35.3,46.74-45.74,82.95-10.67,37.02-16.08,82.85-16.08,136.21s5.41,98.6,16.07,135.45c10.44,36.05,25.81,63.78,45.71,82.43,19.61,18.39,42.75,27.33,70.74,27.33s51.5-8.93,70.96-27.3c19.75-18.67,35.14-46.42,45.75-82.5,10.83-36.85,16.32-82.41,16.32-135.41s-5.49-99.24-16.32-136.43c-10.61-36.4-26-64.32-45.75-82.97-19.45-18.37-42.66-27.3-70.96-27.3Z"/>
  <path class="st0" d="M1215.25,1014.05h-544.67v-123.41l266.28-249.64c22.21-21.56,41.23-41.41,56.42-58.88,14.81-17.04,26.24-33.92,33.98-50.19,7.49-15.75,11.29-33.07,11.29-51.48,0-20.35-4.54-37.93-13.51-52.27-8.97-14.36-21.43-25.6-37.05-33.41-15.87-7.93-34.39-11.95-55.05-11.95s-39.99,4.31-55.79,12.82c-15.53,8.36-27.63,20.47-36,36-8.5,15.79-12.81,35.23-12.81,57.78v9.57h-164.74v-9.57c0-49.78,11.64-93.83,34.59-130.93,22.95-37.11,55.21-66.15,95.88-86.31,40.37-20.02,87.43-30.16,139.87-30.16s101.39,9.79,141.74,29.11c40.62,19.45,72.7,46.67,95.34,80.88,22.72,34.35,34.25,74.37,34.25,118.96,0,28.68-5.68,57.39-16.89,85.33-11.13,27.73-31.11,59.04-59.36,93.05-27.92,33.61-67.9,74.27-118.82,120.86l-100.87,99.54h305.91v144.29ZM689.73,994.9h506.37v-106h-314.11v-19.06l115.03-113.5c50.54-46.25,89.91-86.28,117.28-119.21,26.98-32.48,45.93-62.07,56.32-87.94,10.29-25.67,15.51-51.98,15.51-78.2,0-40.76-10.45-77.24-31.07-108.4-20.7-31.29-50.19-56.24-87.64-74.18-37.76-18.07-82.66-27.23-133.48-27.23s-93.66,9.48-131.37,28.17c-37.41,18.55-67.05,45.2-88.1,79.23-19.58,31.66-30.18,69.06-31.57,111.29h126.53c1.12-21.79,6.1-41.03,14.86-57.29,10.17-18.88,24.9-33.61,43.78-43.78,18.62-10.02,40.45-15.1,64.87-15.1s45.06,4.7,63.61,13.97c18.81,9.41,33.85,23,44.72,40.39,10.89,17.43,16.41,38.42,16.41,62.41,0,21.28-4.43,41.36-13.14,59.7-8.48,17.83-20.87,36.18-36.82,54.52-15.53,17.87-34.93,38.11-57.64,60.17l-260.35,244.08v95.97Z"/>
</svg>