<?xml version="1.0" encoding="UTF-8"?>
<svg id="Capa_1" xmlns="http://www.w3.org/2000/svg" version="1.1" viewBox="0 0 1266.05 1266.05">
  <!-- Generator: Adobe Illustrator 30.3.0, SVG Export Plug-In . SVG Version: 2.1.3 Build 182)  -->
  <defs>
    <style>
      .st0 {
        fill: #ff5f21;
      }
    </style>
  </defs>
  <path class="st0" d="M345.07,1024.02c-64.16,0-119.82-15.74-165.43-46.78-45.57-31-80.95-76.21-105.17-134.37-23.98-57.57-36.14-128.01-36.14-209.35s12.15-151.43,36.13-209.33c24.21-58.49,59.59-103.94,105.15-135.12,45.63-31.22,101.3-47.05,165.45-47.05s119.92,15.91,165.71,47.3c45.72,31.33,81.18,76.79,105.4,135.11,23.97,57.75,36.13,128.1,36.13,209.09s-12.07,151.76-35.88,209.33c-24.05,58.17-59.44,103.39-105.18,134.4-45.78,31.03-101.68,46.77-166.17,46.77ZM345.07,261.17c-60.23,0-112.26,14.7-154.65,43.7-42.44,29.04-75.51,71.65-98.27,126.64-23,55.57-34.67,123.54-34.67,202.01s11.66,146.76,34.66,201.99c22.76,54.66,55.82,97.02,98.26,125.9,42.37,28.84,94.42,43.47,154.66,43.47s112.88-14.63,155.42-43.47c42.59-28.87,75.64-71.22,98.24-125.87,22.84-55.24,34.42-123.2,34.42-202.01s-11.67-146.33-34.67-201.75c-22.77-54.84-55.92-97.45-98.53-126.66-42.55-29.16-94.66-43.94-154.89-43.94ZM345.07,897.88c-32.62,0-60.82-10.93-83.83-32.51-22.44-21.04-39.61-51.68-51.01-91.08-11.17-38.58-16.83-85.94-16.83-140.77s5.66-102.76,16.83-141.51c11.4-39.54,28.55-70.35,50.99-91.56,23.01-21.75,51.22-32.78,83.86-32.78s61.26,10.94,84.11,32.53c22.26,21.04,39.41,51.83,50.98,91.54,11.34,38.93,17.08,86.64,17.08,141.78s-5.75,102.2-17.09,140.81c-11.57,39.36-28.72,69.98-50.98,91.02-22.85,21.59-51.14,32.53-84.11,32.53ZM345.07,386.82c-27.97,0-51.1,9.01-70.71,27.55-19.91,18.83-35.3,46.74-45.74,82.95-10.67,37.02-16.08,82.85-16.08,136.21s5.41,98.6,16.07,135.45c10.44,36.05,25.81,63.78,45.71,82.43,19.61,18.39,42.75,27.33,70.74,27.33s51.51-8.93,70.96-27.3c19.76-18.67,35.15-46.43,45.75-82.5,10.83-36.85,16.32-82.41,16.32-135.41s-5.49-99.24-16.32-136.43c-10.6-36.39-26-64.31-45.75-82.97-19.45-18.37-42.65-27.3-70.96-27.3Z"/>
  <path class="st0" d="M934.44,1024.02c-54.95,0-104.48-9.59-147.22-28.49-43.08-19.05-77.59-46.01-102.57-80.13-25.19-34.38-38.3-74.48-39-119.19l-.15-9.72h171.87l.49,9.06c.9,16.72,6.16,30.82,16.09,43.11,10.04,12.45,23.92,22.31,41.26,29.3,17.7,7.15,37.8,10.77,59.74,10.77,23.1,0,43.57-3.99,60.85-11.85,16.93-7.71,30.38-18.61,39.98-32.41,9.45-13.58,14.24-29.69,14.24-47.88s-4.88-34.69-14.93-48.79c-10.05-14.09-24.72-25.33-43.58-33.4-19.33-8.25-43.06-12.44-70.53-12.44h-78.38v-132.33h78.38c22.75,0,42.87-3.98,59.79-11.83,16.67-7.73,29.9-18.41,39.34-31.75,9.39-13.25,13.95-28.49,13.95-46.57s-4.04-32.59-12-45.27c-7.99-12.72-19.38-22.88-33.85-30.2-14.7-7.42-32.29-11.19-52.27-11.19s-38.85,3.67-55.51,10.92c-16.4,7.14-29.75,17.16-39.67,29.79-9.74,12.4-14.62,26.82-14.91,44.11l-.16,9.41h-165.72l.15-9.72c.69-44,13.46-83.57,37.95-117.62,24.31-33.8,57.72-60.51,99.29-79.41,41.29-18.77,88.25-28.28,139.58-28.28s98.44,9.72,137.81,28.89c39.59,19.29,70.8,45.72,92.77,78.57,22.08,33.05,33.27,70.23,33.27,110.53,0,43.83-13.85,81.07-41.18,110.7-20.55,22.27-45.99,38.63-75.9,48.87,24.4,5.82,46.01,14.62,64.5,26.29,26.1,16.47,46.11,37.84,59.48,63.51,13.29,25.54,20.03,54.88,20.03,87.19,0,43.76-12.88,83.42-38.27,117.86-25.17,34.12-60.26,61.25-104.32,80.61-43.75,19.23-94.45,28.98-150.69,28.98ZM665.17,805.64c2.24,36.76,13.97,69.83,34.93,98.45,22.98,31.38,54.9,56.26,94.87,73.93,40.29,17.82,87.21,26.86,139.48,26.86s101.68-9.21,142.98-27.36c40.95-18.01,73.46-43.06,96.62-74.45,22.91-31.08,34.53-66.92,34.53-106.5,0-29.21-6.01-55.57-17.87-78.35-11.79-22.62-29.52-41.52-52.71-56.15-23.46-14.8-52.77-24.56-87.12-29.02l-8.34-1.08v-21.79l7.75-1.5c38.98-7.54,71.02-24.68,95.25-50.94,23.96-25.97,36.1-58.85,36.1-97.72,0-36.44-10.11-70.05-30.05-99.88-20.06-29.99-48.73-54.22-85.23-72-36.73-17.89-80.28-26.96-129.43-26.96s-92.88,8.94-131.65,26.57c-38.49,17.49-69.34,42.11-91.67,73.16-20.36,28.3-31.76,60.89-33.97,97.02h127.63c1.84-17.44,8.02-32.95,18.43-46.2,11.91-15.15,27.75-27.1,47.09-35.52,19.09-8.3,40.34-12.51,63.15-12.51s43.5,4.46,60.9,13.24c17.63,8.91,31.57,21.4,41.44,37.11,9.9,15.78,14.93,34.43,14.93,55.45s-5.88,41.27-17.46,57.63c-11.39,16.1-27.18,28.9-46.92,38.06-19.47,9.02-42.3,13.6-67.85,13.6h-59.23v94.04h59.23c30.07,0,56.32,4.71,78.05,13.98,22.14,9.47,39.52,22.89,51.65,39.89,12.27,17.22,18.49,37.37,18.49,59.91s-5.95,41.96-17.67,58.82c-11.59,16.65-27.67,29.74-47.77,38.9-19.79,9.01-42.94,13.57-68.79,13.57-24.41,0-46.92-4.09-66.91-12.16-20.39-8.23-36.88-20.01-48.99-35.03-10.53-13.02-17.05-28.15-19.43-45.05h-134.45Z"/>
</svg>